<svg xmlns="http://www.w3.org/2000/svg" viewBox="0 0 48 48"><symbol id="New_Symbol_14" viewBox="-6.5 -6.5 13 13"><path fill="#ffd4c3" stroke="#504b46" stroke-linecap="round" stroke-linejoin="round" stroke-miterlimit="10" d="M0-6c2.2 0 4.1 1.5 4.7 3.5C6.3-2.5 6.4 0 5 0v1c0 2.8-2.2 5-5 5s-5-2.2-5-5V0c-1.4 0-1.3-2.5.2-2.5C-4.1-4.5-2.2-6 0-6z"/><circle cx="-1.6" cy="-.1" r=".1" fill="#ffc258"/><path fill="#4f4b45" d="M-1.6.5c-.3 0-.6-.3-.6-.6s.2-.7.6-.7c.3 0 .6.3.6.7s-.3.6-.6.6z"/><circle cx="1.6" cy="-.1" r=".1" fill="#ffc258"/><path fill="#4f4b45" d="M1.6.5C1.3.5 1 .2 1-.1s.3-.6.6-.6.6.3.6.6-.2.6-.6.6z"/><circle cx="-3" cy="-1.5" r=".5" fill="#fabfa5"/><circle cx="3" cy="-1.5" r=".5" fill="#fabfa5"/><path fill="none" stroke="#504b46" stroke-linecap="round" stroke-linejoin="round" stroke-miterlimit="10" d="M-1.2-3c.8-.5 1.7-.5 2.5 0"/></symbol><g id="Icons"><g id="XMLID_534_"><path id="XMLID_7128_" fill="#00dba8" d="M44 19c0 11-13.5 22.5-20 22.5S4 30.1 4 19 13 1.5 24 1.5 44 8 44 19z"/><path id="XMLID_7127_" fill="#00ad85" d="M24 38.4c-6.2 0-18.8-10.5-19.9-21-.1.5-.1 1.1-.1 1.6 0 11 13.5 22.5 20 22.5S44 30.1 44 19c0-.6 0-1.1-.1-1.7C42.8 28 30.2 38.4 24 38.4z"/><path id="XMLID_7126_" fill="none" stroke="#45413c" stroke-linecap="round" stroke-miterlimit="10" d="M29.1 30c-1.4 1-3.2 1.5-5 1.5-1.8 0-3.6-.6-5-1.5"/><ellipse id="XMLID_7125_" cx="24.1" cy="45" fill="#45413c" opacity=".15" rx="16" ry="1.5"/><path id="XMLID_7124_" fill="none" stroke="#45413c" stroke-linecap="round" stroke-linejoin="round" stroke-miterlimit="10" d="M44 19c0 11-13.5 22.5-20 22.5S4 30.1 4 19 13 1.5 24 1.5 44 8 44 19z"/><g id="XMLID_7116_"><path id="XMLID_7119_" fill="#bf8df2" d="M37.1 12.5c2.4 1.8 2.4 5.7.2 8.7-2.3 3-6.3 3.5-9 3.1-1.6-2.3-1.9-6.6.4-9.6 2.3-3.1 6-4 8.4-2.2z"/><path id="XMLID_7118_" fill="#dabff5" d="M37.1 15.2c-2.4-1.8-6.1-.9-8.4 2.1-.9 1.1-1.3 2.4-1.5 3.8-.3-2.1.1-4.6 1.5-6.5 2.3-3 6-3.9 8.4-2.1 1.6 1.2 2.1 3.3 1.7 5.4-.3-1.1-.8-2.1-1.7-2.7z"/><path id="XMLID_7117_" fill="none" stroke="#45413c" stroke-linecap="round" stroke-linejoin="round" stroke-miterlimit="10" d="M37.1 12.5c2.4 1.8 2.4 5.7.2 8.7-2.3 3-6.3 3.5-9 3.1-1.6-2.3-1.9-6.6.4-9.6 2.3-3.1 6-4 8.4-2.2z"/></g><g id="XMLID_810_"><path id="XMLID_827_" fill="#bf8df2" d="M10.9 12.5c-2.4 1.8-2.4 5.7-.2 8.7 2.3 3 6.3 3.5 9 3.1 1.6-2.3 1.9-6.6-.4-9.6-2.3-3.1-6-4-8.4-2.2z"/><path id="XMLID_826_" fill="#dabff5" d="M10.9 15.2c2.4-1.8 6.1-.9 8.4 2.1.9 1.1 1.3 2.4 1.5 3.8.3-2.1-.1-4.6-1.5-6.5-2.3-3-6-3.9-8.4-2.1-1.6 1.2-2.1 3.3-1.7 5.4.3-1.1.8-2.1 1.7-2.7z"/><path id="XMLID_811_" fill="none" stroke="#45413c" stroke-linecap="round" stroke-linejoin="round" stroke-miterlimit="10" d="M10.9 12.5c-2.4 1.8-2.4 5.7-.2 8.7 2.3 3 6.3 3.5 9 3.1 1.6-2.3 1.9-6.6-.4-9.6-2.3-3.1-6-4-8.4-2.2z"/></g><path id="XMLID_7115_" fill="none" stroke="#45413c" stroke-linecap="round" stroke-linejoin="round" stroke-miterlimit="10" d="M25.6 26v1.5"/><path id="XMLID_7114_" fill="none" stroke="#45413c" stroke-linecap="round" stroke-linejoin="round" stroke-miterlimit="10" d="M22.6 26v1.5"/><ellipse id="XMLID_7112_" cx="34.9" cy="28.2" fill="#00ad85" rx="2.5" ry="1.5"/><ellipse id="XMLID_828_" cx="13.3" cy="28.2" fill="#00ad85" rx="2.5" ry="1.5"/><ellipse id="XMLID_7111_" cx="24" cy="5.4" fill="#00f5bc" rx="6" ry="1.5"/></g></g></svg>