<svg xmlns="http://www.w3.org/2000/svg" viewBox="0 0 48 48"><symbol id="New_Symbol_14" viewBox="-6.5 -6.5 13 13"><path fill="#ffd4c3" stroke="#504b46" stroke-linecap="round" stroke-linejoin="round" stroke-miterlimit="10" d="M0-6c2.2 0 4.1 1.5 4.7 3.5C6.3-2.5 6.4 0 5 0v1c0 2.8-2.2 5-5 5s-5-2.2-5-5V0c-1.4 0-1.3-2.5.2-2.5C-4.1-4.5-2.2-6 0-6z"/><circle cx="-1.6" cy="-.1" r=".1" fill="#ffc258"/><path fill="#4f4b45" d="M-1.6.5c-.3 0-.6-.3-.6-.6s.2-.7.6-.7c.3 0 .6.3.6.7s-.3.6-.6.6z"/><circle cx="1.6" cy="-.1" r=".1" fill="#ffc258"/><path fill="#4f4b45" d="M1.6.5C1.3.5 1 .2 1-.1s.3-.6.6-.6.6.3.6.6-.2.6-.6.6z"/><circle cx="-3" cy="-1.5" r=".5" fill="#fabfa5"/><circle cx="3" cy="-1.5" r=".5" fill="#fabfa5"/><path fill="none" stroke="#504b46" stroke-linecap="round" stroke-linejoin="round" stroke-miterlimit="10" d="M-1.2-3c.8-.5 1.7-.5 2.5 0"/></symbol><g id="Icons"><g id="XMLID_650_"><circle id="XMLID_85_" cx="24" cy="21.7" r="20" fill="#ffe500"/><path id="XMLID_93_" fill="#ebcb00" d="M24 1.7c-11 0-20 9-20 20s9 20 20 20 20-9 20-20-9-20-20-20zm0 37c-10.1 0-18.2-8.2-18.2-18.2C5.7 10.4 13.9 2.2 24 2.2s18.2 8.2 18.2 18.2c0 10.1-8.1 18.3-18.2 18.3z"/><circle id="XMLID_96_" cx="24" cy="21.7" r="20" fill="none" stroke="#45413c" stroke-linecap="round" stroke-linejoin="round" stroke-miterlimit="10"/><ellipse id="XMLID_97_" cx="23.9" cy="5.7" fill="#fff48c" rx="6" ry="1.5"/><g id="XMLID_98_"><path id="XMLID_99_" fill="#ffb0ca" stroke="#45413c" stroke-linecap="round" stroke-linejoin="round" stroke-miterlimit="10" d="M17.9 29.4c-.3 0-.5.1-.7.3-.2.2-.2.5-.2.8.5 3.4 3.5 6 7 6s6.5-2.6 7-6c0-.3 0-.5-.2-.8-.2-.2-.4-.3-.7-.3H17.9z"/><path id="XMLID_100_" fill="#ff87af" stroke="#45413c" stroke-linecap="round" stroke-linejoin="round" stroke-miterlimit="10" d="M29.6 33.7c-1.4-.8-3.4-1.3-5.6-1.3-2.2 0-4.2.5-5.6 1.3 1.3 1.7 3.3 2.7 5.6 2.7 2.3.1 4.3-1 5.6-2.7z"/></g><path id="XMLID_101_" fill="#fff" stroke="#45413c" stroke-linecap="round" stroke-linejoin="round" stroke-miterlimit="10" d="M41.5 24c.1 0 .3-.2.3-.3 0-.1-.1-.3-.3-.3-5-1.4-5.4-1.8-6.8-6.8 0-.1-.2-.3-.3-.3-.1 0-.3.1-.3.3-1.4 5-1.8 5.4-6.8 6.8-.1 0-.3.2-.3.3 0 .1.1.3.3.3 5 1.4 5.4 1.8 6.8 6.8 0 .1.2.3.3.3.1 0 .3-.1.3-.3 1.4-4.9 1.8-5.4 6.8-6.8z"/><path id="XMLID_102_" fill="#fff" stroke="#45413c" stroke-linecap="round" stroke-linejoin="round" stroke-miterlimit="10" d="M20.8 24c.1 0 .3-.2.3-.3 0-.1-.1-.3-.3-.3-5-1.4-5.4-1.8-6.8-6.8 0-.1-.2-.3-.3-.3-.1 0-.3.1-.3.3-1.4 5-1.8 5.4-6.8 6.8-.1 0-.3.2-.3.3 0 .1.1.3.3.3 5 1.4 5.4 1.8 6.8 6.8 0 .1.2.3.3.3.1 0 .3-.1.3-.3 1.4-4.9 1.8-5.4 6.8-6.8z"/><ellipse id="XMLID_131_" cx="23.9" cy="44.8" fill="#45413c" opacity=".15" rx="11" ry="1.5"/></g></g></svg>