<svg xmlns="http://www.w3.org/2000/svg" viewBox="0 0 48 48"><symbol id="New_Symbol_14" viewBox="-6.5 -6.5 13 13"><path fill="#ffd4c3" stroke="#504b46" stroke-linecap="round" stroke-linejoin="round" stroke-miterlimit="10" d="M0-6c2.2 0 4.1 1.5 4.7 3.5C6.3-2.5 6.4 0 5 0v1c0 2.8-2.2 5-5 5s-5-2.2-5-5V0c-1.4 0-1.3-2.5.2-2.5C-4.1-4.5-2.2-6 0-6z"/><circle cx="-1.6" cy="-.1" r=".1" fill="#ffc258"/><path fill="#4f4b45" d="M-1.6.5c-.3 0-.6-.3-.6-.6s.2-.7.6-.7c.3 0 .6.3.6.7s-.3.6-.6.6z"/><circle cx="1.6" cy="-.1" r=".1" fill="#ffc258"/><path fill="#4f4b45" d="M1.6.5C1.3.5 1 .2 1-.1s.3-.6.6-.6.6.3.6.6-.2.6-.6.6z"/><circle cx="-3" cy="-1.5" r=".5" fill="#fabfa5"/><circle cx="3" cy="-1.5" r=".5" fill="#fabfa5"/><path fill="none" stroke="#504b46" stroke-linecap="round" stroke-linejoin="round" stroke-miterlimit="10" d="M-1.2-3c.8-.5 1.7-.5 2.5 0"/></symbol><g id="Icons"><g id="XMLID_729_"><circle id="XMLID_2159_" cx="23.8" cy="21.6" r="20" fill="#ffe500"/><path id="XMLID_2156_" fill="#ebcb00" d="M23.8 1.6c-11 0-20 9-20 20s9 20 20 20 20-9 20-20-9-20-20-20zm0 37c-10.1 0-18.2-8.2-18.2-18.3 0-10.1 8.2-18.2 18.2-18.2S42 10.2 42 20.3s-8.2 18.3-18.2 18.3z"/><ellipse id="XMLID_2155_" cx="23.8" cy="5.6" fill="#fff48c" rx="6" ry="1.5"/><ellipse id="XMLID_2154_" cx="23.8" cy="44.9" fill="#45413c" opacity=".15" rx="16" ry="1.5"/><circle id="XMLID_2153_" cx="23.8" cy="21.6" r="20" fill="none" stroke="#45413c" stroke-linecap="round" stroke-linejoin="round" stroke-miterlimit="10"/><ellipse id="XMLID_2152_" cx="35.8" cy="26.6" fill="#ffaa54" rx="2.5" ry="1.5"/><ellipse id="XMLID_2151_" cx="11.7" cy="26.6" fill="#ffaa54" rx="2.5" ry="1.5"/><path id="XMLID_2150_" fill="#fff" stroke="#45413c" stroke-linecap="round" stroke-linejoin="round" stroke-miterlimit="10" d="M23.8 38.6c5.6 0 10.3-4 11-9.2 0-.3-.1-.6-.3-.8-.2-.2-.6-.3-.9-.3-6.5 1-13 1-19.5 0-.3-.1-.7 0-.9.3-.2.2-.4.5-.3.8.6 5.2 5.2 9.2 10.9 9.2z"/><path id="XMLID_2149_" fill="#fff" stroke="#45413c" stroke-linecap="round" stroke-linejoin="round" stroke-miterlimit="10" d="M13.8 32.6s3.9 1.5 10 1.5 9.5-1 9.5-1"/><path id="XMLID_2148_" fill="none" stroke="#45413c" stroke-linecap="round" stroke-linejoin="round" stroke-miterlimit="10" d="M23.8 29.1v9.5"/><path id="XMLID_2147_" fill="none" stroke="#45413c" stroke-linecap="round" stroke-linejoin="round" stroke-miterlimit="10" d="M17.3 29.1s-.1 5 1 8"/><path id="XMLID_2146_" fill="none" stroke="#45413c" stroke-linecap="round" stroke-linejoin="round" stroke-miterlimit="10" d="M30.3 29.1s.1 5-1 8"/><circle id="XMLID_2145_" cx="36.3" cy="14.6" r="8" fill="#fff"/><circle id="XMLID_2144_" cx="12.3" cy="17.6" r="5" fill="#fff"/><path id="XMLID_2143_" fill="#f0f0f0" d="M36.3 19.6c-3.9 0-7.2-2.8-7.9-6.5-.1.5-.1 1-.1 1.5 0 4.4 3.6 8 8 8s8-3.6 8-8c0-.5-.1-1-.1-1.5-.8 3.7-4 6.5-7.9 6.5z"/><path id="XMLID_2142_" fill="#f0f0f0" d="M12.3 20.7c-2.4 0-4.5-1.8-4.9-4.1-.1.3-.1.6-.1.9 0 2.8 2.2 5 5 5s5-2.2 5-5c0-.3 0-.6-.1-.9-.5 2.3-2.5 4.1-4.9 4.1z"/><circle id="XMLID_2141_" cx="36.3" cy="14.6" r="8" fill="none" stroke="#45413c" stroke-linecap="round" stroke-linejoin="round" stroke-miterlimit="10"/><circle id="XMLID_2140_" cx="12.3" cy="17.6" r="5" fill="none" stroke="#45413c" stroke-linecap="round" stroke-linejoin="round" stroke-miterlimit="10"/><circle id="XMLID_2139_" cx="12.3" cy="17.6" r="1" fill="#45413c" stroke="#45413c" stroke-linecap="round" stroke-linejoin="round" stroke-miterlimit="10"/><circle id="XMLID_2138_" cx="36.3" cy="14.6" r="1" fill="#45413c" stroke="#45413c" stroke-linecap="round" stroke-linejoin="round" stroke-miterlimit="10"/></g></g></svg>