<svg xmlns="http://www.w3.org/2000/svg" viewBox="0 0 48 48"><symbol id="New_Symbol_14" viewBox="-6.5 -6.5 13 13"><path fill="#ffd4c3" stroke="#504b46" stroke-linecap="round" stroke-linejoin="round" stroke-miterlimit="10" d="M0-6c2.2 0 4.1 1.5 4.7 3.5C6.3-2.5 6.4 0 5 0v1c0 2.8-2.2 5-5 5s-5-2.2-5-5V0c-1.4 0-1.3-2.5.2-2.5C-4.1-4.5-2.2-6 0-6z"/><circle cx="-1.6" cy="-.1" r=".1" fill="#ffc258"/><path fill="#4f4b45" d="M-1.6.5c-.3 0-.6-.3-.6-.6s.2-.7.6-.7c.3 0 .6.3.6.7s-.3.6-.6.6z"/><circle cx="1.6" cy="-.1" r=".1" fill="#ffc258"/><path fill="#4f4b45" d="M1.6.5C1.3.5 1 .2 1-.1s.3-.6.6-.6.6.3.6.6-.2.6-.6.6z"/><circle cx="-3" cy="-1.5" r=".5" fill="#fabfa5"/><circle cx="3" cy="-1.5" r=".5" fill="#fabfa5"/><path fill="none" stroke="#504b46" stroke-linecap="round" stroke-linejoin="round" stroke-miterlimit="10" d="M-1.2-3c.8-.5 1.7-.5 2.5 0"/></symbol><g id="Icons"><g id="XMLID_8_"><ellipse id="XMLID_356_" cx="24" cy="44.7" fill="#45413c" opacity=".15" rx="11" ry="1.5"/><circle id="XMLID_343_" cx="24" cy="26.3" r="14" fill="#ffe500"/><path id="XMLID_340_" fill="#ebcb00" d="M24 12.3c-7.7 0-14 6.3-14 14s6.3 14 14 14 14-6.3 14-14-6.3-14-14-14zm0 25.8c-7 0-12.7-5.7-12.7-12.7 0-7 5.7-12.7 12.7-12.7s12.7 5.7 12.7 12.7c0 7-5.7 12.7-12.7 12.7z"/><ellipse id="XMLID_338_" cx="24" cy="15.1" fill="#fff48c" rx="4.2" ry="1"/><circle id="XMLID_336_" cx="24" cy="26.3" r="14" fill="none" stroke="#45413c" stroke-linecap="round" stroke-linejoin="round" stroke-miterlimit="10"/><ellipse id="XMLID_335_" cx="32.4" cy="29.8" fill="#ffaa54" rx="1.7" ry="1"/><ellipse id="XMLID_334_" cx="15.6" cy="29.8" fill="#ffaa54" rx="1.7" ry="1"/><path id="XMLID_331_" fill="#fff48c" stroke="#45413c" stroke-linecap="round" stroke-linejoin="round" stroke-miterlimit="10" d="M24 1.8c-7.2 0-13 1.9-13 4.2s5.8 4.2 13 4.2S37 8.3 37 6s-5.8-4.2-13-4.2zm0 5.9c-5.1 0-9.2-.8-9.2-1.7s4.1-1.7 9.2-1.7 9.2.8 9.2 1.7-4.1 1.7-9.2 1.7z"/><path id="XMLID_330_" fill="none" stroke="#45413c" stroke-linecap="round" stroke-linejoin="round" stroke-miterlimit="10" d="M14.2 27.1c0-.7.5-1.2 1.2-1.2s1.2.5 1.2 1.2"/><path id="XMLID_329_" fill="none" stroke="#45413c" stroke-linecap="round" stroke-linejoin="round" stroke-miterlimit="10" d="M31.3 27.1c0-.7.5-1.2 1.2-1.2s1.2.5 1.2 1.2"/><g id="XMLID_184_"><path id="XMLID_328_" fill="#ffb0ca" stroke="#45413c" stroke-linecap="round" stroke-linejoin="round" stroke-miterlimit="10" d="M19.8 31.7c-.2 0-.4.1-.5.2-.1.1-.2.3-.2.5.4 2.4 2.4 4.2 4.9 4.2 2.5 0 4.5-1.8 4.9-4.2 0-.2 0-.4-.2-.5-.1-.1-.3-.2-.5-.2h-8.4z"/><path id="XMLID_327_" fill="#ff87af" stroke="#45413c" stroke-linecap="round" stroke-linejoin="round" stroke-miterlimit="10" d="M27.9 34.7c-1-.6-2.4-.9-3.9-.9s-2.9.4-3.9.9c.9 1.2 2.3 1.9 3.9 1.9s3-.8 3.9-1.9z"/></g></g></g></svg>