<svg xmlns="http://www.w3.org/2000/svg" viewBox="0 0 48 48"><symbol id="New_Symbol_14" viewBox="-6.5 -6.5 13 13"><path fill="#ffd4c3" stroke="#504b46" stroke-linecap="round" stroke-linejoin="round" stroke-miterlimit="10" d="M0-6c2.2 0 4.1 1.5 4.7 3.5C6.3-2.5 6.4 0 5 0v1c0 2.8-2.2 5-5 5s-5-2.2-5-5V0c-1.4 0-1.3-2.5.2-2.5C-4.1-4.5-2.2-6 0-6z"/><circle cx="-1.6" cy="-.1" r=".1" fill="#ffc258"/><path fill="#4f4b45" d="M-1.6.5c-.3 0-.6-.3-.6-.6s.2-.7.6-.7c.3 0 .6.3.6.7s-.3.6-.6.6z"/><circle cx="1.6" cy="-.1" r=".1" fill="#ffc258"/><path fill="#4f4b45" d="M1.6.5C1.3.5 1 .2 1-.1s.3-.6.6-.6.6.3.6.6-.2.6-.6.6z"/><circle cx="-3" cy="-1.5" r=".5" fill="#fabfa5"/><circle cx="3" cy="-1.5" r=".5" fill="#fabfa5"/><path fill="none" stroke="#504b46" stroke-linecap="round" stroke-linejoin="round" stroke-miterlimit="10" d="M-1.2-3c.8-.5 1.7-.5 2.5 0"/></symbol><g id="Icons"><g id="XMLID_619_"><circle id="XMLID_7510_" cx="24" cy="21.1" r="20" fill="#ff6242"/><path id="XMLID_7507_" fill="#e04122" d="M24 1.1c-11 0-20 9-20 20s9 20 20 20 20-9 20-20-9-20-20-20zm0 37c-10.1 0-18.2-8.2-18.2-18.2C5.8 9.7 13.9 1.6 24 1.6s18.2 8.2 18.2 18.2c0 10.1-8.1 18.3-18.2 18.3z"/><ellipse id="XMLID_7506_" cx="24" cy="5.1" fill="#ff866e" rx="6" ry="1.5"/><circle id="XMLID_7505_" cx="24" cy="21.1" r="20" fill="none" stroke="#45413c" stroke-linecap="round" stroke-linejoin="round" stroke-miterlimit="10"/><circle id="XMLID_7504_" cx="15.5" cy="22.1" r="1" fill="#45413c" stroke="#45413c" stroke-linecap="round" stroke-linejoin="round" stroke-miterlimit="10"/><path id="XMLID_7503_" fill="none" stroke="#45413c" stroke-linecap="round" stroke-linejoin="round" stroke-miterlimit="10" d="M19.3 20.6s-3-4.5-6.3-3"/><path id="XMLID_7502_" fill="none" stroke="#45413c" stroke-linecap="round" stroke-linejoin="round" stroke-miterlimit="10" d="M28.7 20.6s3-4.5 6.3-3"/><circle id="XMLID_7501_" cx="32.5" cy="22.1" r="1" fill="#45413c" stroke="#45413c" stroke-linecap="round" stroke-linejoin="round" stroke-miterlimit="10"/><path id="XMLID_7500_" fill="none" stroke="#45413c" stroke-linecap="round" stroke-miterlimit="10" d="M19 31.1c1.4-1 3.1-1.5 5-1.5 1.8 0 3.6.6 5 1.5"/><g id="XMLID_7496_"><path id="XMLID_7499_" fill="none" stroke="#45413c" stroke-linecap="round" stroke-linejoin="round" stroke-miterlimit="10" d="M30.9 7.9c-.3 1.4-1.6 2.3-2.9 2"/><path id="XMLID_7498_" fill="none" stroke="#45413c" stroke-linecap="round" stroke-linejoin="round" stroke-miterlimit="10" d="M34.4 12.5c-1.4-.9-1.9-2.7-1-4.1"/><path id="XMLID_7497_" fill="none" stroke="#45413c" stroke-linecap="round" stroke-linejoin="round" stroke-miterlimit="10" d="M28.5 12.3c1.5-.8 3.3-.2 4.1 1.2"/></g><ellipse id="XMLID_7495_" cx="36" cy="26.6" fill="#e04122" rx="2.5" ry="1.5"/><ellipse id="XMLID_7494_" cx="12" cy="26.6" fill="#e04122" rx="2.5" ry="1.5"/><ellipse id="XMLID_7493_" cx="24" cy="45.4" fill="#45413c" opacity=".15" rx="16" ry="1.5"/></g></g></svg>