<svg xmlns="http://www.w3.org/2000/svg" viewBox="0 0 48 48"><symbol id="New_Symbol_14" viewBox="-6.5 -6.5 13 13"><path fill="#ffd4c3" stroke="#504b46" stroke-linecap="round" stroke-linejoin="round" stroke-miterlimit="10" d="M0-6c2.2 0 4.1 1.5 4.7 3.5C6.3-2.5 6.4 0 5 0v1c0 2.8-2.2 5-5 5s-5-2.2-5-5V0c-1.4 0-1.3-2.5.2-2.5C-4.1-4.5-2.2-6 0-6z"/><circle cx="-1.6" cy="-.1" r=".1" fill="#ffc258"/><path fill="#4f4b45" d="M-1.6.5c-.3 0-.6-.3-.6-.6s.2-.7.6-.7c.3 0 .6.3.6.7s-.3.6-.6.6z"/><circle cx="1.6" cy="-.1" r=".1" fill="#ffc258"/><path fill="#4f4b45" d="M1.6.5C1.3.5 1 .2 1-.1s.3-.6.6-.6.6.3.6.6-.2.6-.6.6z"/><circle cx="-3" cy="-1.5" r=".5" fill="#fabfa5"/><circle cx="3" cy="-1.5" r=".5" fill="#fabfa5"/><path fill="none" stroke="#504b46" stroke-linecap="round" stroke-linejoin="round" stroke-miterlimit="10" d="M-1.2-3c.8-.5 1.7-.5 2.5 0"/></symbol><g id="Icons"><g id="XMLID_641_"><circle id="XMLID_7363_" cx="26.1" cy="21.3" r="18.7" fill="#ffe500"/><path id="XMLID_7360_" fill="#ebcb00" d="M26.1 2.6C15.8 2.6 7.4 11 7.4 21.3S15.8 40 26.1 40s18.7-8.4 18.7-18.7S36.4 2.6 26.1 2.6zm0 34.6c-9.4 0-17-7.6-17-17s7.6-17 17-17 17 7.6 17 17c0 9.3-7.6 17-17 17z"/><ellipse id="XMLID_7359_" cx="26.1" cy="6.4" fill="#fff48c" rx="5.6" ry="1.4"/><path id="XMLID_7358_" fill="#fff" stroke="#45413c" stroke-linecap="round" stroke-linejoin="round" stroke-miterlimit="10" d="M7.9 39.2c.2-.8.8-1.5 1.7-1.7l3.4-.8c.1 0 .2-.1.2-.3 0-.1-.1-.2-.2-.3l-3.4-.8c-.8-.2-1.5-.8-1.7-1.7l-.8-3.4c0-.1-.1-.2-.3-.2s-.2.1-.3.2l-.8 3.4c-.2.8-.8 1.5-1.7 1.7l-3.4.8c-.1 0-.2.1-.2.3 0 .1.1.2.2.3l3.4.8c.8.2 1.5.8 1.7 1.7l.8 3.4c0 .1.1.2.3.2s.2-.1.3-.2l.8-3.4z"/><path id="XMLID_7357_" fill="#fff" stroke="#45413c" stroke-linecap="round" stroke-linejoin="round" stroke-miterlimit="10" d="M44.6 6.5l2.6-.9c.1 0 .2-.1.2-.2s-.1-.2-.2-.2L45 4.5c-.3-.1-.5-.3-.6-.6l-.7-2.2c0-.1-.1-.2-.2-.2s-.2.1-.2.2l-.7 2.2c-.1.3-.3.5-.6.6l-2.2.7c-.1 0-.2.1-.2.2s.1.2.2.2l2.2.7c.3.1.5.3.6.6l.7 2.2c0 .1.1.2.2.2s.2-.1.2-.2l.9-2.6z"/><ellipse id="XMLID_7356_" cx="26.1" cy="45" fill="#45413c" opacity=".15" rx="14.9" ry="1.5"/><circle id="XMLID_7355_" cx="26.1" cy="21.3" r="18.7" fill="none" stroke="#45413c" stroke-linecap="round" stroke-linejoin="round" stroke-miterlimit="10"/><path id="XMLID_7354_" fill="none" stroke="#45413c" stroke-linecap="round" stroke-miterlimit="10" d="M30.8 28.8c-1.3.9-2.9 1.4-4.7 1.4-1.7 0-3.3-.5-4.7-1.4"/><ellipse id="XMLID_7353_" cx="37.3" cy="26" fill="#ffaa54" rx="2.3" ry="1.4"/><ellipse id="XMLID_7352_" cx="14.9" cy="26" fill="#ffaa54" rx="2.3" ry="1.4"/><g id="XMLID_7344_"><path id="XMLID_7351_" fill="#656769" d="M39.5 24.6H34c-2.6 0-4.9-1.9-5.3-4.5l-.7-4.5c-.3-1.6 1-3.1 2.7-3.1h12c1.6 0 2.9 1.4 2.7 3l-.5 4.3c-.4 2.7-2.7 4.8-5.4 4.8z"/><path id="XMLID_7350_" fill="#87898c" d="M28.7 20.1c.3 1.5 1.1 2.8 2.3 3.6l11.2-11.2H30.6c-1.7 0-2.9 1.5-2.7 3.1l.8 4.5z"/><path id="XMLID_7349_" fill="none" stroke="#45413c" stroke-linecap="round" stroke-linejoin="round" stroke-miterlimit="10" d="M39.5 24.6H34c-2.6 0-4.9-1.9-5.3-4.5l-.7-4.5c-.3-1.6 1-3.1 2.7-3.1h12c1.6 0 2.9 1.4 2.7 3l-.5 4.3c-.4 2.7-2.7 4.8-5.4 4.8z"/><path id="XMLID_7348_" fill="#656769" d="M12.7 24.6h5.4c2.6 0 4.9-1.9 5.3-4.5l.7-4.5c.3-1.6-1-3.1-2.7-3.1h-12c-1.6 0-2.9 1.4-2.7 3l.5 4.3c.5 2.7 2.8 4.8 5.5 4.8z"/><path id="XMLID_7347_" fill="#87898c" d="M7.4 19.8c.2 1.8 1.3 3.3 2.9 4.2l11.5-11.5H9.7c-1.6 0-2.9 1.4-2.7 3l.4 4.3z"/><path id="XMLID_7346_" fill="none" stroke="#45413c" stroke-linecap="round" stroke-linejoin="round" stroke-miterlimit="10" d="M12.7 24.6h5.4c2.6 0 4.9-1.9 5.3-4.5l.7-4.5c.3-1.6-1-3.1-2.7-3.1h-12c-1.6 0-2.9 1.4-2.7 3l.5 4.3c.5 2.7 2.8 4.8 5.5 4.8z"/><path id="XMLID_7345_" fill="none" stroke="#45413c" stroke-linecap="round" stroke-linejoin="round" stroke-miterlimit="10" d="M28.9 13.1c-.8-.4-1.7-.7-2.8-.7-1 0-2 .2-2.8.7"/></g></g></g></svg>