<svg xmlns="http://www.w3.org/2000/svg" viewBox="0 0 48 48"><symbol id="New_Symbol_14" viewBox="-6.5 -6.5 13 13"><path fill="#ffd4c3" stroke="#504b46" stroke-linecap="round" stroke-linejoin="round" stroke-miterlimit="10" d="M0-6c2.2 0 4.1 1.5 4.7 3.5C6.3-2.5 6.4 0 5 0v1c0 2.8-2.2 5-5 5s-5-2.2-5-5V0c-1.4 0-1.3-2.5.2-2.5C-4.1-4.5-2.2-6 0-6z"/><circle cx="-1.6" cy="-.1" r=".1" fill="#ffc258"/><path fill="#4f4b45" d="M-1.6.5c-.3 0-.6-.3-.6-.6s.2-.7.6-.7c.3 0 .6.3.6.7s-.3.6-.6.6z"/><circle cx="1.6" cy="-.1" r=".1" fill="#ffc258"/><path fill="#4f4b45" d="M1.6.5C1.3.5 1 .2 1-.1s.3-.6.6-.6.6.3.6.6-.2.6-.6.6z"/><circle cx="-3" cy="-1.5" r=".5" fill="#fabfa5"/><circle cx="3" cy="-1.5" r=".5" fill="#fabfa5"/><path fill="none" stroke="#504b46" stroke-linecap="round" stroke-linejoin="round" stroke-miterlimit="10" d="M-1.2-3c.8-.5 1.7-.5 2.5 0"/></symbol><g id="Icons"><g id="XMLID_728_"><circle id="XMLID_1879_" cx="24" cy="21.4" r="20" fill="#ff6242"/><path id="XMLID_1876_" fill="#e04122" d="M24 1.4c-11 0-20 9-20 20s9 20 20 20 20-9 20-20-9-20-20-20zm0 37c-10.1 0-18.2-8.2-18.2-18.2C5.8 10 13.9 1.9 24 1.9S42.3 10 42.3 20.1 34.1 38.4 24 38.4z"/><ellipse id="XMLID_1875_" cx="24" cy="5.4" fill="#ff866e" rx="6" ry="1.5"/><ellipse id="XMLID_1874_" cx="24" cy="45.1" fill="#45413c" opacity=".15" rx="15" ry="1.5"/><circle id="XMLID_1873_" cx="24" cy="21.4" r="20" fill="none" stroke="#45413c" stroke-linecap="round" stroke-linejoin="round" stroke-miterlimit="10"/><ellipse id="XMLID_1872_" cx="37" cy="24.4" fill="#e04122" rx="2.5" ry="1.5"/><ellipse id="XMLID_1871_" cx="11" cy="24.4" fill="#e04122" rx="2.5" ry="1.5"/><circle id="XMLID_1870_" cx="13.5" cy="20.4" r="1" fill="#45413c" stroke="#45413c" stroke-linecap="round" stroke-linejoin="round" stroke-miterlimit="10"/><circle id="XMLID_1869_" cx="34.5" cy="20.4" r="1" fill="#45413c" stroke="#45413c" stroke-linecap="round" stroke-linejoin="round" stroke-miterlimit="10"/><path id="XMLID_1868_" fill="none" stroke="#45413c" stroke-linecap="round" stroke-linejoin="round" stroke-miterlimit="10" d="M31.5 18.4s2.3-4 6-2"/><path id="XMLID_1867_" fill="none" stroke="#45413c" stroke-linecap="round" stroke-linejoin="round" stroke-miterlimit="10" d="M16.5 18.4s-2.3-4-6-2"/><path id="XMLID_1866_" fill="#fff" stroke="#45413c" stroke-linecap="round" stroke-linejoin="round" stroke-miterlimit="10" d="M39.5 38.4h-31c-.6 0-1-.4-1-1v-9.5c0-.6.4-1 1-1h31c.6 0 1 .4 1 1v9.5c0 .5-.4 1-1 1z"/><g id="XMLID_1824_"><path id="XMLID_1862_" fill="#ff6242" d="M13.8 32.1l1 1.1.4-.4c.1-.2.3-.3.4-.3.1-.1.2-.1.4-.1.1 0 .3.1.4.2.1.1.2.3.2.4 0 .1 0 .3-.1.4-.1.2-.2.3-.4.5l-.2.3.7.7c.1.1.1.2.2.2s.1.1.1.3c0 .2-.1.3-.2.4-.5.1-.7.2-.8.2-.2 0-.4-.1-.5-.2l-.7-.7c-.2.2-.4.3-.6.5-.2.1-.5.2-.7.3-.3.1-.6.1-.8.1-.4 0-.8-.1-1.2-.2-.4-.2-.6-.4-.8-.7s-.3-.7-.3-1.1c0-.4.1-.8.4-1.2.3-.4.6-.6 1-.9-.2-.2-.4-.4-.5-.6s-.2-.5-.2-.8c0-.3.1-.6.3-.9s.4-.4.7-.5c.3-.1.6-.2 1-.2.3 0 .6.1.9.2.3.1.6.3.8.5.2.2.3.5.3.8 0 .4-.1.7-.3 1-.3.3-.6.5-.9.7zm0 2.1l-1.4-1.5c-.3.2-.5.3-.6.5-.1.2-.2.4-.2.7 0 .3.1.5.3.7.2.2.4.2.7.2.2 0 .5 0 .6-.1s.4-.3.6-.5zm-.1-3.6c0-.2-.1-.3-.2-.4-.1-.1-.3-.1-.4-.1-.1 0-.3 0-.4.1-.1.1-.2.2-.2.3 0 .1 0 .3.1.4.1.1.2.3.4.5.5-.3.7-.6.7-.8z"/><path id="XMLID_1858_" fill="#ff6242" d="M19 34.6V33c-.2-.1-.4-.1-.7-.2-.3-.1-.5-.2-.7-.3-.2-.1-.4-.3-.5-.5-.1-.3-.1-.6-.1-.9 0-.4.1-.7.3-1.1s.4-.6.7-.8.7-.3 1-.3v-.3-.2s0-.1.1-.1.1-.1.2-.1.2 0 .2.1v.6c.4 0 .8.1 1.1.3.4.2.5.4.5.7 0 .2-.1.4-.2.5-.1.1-.3.2-.5.2-.1 0-.3 0-.5-.1s-.4-.1-.5-.1v1.3c.4.1.8.3 1.1.4.3.1.5.3.8.6.2.3.3.7.3 1.1 0 .3-.1.6-.2.9-.1.3-.3.5-.5.7-.2.2-.4.3-.7.5-.3.1-.5.2-.8.2v.5c0 .1 0 .1-.1.2s-.1.1-.2.1-.2 0-.2-.1V36c-.3 0-.6 0-.9-.1s-.6-.2-.8-.3c-.2-.2-.3-.4-.3-.6 0-.2.1-.4.2-.5.1-.1.3-.2.5-.2.1 0 .4.1.7.2.3 0 .5.1.7.1zm0-3.2v-1.1c-.1 0-.3.1-.4.2-.1.1-.1.2-.1.4 0 .1 0 .2.1.3.1.1.2.2.4.2zm.5 1.8v1.4c.2 0 .3-.1.5-.3s.2-.3.2-.5c0-.3-.2-.5-.7-.6z"/><path id="XMLID_1834_" fill="#ff6242" d="M23.5 36c-.2 0-.4-.1-.5-.2-.1-.1-.2-.3-.2-.5s.1-.4.2-.5c.1-.1.3-.2.5-.2s.4.1.5.2c.1.1.2.3.2.5s-.1.4-.2.5-.3.2-.5.2zm-.7-2.7v-3.7c0-.2.1-.4.2-.5.1-.1.3-.2.5-.2s.4.1.5.2c.1.1.2.3.2.5v3.7c0 .2-.1.4-.2.5-.1.1-.3.2-.5.2s-.4-.1-.5-.2c-.1-.2-.2-.3-.2-.5z"/><path id="XMLID_1831_" fill="#ff6242" d="M26.5 33l.2-1.1h-.8c-.2 0-.3 0-.3-.1s-.1-.2-.1-.3c0-.1 0-.2.1-.3s.2-.1.3-.1h1l.2-1.5c0-.2.1-.3.1-.4.1-.1.2-.1.3-.1.1 0 .2 0 .3.1.1.1.1.2.1.3v.2l-.2 1.3h.9l.2-1.5c0-.2.1-.3.1-.4.1-.1.2-.1.3-.1.1 0 .2 0 .3.1s.1.2.1.3V31h.8c.2 0 .3 0 .3.1.1.1.1.2.1.3 0 .1 0 .2-.1.3-.1.1-.2.1-.3.1h-1l-.1 1.2h.8c.2 0 .3 0 .3.1.1.1.1.2.1.3s0 .2-.1.3c-.1.1-.2.1-.3.1h-1l-.2 1.5c0 .2-.1.3-.1.4-.1.1-.2.1-.3.1-.1 0-.2 0-.3-.1-.1-.1-.1-.2-.1-.3v-.2l.2-1.4h-.9l-.2 1.5c0 .2-.1.3-.1.4s-.2.1-.3.1c-.1 0-.2 0-.3-.1-.1-.1-.1-.2-.1-.3v-.2l.2-1.4h-.8c-.2 0-.3 0-.3-.1-.1-.1-.1-.2-.1-.3 0-.1 0-.2.1-.3s.2-.1.3-.1h.7zm1.1-1.1l-.2 1.1h.9l.2-1.1h-.9z"/><path id="XMLID_1825_" fill="#ff6242" d="M32.6 32c-.4 0-.8-.2-1.1-.5-.3-.3-.4-.7-.4-1.1 0-.3.1-.5.2-.8.1-.2.3-.4.5-.6.2-.1.5-.2.8-.2.3 0 .5.1.7.2.2.1.4.3.5.6.1.2.2.5.2.8 0 .3-.1.5-.2.8-.1.2-.3.4-.5.6s-.4.2-.7.2zm0-.9c.2 0 .3-.1.4-.2s.1-.2.1-.4 0-.3-.1-.4c-.1-.1-.2-.2-.4-.2s-.3.1-.4.2c-.1.1-.1.2-.1.4s0 .3.1.4.3.2.4.2zm-.3 4.1l3.2-6c.1-.1.1-.2.2-.2s.1-.1.3-.1c.1 0 .2 0 .3.1.1 0 .2.1.2.2.1.1.1.2.1.3 0 .1 0 .2-.1.3l-3.2 6c-.2.1-.3.1-.3.2 0 0-.1.1-.2.1s-.2-.1-.4-.2c-.1-.1-.2-.2-.2-.4 0-.1 0-.2.1-.3zm3.7.8c-.4 0-.8-.2-1.1-.5-.3-.3-.4-.7-.4-1.1 0-.3.1-.5.2-.8.1-.2.3-.4.5-.6.2-.1.5-.2.8-.2.3 0 .5.1.7.2.2.1.4.3.5.6.1.2.2.5.2.8 0 .3-.1.5-.2.8-.1.2-.3.4-.5.6s-.4.2-.7.2zm0-1c.2 0 .3-.1.4-.2.1-.1.1-.2.1-.4s0-.3-.1-.4-.2-.2-.4-.2-.3.1-.4.2-.1.2-.1.4 0 .3.1.4c.1.2.2.2.4.2z"/></g></g></g></svg>