<svg xmlns="http://www.w3.org/2000/svg" viewBox="0 0 48 48"><symbol id="New_Symbol_14" viewBox="-6.5 -6.5 13 13"><path fill="#ffd4c3" stroke="#504b46" stroke-linecap="round" stroke-linejoin="round" stroke-miterlimit="10" d="M0-6c2.2 0 4.1 1.5 4.7 3.5C6.3-2.5 6.4 0 5 0v1c0 2.8-2.2 5-5 5s-5-2.2-5-5V0c-1.4 0-1.3-2.5.2-2.5C-4.1-4.5-2.2-6 0-6z"/><circle cx="-1.6" cy="-.1" r=".1" fill="#ffc258"/><path fill="#4f4b45" d="M-1.6.5c-.3 0-.6-.3-.6-.6s.2-.7.6-.7c.3 0 .6.3.6.7s-.3.6-.6.6z"/><circle cx="1.6" cy="-.1" r=".1" fill="#ffc258"/><path fill="#4f4b45" d="M1.6.5C1.3.5 1 .2 1-.1s.3-.6.6-.6.6.3.6.6-.2.6-.6.6z"/><circle cx="-3" cy="-1.5" r=".5" fill="#fabfa5"/><circle cx="3" cy="-1.5" r=".5" fill="#fabfa5"/><path fill="none" stroke="#504b46" stroke-linecap="round" stroke-linejoin="round" stroke-miterlimit="10" d="M-1.2-3c.8-.5 1.7-.5 2.5 0"/></symbol><g id="Icons"><g id="XMLID_707_"><circle id="XMLID_2605_" cx="24" cy="21.4" r="20" fill="#ffe500"/><path id="XMLID_2602_" fill="#ebcb00" d="M24 1.4c-11 0-20 9-20 20s9 20 20 20 20-9 20-20-9-20-20-20zm0 37c-10.1 0-18.2-8.2-18.2-18.2C5.8 10 13.9 1.9 24 1.9S42.2 10 42.2 20.1 34.1 38.4 24 38.4z"/><ellipse id="XMLID_2601_" cx="24" cy="5.4" fill="#fff48c" rx="6" ry="1.5"/><ellipse id="XMLID_37_" cx="24" cy="45.1" fill="#45413c" opacity=".15" rx="16" ry="1.5"/><circle id="XMLID_36_" cx="24" cy="21.4" r="20" fill="none" stroke="#45413c" stroke-linecap="round" stroke-linejoin="round" stroke-miterlimit="10"/><ellipse id="XMLID_35_" cx="36" cy="26.4" fill="#ffaa54" rx="2.5" ry="1.5"/><ellipse id="XMLID_34_" cx="12" cy="26.4" fill="#ffaa54" rx="2.5" ry="1.5"/><path id="XMLID_33_" fill="#ffe500" d="M32.5 34.1c-.7-.7-1.8-.7-2.5 0l2.1-2.1c.7-.7.7-1.8 0-2.5s-1.8-.7-2.5 0l.7-.7c.7-.7.7-1.8 0-2.5s-1.8-.7-2.5 0l-1.4 1.4c.7-.7.7-1.8 0-2.5s-1.8-.7-2.5 0L18.2 31l-.4-3.7c-.3-.5-.8-.8-1.4-.8-.7 0-1.3.4-1.5 1.1l-1.5 4.5c-1.3 3.7-.4 7.8 2.4 10.6 3 3 7.8 3 10.7 0l2.4-2.4 3.7-3.7c.6-.8.6-1.9-.1-2.5z"/><g id="XMLID_32_"><path id="XMLID_202_" fill="#ebcb00" d="M32.2 33.8l-3.4 3.4-2.4 2.4c-3 3-7.8 3-10.7 0-1.6-1.6-2.5-3.6-2.9-5.7-.5 3.2.6 6.4 2.9 8.7 3 3 7.8 3 10.7 0l2.4-2.4 3.7-3.7c.7-.7.7-1.8 0-2.5-.1 0-.2-.1-.3-.2z"/></g><path id="XMLID_31_" fill="none" stroke="#45413c" stroke-linecap="round" stroke-linejoin="round" stroke-miterlimit="10" d="M32.5 34.1c-.7-.7-1.8-.7-2.5 0l2.1-2.1c.7-.7.7-1.8 0-2.5s-1.8-.7-2.5 0l.7-.7c.7-.7.7-1.8 0-2.5s-1.8-.7-2.5 0l-1.4 1.4c.7-.7.7-1.8 0-2.5s-1.8-.7-2.5 0L18.2 31l-.4-3.7c-.3-.5-.8-.8-1.4-.8-.7 0-1.3.4-1.5 1.1l-1.5 4.5c-1.3 3.7-.4 7.8 2.4 10.6 3 3 7.8 3 10.7 0l2.4-2.4 3.7-3.7c.6-.8.6-1.9-.1-2.5z"/><path id="XMLID_30_" fill="none" stroke="#45413c" stroke-linecap="round" stroke-linejoin="round" stroke-miterlimit="10" d="M26.7 27.5l-4.3 4.3"/><path id="XMLID_29_" fill="none" stroke="#45413c" stroke-linecap="round" stroke-linejoin="round" stroke-miterlimit="10" d="M29.8 29.3l-4.9 4.9"/><path id="XMLID_28_" fill="none" stroke="#45413c" stroke-linecap="round" stroke-linejoin="round" stroke-miterlimit="10" d="M30.2 33.9l-2.8 2.8"/><path id="XMLID_27_" fill="none" stroke="#45413c" stroke-linecap="round" stroke-linejoin="round" stroke-miterlimit="10" d="M32.5 19.4s.2-2 2-2 2 2 2 2"/><path id="XMLID_26_" fill="none" stroke="#45413c" stroke-linecap="round" stroke-linejoin="round" stroke-miterlimit="10" d="M11.5 19.4s.2-2 2-2 2 2 2 2"/></g></g></svg>