<svg xmlns="http://www.w3.org/2000/svg" viewBox="0 0 48 48"><symbol id="New_Symbol_14" viewBox="-6.5 -6.5 13 13"><path fill="#ffd4c3" stroke="#504b46" stroke-linecap="round" stroke-linejoin="round" stroke-miterlimit="10" d="M0-6c2.2 0 4.1 1.5 4.7 3.5C6.3-2.5 6.4 0 5 0v1c0 2.8-2.2 5-5 5s-5-2.2-5-5V0c-1.4 0-1.3-2.5.2-2.5C-4.1-4.5-2.2-6 0-6z"/><circle cx="-1.6" cy="-.1" r=".1" fill="#ffc258"/><path fill="#4f4b45" d="M-1.6.5c-.3 0-.6-.3-.6-.6s.2-.7.6-.7c.3 0 .6.3.6.7s-.3.6-.6.6z"/><circle cx="1.6" cy="-.1" r=".1" fill="#ffc258"/><path fill="#4f4b45" d="M1.6.5C1.3.5 1 .2 1-.1s.3-.6.6-.6.6.3.6.6-.2.6-.6.6z"/><circle cx="-3" cy="-1.5" r=".5" fill="#fabfa5"/><circle cx="3" cy="-1.5" r=".5" fill="#fabfa5"/><path fill="none" stroke="#504b46" stroke-linecap="round" stroke-linejoin="round" stroke-miterlimit="10" d="M-1.2-3c.8-.5 1.7-.5 2.5 0"/></symbol><g id="Icons"><g id="XMLID_779_"><ellipse id="XMLID_2195_" cx="24" cy="45.4" fill="#45413c" opacity=".15" rx="11.5" ry="1.5"/><g id="XMLID_2189_"><path id="XMLID_2193_" fill="#525252" d="M34 14.6c.3-1 .5-2 .5-3.1C34.5 5.7 29.8 1 24 1S13.5 5.8 13.5 11.6c0 1.1.2 2.1.5 3.1-5.3.5-9.5 5-9.5 10.4 0 5.8 4.7 10.5 10.5 10.5 2.4 0 4.7-.8 6.5-2.2.1 1.5-.3 5.3-5.1 5.7-.5 0-.9.5-.9 1 0 .6.4 1 1 1h15c.6 0 1-.4 1-1 0-.5-.4-.9-.9-1-4.7-.4-5.1-4.1-5.1-5.7 1.8 1.4 4 2.2 6.5 2.2 5.8 0 10.5-4.7 10.5-10.5 0-5.5-4.1-10-9.5-10.5z"/><path id="XMLID_2192_" fill="#656769" d="M24 6.1c4.9 0 9.1 3.4 10.2 8 .2-.8.3-1.6.3-2.5 0-5.8-4.7-10.5-10.5-10.5S13.5 5.8 13.5 11.6c0 .9.1 1.7.3 2.5 1.1-4.6 5.3-8 10.2-8z"/><path id="XMLID_2190_" fill="none" stroke="#45413c" stroke-linecap="round" stroke-linejoin="round" stroke-miterlimit="10" d="M34 14.6c.3-1 .5-2 .5-3.1C34.5 5.7 29.8 1 24 1S13.5 5.8 13.5 11.6c0 1.1.2 2.1.5 3.1-5.3.5-9.5 5-9.5 10.4 0 5.8 4.7 10.5 10.5 10.5 2.4 0 4.7-.8 6.5-2.2.1 1.5-.3 5.3-5.1 5.7-.5 0-.9.5-.9 1 0 .6.4 1 1 1h15c.6 0 1-.4 1-1 0-.5-.4-.9-.9-1-4.7-.4-5.1-4.1-5.1-5.7 1.8 1.4 4 2.2 6.5 2.2 5.8 0 10.5-4.7 10.5-10.5 0-5.5-4.1-10-9.5-10.5z"/></g></g></g></svg>