<svg xmlns="http://www.w3.org/2000/svg" viewBox="0 0 48 48"><symbol id="New_Symbol_14" viewBox="-6.5 -6.5 13 13"><path fill="#ffd4c3" stroke="#504b46" stroke-linecap="round" stroke-linejoin="round" stroke-miterlimit="10" d="M0-6c2.2 0 4.1 1.5 4.7 3.5C6.3-2.5 6.4 0 5 0v1c0 2.8-2.2 5-5 5s-5-2.2-5-5V0c-1.4 0-1.3-2.5.2-2.5C-4.1-4.5-2.2-6 0-6z"/><circle cx="-1.6" cy="-.1" r=".1" fill="#ffc258"/><path fill="#4f4b45" d="M-1.6.5c-.3 0-.6-.3-.6-.6s.2-.7.6-.7c.3 0 .6.3.6.7s-.3.6-.6.6z"/><circle cx="1.6" cy="-.1" r=".1" fill="#ffc258"/><path fill="#4f4b45" d="M1.6.5C1.3.5 1 .2 1-.1s.3-.6.6-.6.6.3.6.6-.2.6-.6.6z"/><circle cx="-3" cy="-1.5" r=".5" fill="#fabfa5"/><circle cx="3" cy="-1.5" r=".5" fill="#fabfa5"/><path fill="none" stroke="#504b46" stroke-linecap="round" stroke-linejoin="round" stroke-miterlimit="10" d="M-1.2-3c.8-.5 1.7-.5 2.5 0"/></symbol><g id="Icons"><g id="XMLID_710_"><circle id="XMLID_1483_" cx="24" cy="21.3" r="20" fill="#ffe500"/><path id="XMLID_1480_" fill="#ebcb00" d="M24 1.3c-11 0-20 9-20 20s9 20 20 20 20-9 20-20-8.9-20-20-20zm0 37C13.9 38.3 5.8 30.1 5.8 20 5.8 9.9 13.9 1.8 24 1.8S42.3 9.9 42.3 20 34.1 38.3 24 38.3z"/><ellipse id="XMLID_1479_" cx="24" cy="5.3" fill="#fff48c" rx="6" ry="1.5"/><ellipse id="XMLID_1478_" cx="24" cy="45.2" fill="#45413c" opacity=".15" rx="16" ry="1.5"/><circle id="XMLID_1477_" cx="24" cy="21.3" r="20" fill="none" stroke="#45413c" stroke-linecap="round" stroke-linejoin="round" stroke-miterlimit="10"/><ellipse id="XMLID_1476_" cx="36" cy="26.3" fill="#ffaa54" rx="2.5" ry="1.5"/><ellipse id="XMLID_1475_" cx="12" cy="26.3" fill="#ffaa54" rx="2.5" ry="1.5"/><path id="XMLID_1474_" fill="none" stroke="#45413c" stroke-linecap="round" stroke-linejoin="round" stroke-miterlimit="10" d="M36.3 17.8l-3.2 1.6c-.7.4-.7 1.4 0 1.8l3.2 1.6"/><path id="XMLID_1473_" fill="none" stroke="#45413c" stroke-linecap="round" stroke-linejoin="round" stroke-miterlimit="10" d="M11.7 17.8l3.2 1.6c.7.4.7 1.4 0 1.8l-3.2 1.6"/><g id="XMLID_1469_"><path id="XMLID_1472_" fill="#00b8f0" d="M38.8 43.7c-3.9-.9-.2-5.7-1.1-8.3 4.5 1.9 5 9.3 1.1 8.3z"/><path id="XMLID_1471_" fill="#4acfff" d="M37.7 35.5c0 .1 0 .1.1.2 3.2 2.5 3.2 8.2-.1 7.5.3.3.7.5 1.2.6 3.8.9 3.3-6.5-1.2-8.3z"/><path id="XMLID_1470_" fill="none" stroke="#45413c" stroke-linecap="round" stroke-linejoin="round" stroke-miterlimit="10" d="M38.8 43.7c-3.9-.9-.2-5.7-1.1-8.3 4.5 1.9 5 9.3 1.1 8.3z"/></g><g id="XMLID_1465_"><path id="XMLID_1468_" fill="#00b8f0" d="M34.1 40.2c-2.8.1-1.2-3.8-2.4-5.4 3.5.3 5.2 5.2 2.4 5.4z"/><path id="XMLID_1467_" fill="#4acfff" d="M31.8 34.8l.1.1c2.6 1.1 3.8 4.9 1.4 5.1.2.1.5.2.9.2 2.7-.2 1-5.1-2.4-5.4z"/><path id="XMLID_1466_" fill="none" stroke="#45413c" stroke-linecap="round" stroke-linejoin="round" stroke-miterlimit="10" d="M34.1 40.2c-2.8.1-1.2-3.8-2.4-5.4 3.5.3 5.2 5.2 2.4 5.4z"/></g><path id="XMLID_1464_" fill="none" stroke="#45413c" stroke-linecap="round" stroke-linejoin="round" stroke-miterlimit="10" d="M32.5 33.2l-1.8-1.8c-.4-.4-1-.4-1.4 0L27.7 33c-.4.4-1 .4-1.4 0l-1.6-1.6c-.4-.4-1-.4-1.4 0L21.7 33c-.4.4-1 .4-1.4 0l-1.6-1.6c-.4-.4-1-.4-1.4 0l-1.8 1.8"/><g id="XMLID_1457_"><path id="XMLID_1463_" fill="#e8f4fa" d="M22.4 26.8c0-1.9-2-3.1-3.7-2.2-4.8 2.5-7.2 6.9-13.7 10.6-.8.5-1.2 1.4-.9 2.3.3.9 1.1 1.5 2.1 1.4.4 0 .8.1 1 .4.3.3.4.7.3 1 0 .2-.1.4-.1.6-.2.8.2 1.6.9 2.1s1.6.4 2.3-.1c.4-.3 1-.4 1.5-.1.5.3.8.7.7 1.3 0 .8.4 1.5 1.1 1.8.7.3 1.5.2 2.1-.3 5.5-4.8 6.5-14.2 6.4-18.8z"/><g id="XMLID_1461_"><path id="XMLID_1462_" fill="#fff" d="M4.6 38.4c.1-.5.5-.9.9-1.1 6.5-3.7 8.9-8.1 13.7-10.6 1.2-.6 2.4-.2 3.1.7v-.6c0-1.9-2-3.1-3.7-2.2-4.8 2.5-7.2 6.9-13.7 10.6-.8.5-1.2 1.4-.9 2.3.2.4.4.7.6.9z"/></g><path id="XMLID_1460_" fill="none" stroke="#45413c" stroke-linejoin="round" stroke-miterlimit="10" d="M22.4 26.8c0-1.9-2-3.1-3.7-2.2-4.8 2.5-7.2 6.9-13.7 10.6-.8.5-1.2 1.4-.9 2.3.3.9 1.1 1.5 2.1 1.4.4 0 .8.1 1 .4.3.3.4.7.3 1 0 .2-.1.4-.1.6-.2.8.2 1.6.9 2.1s1.6.4 2.3-.1c.4-.3 1-.4 1.5-.1.5.3.8.7.7 1.3 0 .8.4 1.5 1.1 1.8.7.3 1.5.2 2.1-.3 5.5-4.8 6.5-14.2 6.4-18.8z"/><path id="XMLID_1459_" fill="none" stroke="#45413c" stroke-linecap="round" stroke-linejoin="round" stroke-miterlimit="10" d="M7.2 39.4s5.5-3 8.4-8"/><path id="XMLID_1458_" fill="none" stroke="#45413c" stroke-linecap="round" stroke-linejoin="round" stroke-miterlimit="10" d="M12 42.9s5.1-5.2 6.1-9.7"/></g></g></g></svg>