<svg xmlns="http://www.w3.org/2000/svg" viewBox="0 0 48 48"><symbol id="New_Symbol_14" viewBox="-6.5 -6.5 13 13"><path fill="#ffd4c3" stroke="#504b46" stroke-linecap="round" stroke-linejoin="round" stroke-miterlimit="10" d="M0-6c2.2 0 4.1 1.5 4.7 3.5C6.3-2.5 6.4 0 5 0v1c0 2.8-2.2 5-5 5s-5-2.2-5-5V0c-1.4 0-1.3-2.5.2-2.5C-4.1-4.5-2.2-6 0-6z"/><circle cx="-1.6" cy="-.1" r=".1" fill="#ffc258"/><path fill="#4f4b45" d="M-1.6.5c-.3 0-.6-.3-.6-.6s.2-.7.6-.7c.3 0 .6.3.6.7s-.3.6-.6.6z"/><circle cx="1.6" cy="-.1" r=".1" fill="#ffc258"/><path fill="#4f4b45" d="M1.6.5C1.3.5 1 .2 1-.1s.3-.6.6-.6.6.3.6.6-.2.6-.6.6z"/><circle cx="-3" cy="-1.5" r=".5" fill="#fabfa5"/><circle cx="3" cy="-1.5" r=".5" fill="#fabfa5"/><path fill="none" stroke="#504b46" stroke-linecap="round" stroke-linejoin="round" stroke-miterlimit="10" d="M-1.2-3c.8-.5 1.7-.5 2.5 0"/></symbol><g id="Icons"><g id="XMLID_738_"><ellipse id="XMLID_611_" cx="24" cy="45" fill="#45413c" opacity=".15" rx="15.6" ry="1.7"/><circle id="XMLID_610_" cx="24" cy="23.6" r="18.1" fill="#ffda8f"/><path id="XMLID_607_" fill="#ffbe3d" d="M24 5.5c-10 0-18.1 8.1-18.1 18.1s8.1 18 18.1 18c10 0 18.1-8.1 18.1-18.1S34 5.5 24 5.5zm0 33.4c-9.1 0-16.5-7.4-16.5-16.5S14.9 5.9 24 5.9s16.5 7.4 16.5 16.5S33.1 38.9 24 38.9z"/><circle id="XMLID_606_" cx="24" cy="23.6" r="18.1" fill="none" stroke="#45413c" stroke-linecap="round" stroke-linejoin="round" stroke-miterlimit="10"/><ellipse id="XMLID_605_" cx="34.9" cy="32.1" fill="#ffe9bd" rx="2.3" ry="1.4"/><ellipse id="XMLID_604_" cx="13.1" cy="32.1" fill="#ffe9bd" rx="2.3" ry="1.4"/><path id="XMLID_603_" fill="none" stroke="#45413c" stroke-linecap="round" stroke-linejoin="round" stroke-miterlimit="10" d="M16.2 26.3c0 .9-.7 1.7-1.7 1.7-.9 0-1.7-.7-1.7-1.7"/><path id="XMLID_602_" fill="none" stroke="#45413c" stroke-linecap="round" stroke-linejoin="round" stroke-miterlimit="10" d="M31.8 26.3c0 .9.7 1.7 1.7 1.7.9 0 1.7-.7 1.7-1.7"/><path id="XMLID_601_" fill="none" stroke="#45413c" stroke-linecap="round" stroke-linejoin="round" stroke-miterlimit="10" d="M22.1 36.5h3.8"/><path id="XMLID_600_" fill="#ffe500" d="M5.3 20C5.3 9.7 13.7 1.3 24 1.3c10.3 0 18.7 8.4 18.7 18.7H5.3z"/><path id="XMLID_599_" fill="#fff48c" d="M24 5.5c8.9 0 16.3 6.2 18.2 14.5h.5C42.7 9.7 34.3 1.3 24 1.3 13.7 1.3 5.3 9.7 5.3 20h.5C7.7 11.7 15.1 5.5 24 5.5z"/><path id="XMLID_598_" fill="none" stroke="#45413c" stroke-linecap="round" stroke-linejoin="round" stroke-miterlimit="10" d="M5.3 20C5.3 9.7 13.7 1.3 24 1.3c10.3 0 18.7 8.4 18.7 18.7H5.3z"/><path id="XMLID_597_" fill="#ffe500" d="M3.3 18.8c0-1.1 1-1.9 2-1.6 3.3.7 10.5 2 18.7 2s15.4-1.3 18.7-2c1-.2 2 .6 2 1.6v1.4c0 .8-.6 1.5-1.4 1.7-3 .6-11 2.1-19.3 2.1S7.7 22.5 4.6 21.9c-.8-.2-1.4-.9-1.4-1.7v-1.4z"/><path id="XMLID_593_" fill="#fff48c" d="M42.7 17.1c-3.3.7-10.5 2-18.7 2s-15.4-1.3-18.7-2c-1-.2-2 .6-2 1.6v1.4c0 .2 0 .3.1.4.2-.8 1.1-1.4 2-1.2 3.3.7 10.5 2 18.7 2s15.4-1.3 18.7-2c.9-.2 1.7.4 2 1.2 0-.1.1-.3.1-.4v-1.4c-.1-1-1.1-1.8-2.2-1.6z"/><path id="XMLID_591_" fill="none" stroke="#45413c" stroke-linecap="round" stroke-linejoin="round" stroke-miterlimit="10" d="M3.3 18.8c0-1.1 1-1.9 2-1.6 3.3.7 10.5 2 18.7 2s15.4-1.3 18.7-2c1-.2 2 .6 2 1.6v1.4c0 .8-.6 1.5-1.4 1.7-3 .6-11 2.1-19.3 2.1S7.7 22.5 4.6 21.9c-.8-.2-1.4-.9-1.4-1.7v-1.4z"/><path id="XMLID_590_" fill="#6dd627" stroke="#45413c" stroke-linecap="round" stroke-linejoin="round" stroke-miterlimit="10" d="M28.2 9.1h-2.1V7c0-.6-.5-1.1-1.1-1.1h-2c-.6 0-1.1.5-1.1 1.1v2.1h-2.1c-.6 0-1.1.5-1.1 1.1v2c0 .6.5 1.1 1.1 1.1h2.1v2.1c0 .6.5 1.1 1.1 1.1h2c.6 0 1.1-.5 1.1-1.1v-2.1h2.1c.6 0 1.1-.5 1.1-1.1v-2c0-.6-.5-1.1-1.1-1.1z"/></g></g></svg>