<svg xmlns="http://www.w3.org/2000/svg" viewBox="0 0 48 48"><symbol id="New_Symbol_14" viewBox="-6.5 -6.5 13 13"><path fill="#ffd4c3" stroke="#504b46" stroke-linecap="round" stroke-linejoin="round" stroke-miterlimit="10" d="M0-6c2.2 0 4.1 1.5 4.7 3.5C6.3-2.5 6.4 0 5 0v1c0 2.8-2.2 5-5 5s-5-2.2-5-5V0c-1.4 0-1.3-2.5.2-2.5C-4.1-4.5-2.2-6 0-6z"/><circle cx="-1.6" cy="-.1" r=".1" fill="#ffc258"/><path fill="#4f4b45" d="M-1.6.5c-.3 0-.6-.3-.6-.6s.2-.7.6-.7c.3 0 .6.3.6.7s-.3.6-.6.6z"/><circle cx="1.6" cy="-.1" r=".1" fill="#ffc258"/><path fill="#4f4b45" d="M1.6.5C1.3.5 1 .2 1-.1s.3-.6.6-.6.6.3.6.6-.2.6-.6.6z"/><circle cx="-3" cy="-1.5" r=".5" fill="#fabfa5"/><circle cx="3" cy="-1.5" r=".5" fill="#fabfa5"/><path fill="none" stroke="#504b46" stroke-linecap="round" stroke-linejoin="round" stroke-miterlimit="10" d="M-1.2-3c.8-.5 1.7-.5 2.5 0"/></symbol><g id="Icons"><g id="XMLID_653_"><circle id="XMLID_326_" cx="24" cy="21.3" r="20" fill="#ffe500"/><path id="XMLID_323_" fill="#ebcb00" d="M24 1.3c-11 0-20 9-20 20s9 20 20 20 20-9 20-20-9-20-20-20zm0 37C13.9 38.3 5.8 30.1 5.8 20 5.8 10 13.9 1.8 24 1.8S42.3 10 42.3 20.1c0 10.1-8.2 18.2-18.3 18.2z"/><ellipse id="XMLID_322_" cx="24" cy="5.3" fill="#fff48c" rx="6" ry="1.5"/><circle id="XMLID_321_" cx="24" cy="21.3" r="20" fill="none" stroke="#45413c" stroke-linecap="round" stroke-linejoin="round" stroke-miterlimit="10"/><path id="XMLID_320_" fill="none" stroke="#45413c" stroke-linecap="round" stroke-miterlimit="10" d="M19 31.3c1.4-1 3.1-1.5 5-1.5 1.8 0 3.6.6 5 1.5"/><ellipse id="XMLID_319_" cx="24" cy="45.5" fill="#45413c" opacity=".15" rx="16" ry="1.5"/><circle id="XMLID_318_" cx="14" cy="21.3" r="1" fill="#45413c" stroke="#45413c" stroke-linecap="round" stroke-linejoin="round" stroke-miterlimit="10"/><circle id="XMLID_317_" cx="33.5" cy="21.3" r="1" fill="#45413c" stroke="#45413c" stroke-linecap="round" stroke-linejoin="round" stroke-miterlimit="10"/><ellipse id="XMLID_316_" cx="36" cy="26.3" fill="#ffaa54" rx="2.5" ry="1.5"/><ellipse id="XMLID_315_" cx="12" cy="26.3" fill="#ffaa54" rx="2.5" ry="1.5"/><path id="XMLID_314_" fill="none" stroke="#45413c" stroke-linecap="round" stroke-linejoin="round" stroke-miterlimit="10" d="M8.7 20.8c.6-2.6 2.6-4.7 5.4-5.2 1-.2 2.1-.2 3 0"/><path id="XMLID_313_" fill="none" stroke="#45413c" stroke-linecap="round" stroke-linejoin="round" stroke-miterlimit="10" d="M39.3 20.8c-.6-2.6-2.6-4.7-5.4-5.2-1-.2-2.1-.2-3 0"/><g id="XMLID_309_"><path id="XMLID_312_" fill="#00b8f0" d="M37.9 40.1c-3.6-1.6.9-5.6.4-8.3 4.1 2.6 3.2 9.9-.4 8.3z"/><path id="XMLID_311_" fill="#4acfff" d="M38.2 31.8v.2c2.7 3.1 1.7 8.6-1.5 7.4.2.3.6.6 1.1.8 3.7 1.5 4.6-5.8.4-8.4z"/><path id="XMLID_310_" fill="none" stroke="#45413c" stroke-linecap="round" stroke-linejoin="round" stroke-miterlimit="10" d="M37.9 40.1c-3.6-1.6.9-5.6.4-8.3 4.1 2.6 3.2 9.9-.4 8.3z"/></g><g id="XMLID_305_"><path id="XMLID_308_" fill="#00b8f0" d="M37.7 29.7c-2.7-.6-.2-4-1-5.8 3.3 1.1 3.8 6.3 1 5.8z"/><path id="XMLID_307_" fill="#4acfff" d="M36.8 23.8v.1c2.3 1.7 2.4 5.7.1 5.3.2.2.5.3.9.4 2.7.6 2.2-4.6-1-5.8z"/><path id="XMLID_306_" fill="none" stroke="#45413c" stroke-linecap="round" stroke-linejoin="round" stroke-miterlimit="10" d="M37.7 29.7c-2.7-.6-.2-4-1-5.8 3.3 1.1 3.8 6.3 1 5.8z"/></g><g id="XMLID_301_"><path id="XMLID_304_" fill="#00b8f0" d="M10.3 29.7c2.7-.6.2-4 1-5.8-3.3 1.1-3.8 6.3-1 5.8z"/><path id="XMLID_303_" fill="#4acfff" d="M11.2 23.8v.1c-2.3 1.7-2.4 5.7-.1 5.3-.2.2-.5.3-.9.4-2.7.6-2.2-4.6 1-5.8z"/><path id="XMLID_302_" fill="none" stroke="#45413c" stroke-linecap="round" stroke-linejoin="round" stroke-miterlimit="10" d="M10.3 29.7c2.7-.6.2-4 1-5.8-3.3 1.1-3.8 6.3-1 5.8z"/></g></g></g></svg>