<svg xmlns="http://www.w3.org/2000/svg" viewBox="0 0 48 48"><symbol id="New_Symbol_14" viewBox="-6.5 -6.5 13 13"><path fill="#ffd4c3" stroke="#504b46" stroke-linecap="round" stroke-linejoin="round" stroke-miterlimit="10" d="M0-6c2.2 0 4.1 1.5 4.7 3.5C6.3-2.5 6.4 0 5 0v1c0 2.8-2.2 5-5 5s-5-2.2-5-5V0c-1.4 0-1.3-2.5.2-2.5C-4.1-4.5-2.2-6 0-6z"/><circle cx="-1.6" cy="-.1" r=".1" fill="#ffc258"/><path fill="#4f4b45" d="M-1.6.5c-.3 0-.6-.3-.6-.6s.2-.7.6-.7c.3 0 .6.3.6.7s-.3.6-.6.6z"/><circle cx="1.6" cy="-.1" r=".1" fill="#ffc258"/><path fill="#4f4b45" d="M1.6.5C1.3.5 1 .2 1-.1s.3-.6.6-.6.6.3.6.6-.2.6-.6.6z"/><circle cx="-3" cy="-1.5" r=".5" fill="#fabfa5"/><circle cx="3" cy="-1.5" r=".5" fill="#fabfa5"/><path fill="none" stroke="#504b46" stroke-linecap="round" stroke-linejoin="round" stroke-miterlimit="10" d="M-1.2-3c.8-.5 1.7-.5 2.5 0"/></symbol><g id="Icons"><g id="XMLID_535_"><ellipse id="XMLID_7194_" cx="24" cy="45.2" fill="#45413c" opacity=".15" rx="16" ry="1.5"/><circle id="XMLID_7155_" cx="24" cy="21.3" r="20" fill="#ffe500"/><path id="XMLID_7152_" fill="#ebcb00" d="M24 1.3c-11 0-20 9-20 20s9 20 20 20 20-9 20-20-9-20-20-20zm0 37C13.9 38.3 5.8 30.1 5.8 20 5.8 10 13.9 1.8 24 1.8S42.2 10 42.2 20c0 10.1-8.1 18.3-18.2 18.3z"/><ellipse id="XMLID_7151_" cx="24" cy="5.3" fill="#fff48c" rx="6" ry="1.5"/><path id="XMLID_7149_" fill="none" stroke="#45413c" stroke-linecap="round" stroke-linejoin="round" stroke-miterlimit="10" d="M17 21.3H8.5"/><path id="XMLID_7148_" fill="none" stroke="#45413c" stroke-linecap="round" stroke-linejoin="round" stroke-miterlimit="10" d="M31 21.3h8.5"/><g id="XMLID_7145_"><path id="XMLID_7147_" fill="#ffb0ca" stroke="#45413c" stroke-linecap="round" stroke-linejoin="round" stroke-miterlimit="10" d="M17.9 29.3c-.3 0-.5.1-.7.3-.2.2-.2.5-.2.8.5 3.4 3.5 5.9 7 5.9s6.5-2.5 7-5.9c0-.3 0-.5-.2-.8-.2-.2-.4-.3-.7-.3H17.9z"/><path id="XMLID_7146_" fill="#ff87af" stroke="#45413c" stroke-linecap="round" stroke-linejoin="round" stroke-miterlimit="10" d="M29.6 33.6c-1.4-.8-3.4-1.3-5.6-1.3-2.2 0-4.2.5-5.6 1.3 1.3 1.7 3.3 2.7 5.6 2.7s4.3-1 5.6-2.7z"/></g><path id="XMLID_7144_" fill="#4cf4fc" stroke="#45413c" stroke-linecap="round" stroke-linejoin="round" stroke-miterlimit="10" d="M32.5 39.4c1.8-.9 3.5-2 5-3.4V21.3h-5v18.1z"/><path id="XMLID_7143_" fill="#4cf4fc" stroke="#45413c" stroke-linecap="round" stroke-linejoin="round" stroke-miterlimit="10" d="M15.5 39.4c-1.8-.9-3.5-2-5-3.4V21.3h5v18.1z"/><circle id="XMLID_7142_" cx="24" cy="21.3" r="20" fill="none" stroke="#45413c" stroke-linecap="round" stroke-linejoin="round" stroke-miterlimit="10"/></g></g></svg>