<svg xmlns="http://www.w3.org/2000/svg" viewBox="0 0 48 48"><symbol id="New_Symbol_14" viewBox="-6.5 -6.5 13 13"><path fill="#ffd4c3" stroke="#504b46" stroke-linecap="round" stroke-linejoin="round" stroke-miterlimit="10" d="M0-6c2.2 0 4.1 1.5 4.7 3.5C6.3-2.5 6.4 0 5 0v1c0 2.8-2.2 5-5 5s-5-2.2-5-5V0c-1.4 0-1.3-2.5.2-2.5C-4.1-4.5-2.2-6 0-6z"/><circle cx="-1.6" cy="-.1" r=".1" fill="#ffc258"/><path fill="#4f4b45" d="M-1.6.5c-.3 0-.6-.3-.6-.6s.2-.7.6-.7c.3 0 .6.3.6.7s-.3.6-.6.6z"/><circle cx="1.6" cy="-.1" r=".1" fill="#ffc258"/><path fill="#4f4b45" d="M1.6.5C1.3.5 1 .2 1-.1s.3-.6.6-.6.6.3.6.6-.2.6-.6.6z"/><circle cx="-3" cy="-1.5" r=".5" fill="#fabfa5"/><circle cx="3" cy="-1.5" r=".5" fill="#fabfa5"/><path fill="none" stroke="#504b46" stroke-linecap="round" stroke-linejoin="round" stroke-miterlimit="10" d="M-1.2-3c.8-.5 1.7-.5 2.5 0"/></symbol><g id="Icons"><g id="XMLID_732_"><ellipse id="XMLID_2215_" cx="24" cy="44.9" fill="#45413c" opacity=".15" rx="16" ry="1.5"/><circle id="XMLID_1739_" cx="24" cy="22.1" r="20" fill="#ffe500"/><path id="XMLID_1736_" fill="#ebcb00" d="M24 1.6c-11 0-20 9-20 20s9 20 20 20 20-9 20-20-9-20-20-20zm0 37c-10.1 0-18.2-8.2-18.2-18.3-.1-10 8.1-18.2 18.2-18.2s18.2 8.2 18.2 18.2c0 10.1-8.1 18.3-18.2 18.3z"/><ellipse id="XMLID_1735_" cx="24" cy="5.6" fill="#fff48c" rx="6" ry="1.5"/><circle id="XMLID_1734_" cx="24" cy="21.6" r="20" fill="none" stroke="#45413c" stroke-linecap="round" stroke-linejoin="round" stroke-miterlimit="10"/><ellipse id="XMLID_1733_" cx="36" cy="26.6" fill="#ffaa54" rx="2.5" ry="1.5"/><ellipse id="XMLID_1732_" cx="12" cy="26.6" fill="#ffaa54" rx="2.5" ry="1.5"/><circle id="XMLID_1731_" cx="13.5" cy="20.6" r="1" fill="#45413c" stroke="#45413c" stroke-linecap="round" stroke-linejoin="round" stroke-miterlimit="10"/><circle id="XMLID_1730_" cx="34.5" cy="20.6" r="1" fill="#45413c" stroke="#45413c" stroke-linecap="round" stroke-linejoin="round" stroke-miterlimit="10"/><g id="XMLID_1706_"><g id="XMLID_1707_"><g id="XMLID_1708_"><path id="XMLID_1709_" fill="#ff866e" stroke="#45413c" stroke-linecap="round" stroke-linejoin="round" stroke-miterlimit="10" d="M30.1 35.1c.3 0 .5-.1.7-.3.2-.2.2-.5.2-.8-.5-2.8-3.5-4.4-7-4.4s-6.4 1.5-7 4.4c-.1.3 0 .6.2.8.2.2.4.3.7.3C22 34 26 34 30.1 35.1z"/></g></g></g><path id="XMLID_1705_" fill="#e5feff" stroke="#45413c" stroke-linecap="round" stroke-linejoin="round" stroke-miterlimit="10" d="M30.3 35.1l-1.7 6.8c-.2 1-.1 2.1.4 2.9.7 1.1 1.8 1.1 2.5 0 .5-.8.7-1.9.4-2.9l-1.6-6.8z"/><path id="XMLID_1704_" fill="none" stroke="#45413c" stroke-linecap="round" stroke-linejoin="round" stroke-miterlimit="10" d="M9.5 15.6s1.5-1.5 4-1.5 3.5 1 3.5 1"/><path id="XMLID_1703_" fill="none" stroke="#45413c" stroke-linecap="round" stroke-linejoin="round" stroke-miterlimit="10" d="M38.5 17.1s-1.5-1.5-4-1.5-3.5 1-3.5 1"/></g></g></svg>