<svg xmlns="http://www.w3.org/2000/svg" viewBox="0 0 48 48"><symbol id="New_Symbol_14" viewBox="-6.5 -6.5 13 13"><path fill="#ffd4c3" stroke="#504b46" stroke-linecap="round" stroke-linejoin="round" stroke-miterlimit="10" d="M0-6c2.2 0 4.1 1.5 4.7 3.5C6.3-2.5 6.4 0 5 0v1c0 2.8-2.2 5-5 5s-5-2.2-5-5V0c-1.4 0-1.3-2.5.2-2.5C-4.1-4.5-2.2-6 0-6z"/><circle cx="-1.6" cy="-.1" r=".1" fill="#ffc258"/><path fill="#4f4b45" d="M-1.6.5c-.3 0-.6-.3-.6-.6s.2-.7.6-.7c.3 0 .6.3.6.7s-.3.6-.6.6z"/><circle cx="1.6" cy="-.1" r=".1" fill="#ffc258"/><path fill="#4f4b45" d="M1.6.5C1.3.5 1 .2 1-.1s.3-.6.6-.6.6.3.6.6-.2.6-.6.6z"/><circle cx="-3" cy="-1.5" r=".5" fill="#fabfa5"/><circle cx="3" cy="-1.5" r=".5" fill="#fabfa5"/><path fill="none" stroke="#504b46" stroke-linecap="round" stroke-linejoin="round" stroke-miterlimit="10" d="M-1.2-3c.8-.5 1.7-.5 2.5 0"/></symbol><g id="Icons"><g id="XMLID_612_"><circle id="XMLID_1578_" cx="24" cy="21.3" r="20" fill="#ffe500"/><path id="XMLID_1575_" fill="#ebcb00" d="M24 1.3c-11 0-20 9-20 20s9 20 20 20 20-9 20-20-9-20-20-20zm0 37c-10.1 0-18.2-8.2-18.2-18.2C5.8 10 13.9 1.8 24 1.8S42.3 10 42.3 20.1c0 10-8.2 18.2-18.3 18.2z"/><ellipse id="XMLID_1574_" cx="24" cy="5.3" fill="#fff48c" rx="6" ry="1.5"/><ellipse id="XMLID_1573_" cx="24" cy="45.2" fill="#45413c" opacity=".15" rx="16" ry="1.5"/><circle id="XMLID_1572_" cx="24" cy="21.3" r="20" fill="none" stroke="#45413c" stroke-linecap="round" stroke-linejoin="round" stroke-miterlimit="10"/><ellipse id="XMLID_1571_" cx="36" cy="26.3" fill="#ffaa54" rx="2.5" ry="1.5"/><ellipse id="XMLID_1570_" cx="12" cy="26.3" fill="#ffaa54" rx="2.5" ry="1.5"/><g id="XMLID_1567_"><path id="XMLID_1569_" fill="none" stroke="#45413c" stroke-linecap="round" stroke-linejoin="round" stroke-miterlimit="10" d="M12 18.8l3.5 3.5"/><path id="XMLID_1568_" fill="none" stroke="#45413c" stroke-linecap="round" stroke-linejoin="round" stroke-miterlimit="10" d="M15.5 18.8L12 22.3"/></g><g id="XMLID_1564_"><path id="XMLID_1566_" fill="none" stroke="#45413c" stroke-linecap="round" stroke-linejoin="round" stroke-miterlimit="10" d="M36 18.8l-3.5 3.5"/><path id="XMLID_1565_" fill="none" stroke="#45413c" stroke-linecap="round" stroke-linejoin="round" stroke-miterlimit="10" d="M32.5 18.8l3.5 3.5"/></g><path id="XMLID_1563_" fill="none" stroke="#45413c" stroke-linecap="round" stroke-linejoin="round" stroke-miterlimit="10" d="M10.7 15.8c.8-.6 1.8-1 2.8-1 1.1 0 2.1.4 2.8 1"/><path id="XMLID_1562_" fill="none" stroke="#45413c" stroke-linecap="round" stroke-linejoin="round" stroke-miterlimit="10" d="M37.3 15.8c-.8-.6-1.8-1-2.8-1-1.1 0-2.1.4-2.8 1"/><g id="XMLID_1559_"><circle id="XMLID_1561_" cx="24" cy="31.3" r="7.5" fill="#ffb0ca" stroke="#45413c" stroke-linecap="round" stroke-linejoin="round" stroke-miterlimit="10"/><path id="XMLID_1560_" fill="#ff866e" stroke="#45413c" stroke-linecap="round" stroke-linejoin="round" stroke-miterlimit="10" d="M24 31.8c-2.7 0-5 1.4-6.3 3.5 1.3 2.1 3.7 3.5 6.3 3.5s5-1.4 6.3-3.5c-1.3-2.1-3.6-3.5-6.3-3.5z"/></g></g></g></svg>