<svg xmlns="http://www.w3.org/2000/svg" viewBox="0 0 48 48"><symbol id="New_Symbol_14" viewBox="-6.5 -6.5 13 13"><path fill="#ffd4c3" stroke="#504b46" stroke-linecap="round" stroke-linejoin="round" stroke-miterlimit="10" d="M0-6c2.2 0 4.1 1.5 4.7 3.5C6.3-2.5 6.4 0 5 0v1c0 2.8-2.2 5-5 5s-5-2.2-5-5V0c-1.4 0-1.3-2.5.2-2.5C-4.1-4.5-2.2-6 0-6z"/><circle cx="-1.6" cy="-.1" r=".1" fill="#ffc258"/><path fill="#4f4b45" d="M-1.6.5c-.3 0-.6-.3-.6-.6s.2-.7.6-.7c.3 0 .6.3.6.7s-.3.6-.6.6z"/><circle cx="1.6" cy="-.1" r=".1" fill="#ffc258"/><path fill="#4f4b45" d="M1.6.5C1.3.5 1 .2 1-.1s.3-.6.6-.6.6.3.6.6-.2.6-.6.6z"/><circle cx="-3" cy="-1.5" r=".5" fill="#fabfa5"/><circle cx="3" cy="-1.5" r=".5" fill="#fabfa5"/><path fill="none" stroke="#504b46" stroke-linecap="round" stroke-linejoin="round" stroke-miterlimit="10" d="M-1.2-3c.8-.5 1.7-.5 2.5 0"/></symbol><g id="Icons"><g id="XMLID_706_"><ellipse id="XMLID_2641_" cx="22.6" cy="45" fill="#45413c" opacity=".15" rx="16" ry="1.5"/><circle id="XMLID_2627_" cx="22.6" cy="21.5" r="20" fill="#ffe500"/><path id="XMLID_2624_" fill="#ebcb00" d="M22.6 1.5c-11 0-20 9-20 20s9 20 20 20 20-9 20-20-8.9-20-20-20zm0 37c-10.1 0-18.2-8.2-18.2-18.2C4.4 10.2 12.5 2 22.6 2s18.3 8.2 18.3 18.2c0 10.1-8.2 18.3-18.3 18.3z"/><ellipse id="XMLID_2623_" cx="22.6" cy="5.5" fill="#fff48c" rx="6" ry="1.5"/><circle id="XMLID_2622_" cx="22.6" cy="21.5" r="20" fill="none" stroke="#45413c" stroke-linecap="round" stroke-linejoin="round" stroke-miterlimit="10"/><ellipse id="XMLID_2621_" cx="34.6" cy="26.5" fill="#ffaa54" rx="2.5" ry="1.5"/><ellipse id="XMLID_2620_" cx="10.6" cy="26.5" fill="#ffaa54" rx="2.5" ry="1.5"/><circle id="XMLID_2619_" cx="12.1" cy="17.5" r="1" fill="#45413c" stroke="#45413c" stroke-linecap="round" stroke-linejoin="round" stroke-miterlimit="10"/><circle id="XMLID_2618_" cx="33.1" cy="20.5" r="1" fill="#45413c" stroke="#45413c" stroke-linecap="round" stroke-linejoin="round" stroke-miterlimit="10"/><path id="XMLID_25_" fill="#87898c" d="M42.6 18.5h-1.5V14h1.5c.8 0 1.5.7 1.5 1.5V17c0 .8-.6 1.5-1.5 1.5z"/><path id="XMLID_24_" fill="#bdbec0" d="M42.6 14h-1.5v1.5h1.5c.8 0 1.5.7 1.5 1.5v-1.5c0-.8-.6-1.5-1.5-1.5z"/><path id="XMLID_23_" fill="none" stroke="#45413c" stroke-linecap="round" stroke-linejoin="round" stroke-miterlimit="10" d="M42.6 18.5h-1.5V14h1.5c.8 0 1.5.7 1.5 1.5V17c0 .8-.6 1.5-1.5 1.5z"/><circle id="XMLID_22_" cx="33.6" cy="16.5" r="8.5" fill="#87898c"/><path id="XMLID_21_" fill="#bdbec0" d="M33.6 10c4.4 0 7.9 3.3 8.4 7.5 0-.3.1-.7.1-1 0-4.7-3.8-8.5-8.5-8.5s-8.5 3.8-8.5 8.5c0 .3 0 .7.1 1 .5-4.2 4.1-7.5 8.4-7.5z"/><circle id="XMLID_20_" cx="33.6" cy="16.5" r="8.5" fill="none" stroke="#45413c" stroke-linecap="round" stroke-linejoin="round" stroke-miterlimit="10"/><circle id="XMLID_19_" cx="33.6" cy="16.5" r="6.5" fill="#00b8f0"/><path id="XMLID_18_" fill="#4acfff" d="M33.6 10c-3.6 0-6.5 2.9-6.5 6.5 0 1.2.3 2.3.9 3.2l7.8-9.3c-.7-.3-1.4-.4-2.2-.4z"/><circle id="XMLID_17_" cx="33.6" cy="16.5" r="6.5" fill="none" stroke="#45413c" stroke-linecap="round" stroke-linejoin="round" stroke-miterlimit="10"/><path id="XMLID_16_" fill="none" stroke="#45413c" stroke-linecap="round" stroke-linejoin="round" stroke-miterlimit="10" d="M44.1 16s1.5.1 1.5 2v17c0 4.2-4 4-4 4s-4 .3-4-4"/><path id="XMLID_15_" fill="none" stroke="#45413c" stroke-linecap="round" stroke-linejoin="round" stroke-miterlimit="10" d="M20.1 28.6s1.1-.6 3-.6 3 .6 3 .6"/><path id="XMLID_14_" fill="none" stroke="#45413c" stroke-linecap="round" stroke-linejoin="round" stroke-miterlimit="10" d="M9.6 15s.4-2.5 2.5-2.5 2.5 2.5 2.5 2.5"/></g></g></svg>