<svg xmlns="http://www.w3.org/2000/svg" viewBox="0 0 48 48"><symbol id="New_Symbol_14" viewBox="-6.5 -6.5 13 13"><path fill="#ffd4c3" stroke="#504b46" stroke-linecap="round" stroke-linejoin="round" stroke-miterlimit="10" d="M0-6c2.2 0 4.1 1.5 4.7 3.5C6.3-2.5 6.4 0 5 0v1c0 2.8-2.2 5-5 5s-5-2.2-5-5V0c-1.4 0-1.3-2.5.2-2.5C-4.1-4.5-2.2-6 0-6z"/><circle cx="-1.6" cy="-.1" r=".1" fill="#ffc258"/><path fill="#4f4b45" d="M-1.6.5c-.3 0-.6-.3-.6-.6s.2-.7.6-.7c.3 0 .6.3.6.7s-.3.6-.6.6z"/><circle cx="1.6" cy="-.1" r=".1" fill="#ffc258"/><path fill="#4f4b45" d="M1.6.5C1.3.5 1 .2 1-.1s.3-.6.6-.6.6.3.6.6-.2.6-.6.6z"/><circle cx="-3" cy="-1.5" r=".5" fill="#fabfa5"/><circle cx="3" cy="-1.5" r=".5" fill="#fabfa5"/><path fill="none" stroke="#504b46" stroke-linecap="round" stroke-linejoin="round" stroke-miterlimit="10" d="M-1.2-3c.8-.5 1.7-.5 2.5 0"/></symbol><g id="Icons"><g id="XMLID_711_"><circle id="XMLID_1444_" cx="24" cy="21.3" r="20" fill="#ffe500"/><path id="XMLID_1441_" fill="#ebcb00" d="M24 1.3c-11 0-20 9-20 20s9 20 20 20 20-9 20-20-9-20-20-20zm0 37C13.9 38.3 5.8 30.1 5.8 20 5.8 9.9 13.9 1.8 24 1.8S42.3 9.9 42.3 20 34.1 38.3 24 38.3z"/><ellipse id="XMLID_1440_" cx="24" cy="5.3" fill="#fff48c" rx="6" ry="1.5"/><circle id="XMLID_1439_" cx="24" cy="21.3" r="20" fill="none" stroke="#45413c" stroke-linecap="round" stroke-linejoin="round" stroke-miterlimit="10"/><ellipse id="XMLID_1438_" cx="36" cy="26.3" fill="#ffaa54" rx="2.5" ry="1.5"/><ellipse id="XMLID_1437_" cx="12" cy="26.3" fill="#ffaa54" rx="2.5" ry="1.5"/><g id="XMLID_1434_"><path id="XMLID_1436_" fill="none" stroke="#45413c" stroke-linecap="round" stroke-linejoin="round" stroke-miterlimit="10" d="M39.9 19.2c-1.1-2.4-3.5-4-6.4-4-1.1 0-2.1.2-3 .7"/><path id="XMLID_1435_" fill="none" stroke="#45413c" stroke-linecap="round" stroke-linejoin="round" stroke-miterlimit="10" d="M8.1 19.2c1.1-2.4 3.5-4 6.4-4 1.1 0 2.1.2 3 .7"/></g><g id="XMLID_1431_"><path id="XMLID_1433_" fill="#ffb0ca" stroke="#45413c" stroke-linecap="round" stroke-linejoin="round" stroke-miterlimit="10" d="M17.9 29.3c-.3 0-.5.1-.7.3-.2.2-.2.5-.2.7.5 3.4 3.5 5.9 7 5.9s6.5-2.5 7-5.9c0-.3 0-.5-.2-.8-.2-.2-.4-.3-.7-.3H17.9z"/><path id="XMLID_1432_" fill="#ff87af" stroke="#45413c" stroke-linecap="round" stroke-linejoin="round" stroke-miterlimit="10" d="M29.6 33.6c-1.4-.8-3.4-1.3-5.6-1.3-2.2 0-4.2.5-5.6 1.3 1.3 1.7 3.3 2.7 5.6 2.7s4.3-1 5.6-2.7z"/></g><path id="XMLID_1430_" fill="#4aeff7" stroke="#45413c" stroke-linecap="round" stroke-linejoin="round" stroke-miterlimit="10" d="M29.5 32c.2-.4.8-.3.8.2v9.2c0 .9-.7 1.6-1.6 1.6-.9 0-1.6-.7-1.6-1.6v-4.9c0-.9.4-1.9 1-2.5.5-.6 1-1.2 1.4-2z"/><ellipse id="XMLID_1428_" cx="24" cy="45.2" fill="#45413c" opacity=".15" rx="16" ry="1.5"/><path id="XMLID_1427_" fill="none" stroke="#45413c" stroke-linecap="round" stroke-linejoin="round" stroke-miterlimit="10" d="M10.6 22.3c1-2 3.4-2.8 5.4-1.8"/><path id="XMLID_1426_" fill="none" stroke="#45413c" stroke-linecap="round" stroke-linejoin="round" stroke-miterlimit="10" d="M37.4 22.3c-1-2-3.4-2.8-5.4-1.8"/></g></g></svg>