<svg xmlns="http://www.w3.org/2000/svg" viewBox="0 0 48 48"><symbol id="New_Symbol_14" viewBox="-6.5 -6.5 13 13"><path fill="#ffd4c3" stroke="#504b46" stroke-linecap="round" stroke-linejoin="round" stroke-miterlimit="10" d="M0-6c2.2 0 4.1 1.5 4.7 3.5C6.3-2.5 6.4 0 5 0v1c0 2.8-2.2 5-5 5s-5-2.2-5-5V0c-1.4 0-1.3-2.5.2-2.5C-4.1-4.5-2.2-6 0-6z"/><circle cx="-1.6" cy="-.1" r=".1" fill="#ffc258"/><path fill="#4f4b45" d="M-1.6.5c-.3 0-.6-.3-.6-.6s.2-.7.6-.7c.3 0 .6.3.6.7s-.3.6-.6.6z"/><circle cx="1.6" cy="-.1" r=".1" fill="#ffc258"/><path fill="#4f4b45" d="M1.6.5C1.3.5 1 .2 1-.1s.3-.6.6-.6.6.3.6.6-.2.6-.6.6z"/><circle cx="-3" cy="-1.5" r=".5" fill="#fabfa5"/><circle cx="3" cy="-1.5" r=".5" fill="#fabfa5"/><path fill="none" stroke="#504b46" stroke-linecap="round" stroke-linejoin="round" stroke-miterlimit="10" d="M-1.2-3c.8-.5 1.7-.5 2.5 0"/></symbol><g id="Icons"><g id="XMLID_733_"><ellipse id="XMLID_2240_" cx="24.5" cy="45.5" fill="#45413c" opacity=".15" rx="17.7" ry="1.5"/><circle id="XMLID_2239_" cx="24.5" cy="19.2" r="18.2" fill="#ffe500"/><path id="XMLID_2236_" fill="#ebcb00" d="M24.5 1C14.4 1 6.3 9.1 6.3 19.2s8.1 18.2 18.2 18.2 18.2-8.1 18.2-18.2S34.5 1 24.5 1zm0 33.6c-9.2 0-16.6-7.4-16.6-16.6 0-9.2 7.4-16.6 16.6-16.6S41 8.9 41 18c0 9.2-7.4 16.6-16.5 16.6z"/><ellipse id="XMLID_2235_" cx="24.5" cy="4.6" fill="#fff48c" rx="5.5" ry="1.4"/><circle id="XMLID_2234_" cx="24.5" cy="19.2" r="18.2" fill="none" stroke="#45413c" stroke-linecap="round" stroke-linejoin="round" stroke-miterlimit="10"/><ellipse id="XMLID_2233_" cx="35.4" cy="23.7" fill="#ffaa54" rx="2.3" ry="1.4"/><ellipse id="XMLID_2232_" cx="13.5" cy="23.7" fill="#ffaa54" rx="2.3" ry="1.4"/><ellipse id="XMLID_2231_" cx="24.5" cy="29.6" fill="#ffb0ca" stroke="#45413c" stroke-linecap="round" stroke-linejoin="round" stroke-miterlimit="10" rx="10" ry="5.5"/><path id="XMLID_2230_" fill="none" stroke="#45413c" stroke-linecap="round" stroke-linejoin="round" stroke-miterlimit="10" d="M14.5 14.3c1-.1 2-.5 3.1-1 1-.5 1.9-1.2 2.6-1.9"/><path id="XMLID_2229_" fill="none" stroke="#45413c" stroke-linecap="round" stroke-linejoin="round" stroke-miterlimit="10" d="M34.2 14.3c-1-.1-2-.5-3.1-1-1-.5-1.9-1.2-2.6-1.9"/><path id="XMLID_2228_" fill="none" stroke="#45413c" stroke-linecap="round" stroke-linejoin="round" stroke-miterlimit="10" d="M35.6 16l-2.9 1.5c-.7.3-.7 1.3 0 1.6l2.9 1.5"/><path id="XMLID_1702_" fill="none" stroke="#45413c" stroke-linecap="round" stroke-linejoin="round" stroke-miterlimit="10" d="M13.3 16l2.9 1.5c.7.3.7 1.3 0 1.6l-2.9 1.5"/><path id="XMLID_1701_" fill="#6dd627" d="M36 40c-.1-.6-.5-1-1.1-1.3-.6-.3-1-.3-1.5-.3-1-1.5-1.2-4-1.2-5.6v-6.6c-1.8-1.2-4.6-2-7.7-2s-5.9.8-7.7 2v5.7c0 2.3-.1 3.8-1.8 4.1-1.6.3-2.4 2.6-1.3 3.8-2.7 1-3.4 2.2-3.2 3.5.1 1.2 1 1.8 4.5 1.8h19c3.5 0 4.4-.6 4.5-1.8.2-1.3-.4-2.3-2.5-3.3z"/><path id="XMLID_1700_" fill="#46b000" d="M24.4 24.2c-3.1 0-5.9.8-7.7 2v3.2c1.6-.8 4.1-1.6 7.7-1.6 3.7 0 6.1.8 7.7 1.6v-3.2c-1.8-1.3-4.5-2-7.7-2z"/><path id="XMLID_1699_" fill="none" stroke="#45413c" stroke-linecap="round" stroke-linejoin="round" stroke-miterlimit="10" d="M36 40c-.1-.6-.5-1-1.1-1.3-.6-.3-1-.3-1.5-.3-1-1.5-1.2-4-1.2-5.6v-6.6c-1.8-1.2-4.6-2-7.7-2s-5.9.8-7.7 2v5.7c0 2.3-.1 3.8-1.8 4.1-1.6.3-2.4 2.6-1.3 3.8-2.7 1-3.4 2.2-3.2 3.5.1 1.2 1 1.8 4.5 1.8h19c3.5 0 4.4-.6 4.5-1.8.2-1.3-.4-2.3-2.5-3.3z"/><path id="XMLID_1698_" fill="none" stroke="#45413c" stroke-linecap="round" stroke-linejoin="round" stroke-miterlimit="10" d="M28.5 30.1c0 3.5.7 7.6 2.3 8.2 1.6.6 2.6-.3 4.1.5 1.5.7 1.7 2.6 0 3.6"/><path id="XMLID_1697_" fill="none" stroke="#45413c" stroke-linecap="round" stroke-linejoin="round" stroke-miterlimit="10" d="M16.7 31.9c0 2.3-.1 3.8-1.8 4.1-1.8.3-2.5 3.2-.9 4.1 1.5.9 3 .5 4.1 0"/><path id="XMLID_1678_" fill="none" stroke="#45413c" stroke-linecap="round" stroke-linejoin="round" stroke-miterlimit="10" d="M19.9 32.8s-.2 5.8-2.3 8.2c-1.3 1.5-1.4 4.1 0 4.1"/><path id="XMLID_1677_" fill="none" stroke="#45413c" stroke-linecap="round" stroke-linejoin="round" stroke-miterlimit="10" d="M25.8 35.1s.8 5 1.8 5.9c1 .9 2.4.5 3.6.9 1.3.5 1.4 3.2-.5 3.2"/><path id="XMLID_1676_" fill="none" stroke="#45413c" stroke-linecap="round" stroke-linejoin="round" stroke-miterlimit="10" d="M22.6 45.1s-1.5-.7-.9-2.7"/><path id="XMLID_1675_" fill="#6dd627" stroke="#45413c" stroke-linecap="round" stroke-linejoin="round" stroke-miterlimit="10" d="M39.8 36s.4-1.7.9-3.2c.4-1.3 2.1-1.7 2.7-.1.7 1.6-1.3 3.2-3.6 3.3z"/><path id="XMLID_1674_" fill="#6dd627" stroke="#45413c" stroke-linecap="round" stroke-linejoin="round" stroke-miterlimit="10" d="M39.9 39.6s1.1-.7 1.8-1.4c.9-1 2.8.5 1.4 1.8s-3.2-.4-3.2-.4z"/><path id="XMLID_1673_" fill="#6dd627" stroke="#45413c" stroke-linecap="round" stroke-linejoin="round" stroke-miterlimit="10" d="M8.3 39.9s-.7-1.7-.7-3.1c-.2-1.8-3.5-1.8-3.1.7.4 2.6 3.8 2.4 3.8 2.4z"/></g></g></svg>