<svg xmlns="http://www.w3.org/2000/svg" viewBox="0 0 48 48"><symbol id="New_Symbol_14" viewBox="-6.5 -6.5 13 13"><path fill="#ffd4c3" stroke="#504b46" stroke-linecap="round" stroke-linejoin="round" stroke-miterlimit="10" d="M0-6c2.2 0 4.1 1.5 4.7 3.5C6.3-2.5 6.4 0 5 0v1c0 2.8-2.2 5-5 5s-5-2.2-5-5V0c-1.4 0-1.3-2.5.2-2.5C-4.1-4.5-2.2-6 0-6z"/><circle cx="-1.6" cy="-.1" r=".1" fill="#ffc258"/><path fill="#4f4b45" d="M-1.6.5c-.3 0-.6-.3-.6-.6s.2-.7.6-.7c.3 0 .6.3.6.7s-.3.6-.6.6z"/><circle cx="1.6" cy="-.1" r=".1" fill="#ffc258"/><path fill="#4f4b45" d="M1.6.5C1.3.5 1 .2 1-.1s.3-.6.6-.6.6.3.6.6-.2.6-.6.6z"/><circle cx="-3" cy="-1.5" r=".5" fill="#fabfa5"/><circle cx="3" cy="-1.5" r=".5" fill="#fabfa5"/><path fill="none" stroke="#504b46" stroke-linecap="round" stroke-linejoin="round" stroke-miterlimit="10" d="M-1.2-3c.8-.5 1.7-.5 2.5 0"/></symbol><g id="Icons"><g id="XMLID_652_"><circle id="XMLID_248_" cx="17.2" cy="23.7" r="15.3" fill="#ffe500"/><path id="XMLID_245_" fill="#ebcb00" d="M17.2 8.4c-8.5 0-15.3 6.9-15.3 15.3S8.8 39 17.2 39s15.3-6.9 15.3-15.3S25.7 8.4 17.2 8.4zm0 28.3c-7.7 0-14-6.3-14-14s6.3-14 14-14 14 6.3 14 14c0 7.8-6.2 14-14 14z"/><ellipse id="XMLID_244_" cx="17.2" cy="11.4" fill="#fff48c" rx="4.6" ry="1.1"/><ellipse id="XMLID_243_" cx="17.2" cy="45.2" fill="#45413c" opacity=".15" rx="12.3" ry="1.5"/><circle id="XMLID_242_" cx="17.2" cy="23.7" r="15.3" fill="none" stroke="#45413c" stroke-linecap="round" stroke-linejoin="round" stroke-miterlimit="10"/><g id="XMLID_240_"><path id="XMLID_241_" fill="none" stroke="#45413c" stroke-linecap="round" stroke-miterlimit="10" d="M17.2 28.5c.2-.1.5-.2.8-.2.8 0 1.5.7 1.5 1.5s-.7 1.5-1.5 1.5c.8 0 1.5.7 1.5 1.5s-.7 1.5-1.5 1.5c-.3 0-.5-.1-.8-.2"/></g><ellipse id="XMLID_239_" cx="8" cy="27.5" fill="#ffaa54" rx="1.9" ry="1.1"/><ellipse id="XMLID_238_" cx="26.4" cy="27.5" fill="#ffaa54" rx="1.9" ry="1.1"/><circle id="XMLID_237_" cx="9.2" cy="23.3" r=".8" fill="#45413c" stroke="#45413c" stroke-linecap="round" stroke-linejoin="round" stroke-miterlimit="10"/><circle id="XMLID_236_" cx="25.3" cy="23.3" r=".8" fill="#45413c" stroke="#45413c" stroke-linecap="round" stroke-linejoin="round" stroke-miterlimit="10"/><g id="XMLID_232_"><circle id="XMLID_235_" cx="36.2" cy="15.9" r="1.6" fill="none" stroke="#48cf3e" stroke-linecap="round" stroke-linejoin="round" stroke-miterlimit="10"/><circle id="XMLID_234_" cx="44.4" cy="14.3" r="1.6" fill="none" stroke="#48cf3e" stroke-linecap="round" stroke-linejoin="round" stroke-miterlimit="10"/><path id="XMLID_233_" fill="none" stroke="#48cf3e" stroke-linecap="round" stroke-linejoin="round" stroke-miterlimit="10" d="M37.9 15.9V8.6l8.2-3.3v9"/></g><g id="XMLID_229_"><circle id="XMLID_231_" cx="34.5" cy="39.6" r="1.6" fill="none" stroke="#ff4064" stroke-linecap="round" stroke-linejoin="round" stroke-miterlimit="10"/><path id="XMLID_230_" fill="none" stroke="#ff4064" stroke-linecap="round" stroke-linejoin="round" stroke-miterlimit="10" d="M36.1 39.6v-7.3l2.4 1.6"/></g><g id="XMLID_226_"><circle id="XMLID_228_" cx="26.1" cy="6.4" r="1" fill="none" stroke="#ffb700" stroke-linecap="round" stroke-linejoin="round" stroke-miterlimit="10"/><path id="XMLID_227_" fill="none" stroke="#ffb700" stroke-linecap="round" stroke-linejoin="round" stroke-miterlimit="10" d="M27.1 6.4V1.7l1.6 1"/></g><g id="XMLID_217_"><path id="XMLID_225_" fill="none" stroke="#00aed9" stroke-linecap="round" stroke-linejoin="round" stroke-miterlimit="10" d="M38.8 22.8v-.5"/><path id="XMLID_224_" fill="none" stroke="#00aed9" stroke-linecap="round" stroke-linejoin="round" stroke-miterlimit="10" d="M40 23.3l.4-.4"/><path id="XMLID_223_" fill="none" stroke="#00aed9" stroke-linecap="round" stroke-linejoin="round" stroke-miterlimit="10" d="M40.5 24.6h.6"/><path id="XMLID_222_" fill="none" stroke="#00aed9" stroke-linecap="round" stroke-linejoin="round" stroke-miterlimit="10" d="M40 25.8l.4.4"/><path id="XMLID_221_" fill="none" stroke="#00aed9" stroke-linecap="round" stroke-linejoin="round" stroke-miterlimit="10" d="M38.8 26.3v.6"/><path id="XMLID_220_" fill="none" stroke="#00aed9" stroke-linecap="round" stroke-linejoin="round" stroke-miterlimit="10" d="M37.6 25.8l-.4.4"/><path id="XMLID_219_" fill="none" stroke="#00aed9" stroke-linecap="round" stroke-linejoin="round" stroke-miterlimit="10" d="M37.1 24.6h-.6"/><path id="XMLID_218_" fill="none" stroke="#00aed9" stroke-linecap="round" stroke-linejoin="round" stroke-miterlimit="10" d="M37.6 23.3l-.4-.4"/></g><g id="XMLID_214_"><path id="XMLID_216_" fill="none" stroke="#00aed9" stroke-linecap="round" stroke-linejoin="round" stroke-miterlimit="10" d="M44.5 31v-3.1"/><path id="XMLID_215_" fill="none" stroke="#00aed9" stroke-linecap="round" stroke-linejoin="round" stroke-miterlimit="10" d="M42.9 29.5H46"/></g><g id="XMLID_211_"><path id="XMLID_213_" fill="none" stroke="#00aed9" stroke-linecap="round" stroke-linejoin="round" stroke-miterlimit="10" d="M41.1 3.2V1.7"/><path id="XMLID_212_" fill="none" stroke="#00aed9" stroke-linecap="round" stroke-linejoin="round" stroke-miterlimit="10" d="M40.3 2.4h1.6"/></g><g id="XMLID_208_"><path id="XMLID_210_" fill="none" stroke="#00aed9" stroke-linecap="round" stroke-linejoin="round" stroke-miterlimit="10" d="M42.1 38.3v-1.6"/><path id="XMLID_209_" fill="none" stroke="#00aed9" stroke-linecap="round" stroke-linejoin="round" stroke-miterlimit="10" d="M41.4 37.5h1.5"/></g><g id="XMLID_205_"><path id="XMLID_207_" fill="none" stroke="#00aed9" stroke-linecap="round" stroke-linejoin="round" stroke-miterlimit="10" d="M31.2 8.4V6.8"/><path id="XMLID_206_" fill="none" stroke="#00aed9" stroke-linecap="round" stroke-linejoin="round" stroke-miterlimit="10" d="M30.5 7.6H32"/></g></g></g></svg>