<svg xmlns="http://www.w3.org/2000/svg" viewBox="0 0 48 48"><symbol id="New_Symbol_14" viewBox="-6.5 -6.5 13 13"><path fill="#ffd4c3" stroke="#504b46" stroke-linecap="round" stroke-linejoin="round" stroke-miterlimit="10" d="M0-6c2.2 0 4.1 1.5 4.7 3.5C6.3-2.5 6.4 0 5 0v1c0 2.8-2.2 5-5 5s-5-2.2-5-5V0c-1.4 0-1.3-2.5.2-2.5C-4.1-4.5-2.2-6 0-6z"/><circle cx="-1.6" cy="-.1" r=".1" fill="#ffc258"/><path fill="#4f4b45" d="M-1.6.5c-.3 0-.6-.3-.6-.6s.2-.7.6-.7c.3 0 .6.3.6.7s-.3.6-.6.6z"/><circle cx="1.6" cy="-.1" r=".1" fill="#ffc258"/><path fill="#4f4b45" d="M1.6.5C1.3.5 1 .2 1-.1s.3-.6.6-.6.6.3.6.6-.2.6-.6.6z"/><circle cx="-3" cy="-1.5" r=".5" fill="#fabfa5"/><circle cx="3" cy="-1.5" r=".5" fill="#fabfa5"/><path fill="none" stroke="#504b46" stroke-linecap="round" stroke-linejoin="round" stroke-miterlimit="10" d="M-1.2-3c.8-.5 1.7-.5 2.5 0"/></symbol><g id="Icons"><g id="XMLID_666_"><circle id="XMLID_577_" cx="19.1" cy="20.4" r="17.8" fill="#ffe500"/><path id="XMLID_573_" fill="#ebcb00" d="M19.1 2.6c-9.8 0-17.8 8-17.8 17.8s8 17.8 17.8 17.8 17.8-8 17.8-17.8-8-17.8-17.8-17.8zm0 32.9c-9 0-16.2-7.3-16.2-16.2 0-9 7.3-16.2 16.2-16.2s16.2 7.3 16.2 16.2c0 8.9-7.3 16.2-16.2 16.2z"/><ellipse id="XMLID_572_" cx="19.1" cy="6.1" fill="#fff48c" rx="5.3" ry="1.3"/><circle id="XMLID_559_" cx="11.5" cy="21.3" r=".9" fill="#45413c" stroke="#45413c" stroke-linecap="round" stroke-linejoin="round" stroke-miterlimit="10"/><path id="XMLID_557_" fill="none" stroke="#45413c" stroke-linecap="round" stroke-linejoin="round" stroke-miterlimit="10" d="M14.9 19.9s-2.7-4-5.6-2.7"/><path id="XMLID_556_" fill="none" stroke="#45413c" stroke-linecap="round" stroke-linejoin="round" stroke-miterlimit="10" d="M23.2 19.9s2.7-4 5.6-2.7"/><circle id="XMLID_555_" cx="26.6" cy="21.3" r=".9" fill="#45413c" stroke="#45413c" stroke-linecap="round" stroke-linejoin="round" stroke-miterlimit="10"/><path id="XMLID_554_" fill="none" stroke="#45413c" stroke-linecap="round" stroke-miterlimit="10" d="M14.6 29.2c1.3-.9 2.8-1.3 4.4-1.3 1.6 0 3.2.5 4.4 1.3"/><ellipse id="XMLID_553_" cx="29.7" cy="25.2" fill="#ffaa54" rx="2.2" ry="1.3"/><ellipse id="XMLID_552_" cx="8.4" cy="25.2" fill="#ffaa54" rx="2.2" ry="1.3"/><ellipse id="XMLID_551_" cx="19.1" cy="43.9" fill="#45413c" opacity=".15" rx="14.2" ry="1.5"/><circle id="XMLID_550_" cx="19.1" cy="20.4" r="17.8" fill="none" stroke="#45413c" stroke-linecap="round" stroke-linejoin="round" stroke-miterlimit="10"/><path id="XMLID_549_" fill="#f0f0f0" d="M.9 13.3c-.1.3-.1.6.1.8.2.3.4.4.7.4h34.1c-.6-1.7-1.6-3.5-2.7-4.9H3.6c-.3.1-.6.2-.7.4-.8 1-1.5 2.2-2 3.3z"/><path id="XMLID_548_" fill="#fff" d="M34.3 11.5c-.4-.7-.8-1.3-1.2-1.8H3.5c-.2 0-.5.1-.7.3-.3.4-.6.9-.9 1.4h32.4z"/><path id="XMLID_547_" fill="none" stroke="#45413c" stroke-linecap="round" stroke-linejoin="round" stroke-miterlimit="10" d="M.9 13.3c-.1.3-.1.6.1.8.2.3.4.4.7.4h34.1c-.6-1.7-1.6-3.5-2.7-4.9H3.6c-.3.1-.6.2-.7.4-.8 1-1.5 2.2-2 3.3z"/><path id="XMLID_546_" fill="#fff" stroke="#45413c" stroke-linecap="round" stroke-linejoin="round" stroke-miterlimit="10" d="M34.2 12.4s4.8 5.6 12 5c.6 0 1.1.6.9 1.2-.5 1.5-1.4 3.3-1.9 4.2-.2.4-.7.6-1.1.4-2.4-1-9.9-4.5-9.9-10.8z"/><path id="XMLID_545_" fill="#fff" stroke="#45413c" stroke-linecap="round" stroke-linejoin="round" stroke-miterlimit="10" d="M34.1 11s1.7 8.8 7.1 14.3c.4.4.3 1.2-.3 1.4-2.3.9-4.7 1.1-5.9 1.2-.5 0-.9-.3-.9-.8-.5-2.8-1.8-12.9 0-16.1z"/><path id="XMLID_544_" fill="#f0f0f0" d="M37.3 12.1c0 1.6-1.3 2.9-2.9 2.9H34c-1.6 0-2.9-1.3-2.9-2.9s1.3-2.9 2.9-2.9h.4c1.6.1 2.9 1.3 2.9 2.9z"/><path id="XMLID_543_" fill="#fff" d="M33.9 11h.4c1.3 0 2.4.8 2.7 2 .1-.3.2-.6.2-.9 0-1.6-1.3-2.9-2.9-2.9h-.4c-1.6 0-2.9 1.3-2.9 2.9 0 .3.1.6.2.9.4-1.1 1.5-2 2.7-2z"/><path id="XMLID_542_" fill="none" stroke="#45413c" stroke-linecap="round" stroke-linejoin="round" stroke-miterlimit="10" d="M37.3 12.1c0 1.6-1.3 2.9-2.9 2.9H34c-1.6 0-2.9-1.3-2.9-2.9s1.3-2.9 2.9-2.9h.4c1.6.1 2.9 1.3 2.9 2.9z"/></g></g></svg>