<svg xmlns="http://www.w3.org/2000/svg" viewBox="0 0 48 48"><symbol id="New_Symbol_14" viewBox="-6.5 -6.5 13 13"><path fill="#ffd4c3" stroke="#504b46" stroke-linecap="round" stroke-linejoin="round" stroke-miterlimit="10" d="M0-6c2.2 0 4.1 1.5 4.7 3.5C6.3-2.5 6.4 0 5 0v1c0 2.8-2.2 5-5 5s-5-2.2-5-5V0c-1.4 0-1.3-2.5.2-2.5C-4.1-4.5-2.2-6 0-6z"/><circle cx="-1.6" cy="-.1" r=".1" fill="#ffc258"/><path fill="#4f4b45" d="M-1.6.5c-.3 0-.6-.3-.6-.6s.2-.7.6-.7c.3 0 .6.3.6.7s-.3.6-.6.6z"/><circle cx="1.6" cy="-.1" r=".1" fill="#ffc258"/><path fill="#4f4b45" d="M1.6.5C1.3.5 1 .2 1-.1s.3-.6.6-.6.6.3.6.6-.2.6-.6.6z"/><circle cx="-3" cy="-1.5" r=".5" fill="#fabfa5"/><circle cx="3" cy="-1.5" r=".5" fill="#fabfa5"/><path fill="none" stroke="#504b46" stroke-linecap="round" stroke-linejoin="round" stroke-miterlimit="10" d="M-1.2-3c.8-.5 1.7-.5 2.5 0"/></symbol><g id="Icons"><g id="XMLID_702_"><path id="XMLID_1518_" fill="#f0f0f0" stroke="#45413c" stroke-linecap="round" stroke-linejoin="round" stroke-miterlimit="10" d="M39.5 19.3c0 3.2.1 6 .4 8.2l1.8-1.9c3.4-3.6 5.5-8.2 5.9-13.2.1-.7-.3-1.5-1-1.8-.5-.3-1.2-.3-1.7 0-.6.3-.9.8-1 1.4-.4 2.7-2 5-4.4 6.2v1.1z"/><path id="XMLID_1517_" fill="#f0f0f0" stroke="#45413c" stroke-linecap="round" stroke-linejoin="round" stroke-miterlimit="10" d="M8.3 27.6c.2-2.3.4-5 .4-8.2 0-.3 0-.7.1-1-2.4-1.3-4-3.6-4.4-6.2-.1-.6-.5-1.1-1-1.4-.6-.3-1.2-.3-1.7 0-.7.4-1 1.1-1 1.8.4 4.9 2.5 9.6 5.9 13.2l1.7 1.8z"/><path id="XMLID_1516_" fill="#f0f0f0" d="M39.5 19.3c0-8.5-6.9-15.4-15.4-15.4S8.6 10.8 8.6 19.3C8.6 37.5 4.3 39 5.9 39c3.8 0 4.6-1.9 6.9-1.9s3.1 1.9 5.8 1.9c2.7 0 3.1-1.9 5.4-1.9s2.7 1.9 5.4 1.9 3.5-1.9 5.8-1.9 3.2 1.9 6.9 1.9c1.7 0-2.6-1.5-2.6-19.7z"/><path id="XMLID_1515_" fill="#e0e0e0" d="M36 34.9c-2.5 0-3.3 1.9-6.2 1.9-2.9 0-3.3-1.9-5.8-1.9s-2.9 1.9-5.8 1.9-3.7-1.9-6.2-1.9c-2.1 0-3.1 1.3-5.7 1.8-.6 2-1.1 2.3-.4 2.3 3.8 0 4.6-1.9 6.9-1.9s3.1 1.9 5.8 1.9c2.7 0 3.1-1.9 5.4-1.9s2.7 1.9 5.4 1.9 3.5-1.9 5.8-1.9 3.2 1.9 6.9 1.9c.7 0 .2-.3-.5-2.4-2.6-.4-3.6-1.7-5.6-1.7z"/><ellipse id="XMLID_1514_" cx="24" cy="7" fill="#fff" rx="4.6" ry="1.2"/><ellipse id="XMLID_1513_" cx="24" cy="42.6" fill="#45413c" opacity=".15" rx="17.5" ry="1.5"/><ellipse id="XMLID_1512_" cx="14.8" cy="23.2" fill="#ffaa54" rx="1.9" ry="1.2"/><ellipse id="XMLID_1511_" cx="14.8" cy="23.2" fill="#e0e0e0" rx="1.9" ry="1.2"/><ellipse id="XMLID_1510_" cx="33.3" cy="23.2" fill="#e0e0e0" rx="1.9" ry="1.2"/><circle id="XMLID_1509_" cx="30.6" cy="17.8" r="2.7" fill="#656769"/><path id="XMLID_1508_" fill="#525252" d="M30.6 16.6c1.2 0 2.2.8 2.6 1.9.1-.2.1-.5.1-.8 0-1.5-1.2-2.7-2.7-2.7s-2.7 1.2-2.7 2.7c0 .3.1.5.1.8.4-1.1 1.4-1.9 2.6-1.9z"/><circle id="XMLID_1507_" cx="30.6" cy="17.8" r="2.7" fill="none" stroke="#45413c" stroke-linecap="round" stroke-linejoin="round" stroke-miterlimit="10"/><circle id="XMLID_1506_" cx="17.5" cy="16.6" r="3.9" fill="#656769"/><path id="XMLID_1505_" fill="#525252" d="M17.5 14.7c1.8 0 3.3 1.2 3.7 2.9.1-.3.1-.6.1-1 0-2.1-1.7-3.9-3.9-3.9s-3.9 1.7-3.9 3.9c0 .3.1.7.1 1 .6-1.7 2.1-2.9 3.9-2.9z"/><circle id="XMLID_1504_" cx="17.5" cy="16.6" r="3.9" fill="none" stroke="#45413c" stroke-linecap="round" stroke-linejoin="round" stroke-miterlimit="10"/><path id="XMLID_1503_" fill="none" stroke="#45413c" stroke-linecap="round" stroke-linejoin="round" stroke-miterlimit="10" d="M39.5 19.3c0-8.5-6.9-15.4-15.4-15.4S8.6 10.8 8.6 19.3C8.6 37.5 4.3 39 5.9 39c3.8 0 4.6-1.9 6.9-1.9s3.1 1.9 5.8 1.9c2.7 0 3.1-1.9 5.4-1.9s2.7 1.9 5.4 1.9 3.5-1.9 5.8-1.9 3.2 1.9 6.9 1.9c1.7 0-2.6-1.5-2.6-19.7z"/><g id="XMLID_1501_"><path id="XMLID_1502_" fill="#ffb0ca" stroke="#45413c" stroke-linecap="round" stroke-linejoin="round" stroke-miterlimit="10" d="M18.3 25.1c.4 6.2 3.9 8.5 5.3 9.2.3.2.7.2 1.1 0 1.4-.8 4.9-3 5.3-9.2 0-.6-.4-1.1-1.1-1.1h-9.5c-.7-.1-1.2.5-1.1 1.1z"/></g><g id="XMLID_1497_"><path id="XMLID_1500_" fill="#ff6242" d="M24.1 29c0-1.2 3.5-.8 3.5.4v5c0 1.9-1.6 3.5-3.5 3.5s-3.5-1.6-3.5-3.5v-5c0-1.2 3.5-1.6 3.5-.4z"/><path id="XMLID_1499_" fill="#ff866e" d="M24.1 29c0-1.2-3.5-.8-3.5.4v1.5c0-1.2 6.9-1.2 6.9 0v-1.5c.1-1.2-3.4-1.6-3.4-.4z"/><path id="XMLID_1498_" fill="none" stroke="#45413c" stroke-linecap="round" stroke-linejoin="round" stroke-miterlimit="10" d="M24.1 29c0-1.2 3.5-.8 3.5.4v5c0 1.9-1.6 3.5-3.5 3.5s-3.5-1.6-3.5-3.5v-5c0-1.2 3.5-1.6 3.5-.4z"/></g></g></g></svg>