<svg xmlns="http://www.w3.org/2000/svg" viewBox="0 0 48 48"><symbol id="New_Symbol_14" viewBox="-6.5 -6.5 13 13"><path fill="#ffd4c3" stroke="#504b46" stroke-linecap="round" stroke-linejoin="round" stroke-miterlimit="10" d="M0-6c2.2 0 4.1 1.5 4.7 3.5C6.3-2.5 6.4 0 5 0v1c0 2.8-2.2 5-5 5s-5-2.2-5-5V0c-1.4 0-1.3-2.5.2-2.5C-4.1-4.5-2.2-6 0-6z"/><circle cx="-1.6" cy="-.1" r=".1" fill="#ffc258"/><path fill="#4f4b45" d="M-1.6.5c-.3 0-.6-.3-.6-.6s.2-.7.6-.7c.3 0 .6.3.6.7s-.3.6-.6.6z"/><circle cx="1.6" cy="-.1" r=".1" fill="#ffc258"/><path fill="#4f4b45" d="M1.6.5C1.3.5 1 .2 1-.1s.3-.6.6-.6.6.3.6.6-.2.6-.6.6z"/><circle cx="-3" cy="-1.5" r=".5" fill="#fabfa5"/><circle cx="3" cy="-1.5" r=".5" fill="#fabfa5"/><path fill="none" stroke="#504b46" stroke-linecap="round" stroke-linejoin="round" stroke-miterlimit="10" d="M-1.2-3c.8-.5 1.7-.5 2.5 0"/></symbol><g id="Icons"><g id="XMLID_1_"><circle id="XMLID_1324_" cx="24" cy="21" r="20" fill="#ffe500"/><path id="XMLID_1321_" fill="#ebcb00" d="M24 1C13 1 4 10 4 21s9 20 20 20 20-9 20-20S35 1 24 1zm0 37C13.9 38 5.8 29.8 5.8 19.8 5.8 9.7 13.9 1.5 24 1.5s18.2 8.2 18.2 18.2C42.3 29.8 34.1 38 24 38z"/><ellipse id="XMLID_1320_" cx="24" cy="5" fill="#fff48c" rx="6" ry="1.5"/><ellipse id="XMLID_1319_" cx="24" cy="45.5" fill="#45413c" opacity=".15" rx="16" ry="1.5"/><circle id="XMLID_1285_" cx="24" cy="21" r="20" fill="none" stroke="#45413c" stroke-linecap="round" stroke-linejoin="round" stroke-miterlimit="10"/><ellipse id="XMLID_1280_" cx="36" cy="26" fill="#ffaa54" rx="2.5" ry="1.5"/><ellipse id="XMLID_1279_" cx="12" cy="26" fill="#ffaa54" rx="2.5" ry="1.5"/><circle id="XMLID_1278_" cx="13.5" cy="20" r="1" fill="#45413c" stroke="#45413c" stroke-linecap="round" stroke-linejoin="round" stroke-miterlimit="10"/><circle id="XMLID_1277_" cx="34.5" cy="20" r="1" fill="#45413c" stroke="#45413c" stroke-linecap="round" stroke-linejoin="round" stroke-miterlimit="10"/><path id="XMLID_1276_" fill="#ffb0ca" stroke="#45413c" stroke-linecap="round" stroke-linejoin="round" stroke-miterlimit="10" d="M24 38c5.6 0 10.3-4 11-9.2 0-.3-.1-.6-.3-.8-.2-.2-.6-.3-.9-.3-6.5 1-13 1-19.5 0-.3-.1-.7 0-.9.3-.2.2-.4.5-.3.8C13.7 34 18.4 38 24 38z"/><path id="XMLID_1275_" fill="#ff87af" stroke="#45413c" stroke-linecap="round" stroke-linejoin="round" stroke-miterlimit="10" d="M24 33c-3.2 0-6.1.7-8.1 1.7 2 2 4.9 3.3 8.1 3.3s6.1-1.3 8.1-3.3c-2-1-4.9-1.7-8.1-1.7z"/></g></g></svg>