<svg xmlns="http://www.w3.org/2000/svg" viewBox="0 0 48 48"><symbol id="New_Symbol_14" viewBox="-6.5 -6.5 13 13"><path fill="#ffd4c3" stroke="#504b46" stroke-linecap="round" stroke-linejoin="round" stroke-miterlimit="10" d="M0-6c2.2 0 4.1 1.5 4.7 3.5C6.3-2.5 6.4 0 5 0v1c0 2.8-2.2 5-5 5s-5-2.2-5-5V0c-1.4 0-1.3-2.5.2-2.5C-4.1-4.5-2.2-6 0-6z"/><circle cx="-1.6" cy="-.1" r=".1" fill="#ffc258"/><path fill="#4f4b45" d="M-1.6.5c-.3 0-.6-.3-.6-.6s.2-.7.6-.7c.3 0 .6.3.6.7s-.3.6-.6.6z"/><circle cx="1.6" cy="-.1" r=".1" fill="#ffc258"/><path fill="#4f4b45" d="M1.6.5C1.3.5 1 .2 1-.1s.3-.6.6-.6.6.3.6.6-.2.6-.6.6z"/><circle cx="-3" cy="-1.5" r=".5" fill="#fabfa5"/><circle cx="3" cy="-1.5" r=".5" fill="#fabfa5"/><path fill="none" stroke="#504b46" stroke-linecap="round" stroke-linejoin="round" stroke-miterlimit="10" d="M-1.2-3c.8-.5 1.7-.5 2.5 0"/></symbol><g id="Icons"><g id="XMLID_723_"><circle id="XMLID_997_" cx="24.5" cy="21" r="20" fill="#ffe500"/><ellipse id="XMLID_996_" cx="24.5" cy="5" fill="#fff48c" rx="6" ry="1.5"/><path id="XMLID_993_" fill="#ebcb00" d="M24.5 1c-11 0-20 9-20 20s9 20 20 20 20-9 20-20-9-20-20-20zm0 37C14.4 38 6.2 29.8 6.2 19.8c0-10.1 8.2-18.2 18.2-18.2s18.2 8.2 18.2 18.2c.1 10-8.1 18.2-18.1 18.2z"/><ellipse id="XMLID_992_" cx="24.5" cy="45.5" fill="#45413c" opacity=".15" rx="16" ry="1.5"/><circle id="XMLID_991_" cx="24.5" cy="21" r="20" fill="none" stroke="#45413c" stroke-linecap="round" stroke-linejoin="round" stroke-miterlimit="10"/><ellipse id="XMLID_990_" cx="36.5" cy="26" fill="#ffaa54" rx="2.5" ry="1.5"/><ellipse id="XMLID_989_" cx="12.5" cy="26" fill="#ffaa54" rx="2.5" ry="1.5"/><circle id="XMLID_988_" cx="14" cy="21" r="1" fill="#45413c" stroke="#45413c" stroke-linecap="round" stroke-linejoin="round" stroke-miterlimit="10"/><circle id="XMLID_987_" cx="35" cy="21" r="1" fill="#45413c" stroke="#45413c" stroke-linecap="round" stroke-linejoin="round" stroke-miterlimit="10"/><path id="XMLID_986_" fill="none" stroke="#45413c" stroke-linecap="round" stroke-linejoin="round" stroke-miterlimit="10" d="M13.6 16.7c1.1-.2 2.2-.5 3.4-1.1 1.1-.6 2.1-1.3 2.9-2.1"/><path id="XMLID_985_" fill="none" stroke="#45413c" stroke-linecap="round" stroke-linejoin="round" stroke-miterlimit="10" d="M35.3 16.7c-1.1-.2-2.2-.5-3.4-1.1-1.1-.6-2.1-1.3-2.9-2.1"/><path id="XMLID_984_" fill="none" stroke="#45413c" stroke-linecap="round" stroke-miterlimit="10" d="M19.5 33.5c1.4-1 3.1-1.5 5-1.5 1.8 0 3.6.6 5 1.5"/><path id="XMLID_983_" fill="#f0f0f0" d="M3.5 21.9c0 .3.2.6.5.8.3.2.6.3 1 .1L38.6 7.6c.3-.1.5-.4.6-.8.1-.3-.1-.7-.3-.9-1.3-1.2-2.9-2.5-4.3-3.2-.3-.2-.6-.2-.9 0L4.5 15.9c-.3.1-.5.4-.6.7-.3 1.5-.4 3.6-.4 5.3z"/><path id="XMLID_982_" fill="#fff" d="M34.6 2.7c-.3-.2-.6-.2-.9 0L23.1 7.5h4.4l6.6-3c1.4.7 3.1 1.9 4.5 3.2l.2-.1c.3-.1.5-.4.6-.8.1-.3-.1-.7-.3-.9-1.5-1.1-3.1-2.4-4.5-3.2z"/><path id="XMLID_981_" fill="#e0e0e0" d="M4.5 15.9c-.1 0-.1.1-.2.1"/><path id="XMLID_980_" fill="#e0e0e0" d="M24.5 14L20 16H4.3s.1-.1.2-.1L8.7 14h15.8z"/><path id="XMLID_979_" fill="none" stroke="#45413c" stroke-linecap="round" stroke-linejoin="round" stroke-miterlimit="10" d="M3.5 21.9c0 .3.2.6.5.8.3.2.6.3 1 .1L38.6 7.6c.3-.1.5-.4.6-.8.1-.3-.1-.7-.3-.9-1.3-1.2-2.9-2.5-4.3-3.2-.3-.2-.6-.2-.9 0L4.5 15.9c-.3.1-.5.4-.6.7-.3 1.5-.4 3.6-.4 5.3z"/><path id="XMLID_978_" fill="none" stroke="#45413c" stroke-linecap="round" stroke-linejoin="round" stroke-miterlimit="10" d="M39.2 6.9c-.1.3-.3.6-.6.8L24.5 14 20 16 5 22.8c-.3.1-.7.1-1-.1-.3-.2-.5-.5-.5-.8 0-1.7.1-3.8.4-5.3 0-.2.2-.4.4-.6 0 0 .1-.1.2-.1L8.7 14l25-11.3c.3-.1.6-.1.9 0 1.4.8 3 2 4.3 3.2.2.3.3.6.3 1z"/><path id="XMLID_977_" fill="#f0f0f0" d="M5.1 12.6c-.1.3-.1.7.1.9.1.3.5.5.8.5h36.9c.3 0 .7-.2.8-.5.2-.3.2-.6.1-.9-.7-1.6-1.6-3.4-2.6-4.7-.2-.3-.5-.4-.8-.4h-32c-.3 0-.6.2-.8.4-.9 1.3-1.8 3.1-2.5 4.7z"/><path id="XMLID_976_" fill="#fff" d="M42.6 10c-.4-.8-.9-1.5-1.3-2.1-.2-.3-.5-.4-.8-.4h-32c-.3 0-.6.2-.8.4-.5.6-.9 1.3-1.4 2.1h36.3z"/><path id="XMLID_975_" fill="none" stroke="#45413c" stroke-linecap="round" stroke-linejoin="round" stroke-miterlimit="10" d="M5.1 12.6c-.1.3-.1.7.1.9.1.3.5.5.8.5h36.9c.3 0 .7-.2.8-.5.2-.3.2-.6.1-.9-.7-1.6-1.6-3.4-2.6-4.7-.2-.3-.5-.4-.8-.4h-32c-.3 0-.6.2-.8.4-.9 1.3-1.8 3.1-2.5 4.7z"/></g></g></svg>