<svg xmlns="http://www.w3.org/2000/svg" viewBox="0 0 48 48"><symbol id="New_Symbol_14" viewBox="-6.5 -6.5 13 13"><path fill="#ffd4c3" stroke="#504b46" stroke-linecap="round" stroke-linejoin="round" stroke-miterlimit="10" d="M0-6c2.2 0 4.1 1.5 4.7 3.5C6.3-2.5 6.4 0 5 0v1c0 2.8-2.2 5-5 5s-5-2.2-5-5V0c-1.4 0-1.3-2.5.2-2.5C-4.1-4.5-2.2-6 0-6z"/><circle cx="-1.6" cy="-.1" r=".1" fill="#ffc258"/><path fill="#4f4b45" d="M-1.6.5c-.3 0-.6-.3-.6-.6s.2-.7.6-.7c.3 0 .6.3.6.7s-.3.6-.6.6z"/><circle cx="1.6" cy="-.1" r=".1" fill="#ffc258"/><path fill="#4f4b45" d="M1.6.5C1.3.5 1 .2 1-.1s.3-.6.6-.6.6.3.6.6-.2.6-.6.6z"/><circle cx="-3" cy="-1.5" r=".5" fill="#fabfa5"/><circle cx="3" cy="-1.5" r=".5" fill="#fabfa5"/><path fill="none" stroke="#504b46" stroke-linecap="round" stroke-linejoin="round" stroke-miterlimit="10" d="M-1.2-3c.8-.5 1.7-.5 2.5 0"/></symbol><g id="Icons"><g id="XMLID_574_"><circle id="XMLID_1654_" cx="24" cy="26" r="15.5" fill="#ffe500"/><path id="XMLID_1653_" fill="#ebcb00" d="M37.1 17.7c-2.8-4.3-7.6-7.2-13.1-7.2s-10.3 2.9-13.1 7.2c.6.6 1.4.9 2.2.9.5 0 1-.1 1.5-.4 0 0 3.1-1.6 9.4-1.6 6.3 0 9.3 1.5 9.3 1.5 1.3.9 2.8.6 3.8-.4z"/><path id="XMLID_1650_" fill="#ebcb00" d="M24 10.5c-8.6 0-15.5 6.9-15.5 15.5s7 15.5 15.5 15.5S39.5 34.6 39.5 26 32.6 10.5 24 10.5zm0 28.7c-7.8 0-14.1-6.3-14.1-14.1S16.2 11 24 11s14.1 6.3 14.1 14.1c.1 7.8-6.3 14.1-14.1 14.1z"/><ellipse id="XMLID_1649_" cx="24" cy="45.9" fill="#45413c" opacity=".15" rx="12.4" ry="1.5"/><circle id="XMLID_1648_" cx="24" cy="26" r="15.5" fill="none" stroke="#45413c" stroke-linecap="round" stroke-linejoin="round" stroke-miterlimit="10"/><g id="XMLID_1642_"><g id="XMLID_1646_"><path id="XMLID_1647_" fill="#e5f8ff" d="M13.1 16.7c-1.1 0-2.1-.6-2.7-1.6-.8-1.5-.3-3.4 1.2-4.2.4-.2 4.4-2.3 12.4-2.3s11.9 2.1 12.4 2.3c1.5.8 2 2.7 1.2 4.2s-2.7 2-4.2 1.2c0 0-3.1-1.5-9.3-1.5-6.3 0-9.4 1.6-9.4 1.6-.5.2-1 .3-1.6.3z"/></g><path id="XMLID_1645_" fill="#fff" d="M11.7 12.9c.4-.2 4.4-2.3 12.4-2.3s11.9 2.1 12.4 2.3c.7.4 1.2 1 1.4 1.7.5-1.4-.1-3-1.4-3.7-.6-.2-4.5-2.3-12.5-2.3s-11.9 2.1-12.4 2.3c-1.3.7-1.9 2.3-1.4 3.7.3-.7.7-1.3 1.5-1.7z"/><g id="XMLID_1643_"><path id="XMLID_1644_" fill="none" stroke="#45413c" stroke-miterlimit="10" d="M13.1 16.7c-1.1 0-2.1-.6-2.7-1.6-.8-1.5-.3-3.4 1.2-4.2.4-.2 4.4-2.3 12.4-2.3s11.9 2.1 12.4 2.3c1.5.8 2 2.7 1.2 4.2s-2.7 2-4.2 1.2c0 0-3.1-1.5-9.3-1.5-6.3 0-9.4 1.6-9.4 1.6-.5.2-1 .3-1.6.3z"/></g></g><ellipse id="XMLID_1641_" cx="33.3" cy="29.9" fill="#ffaa54" rx="1.9" ry="1.2"/><ellipse id="XMLID_1640_" cx="14.7" cy="29.9" fill="#ffaa54" rx="1.9" ry="1.2"/><circle id="XMLID_1639_" cx="15.9" cy="25.3" r=".8" fill="#45413c" stroke="#45413c" stroke-linecap="round" stroke-linejoin="round" stroke-miterlimit="10"/><circle id="XMLID_1638_" cx="32.2" cy="25.3" r=".8" fill="#45413c" stroke="#45413c" stroke-linecap="round" stroke-linejoin="round" stroke-miterlimit="10"/><path id="XMLID_1637_" fill="none" stroke="#45413c" stroke-linecap="round" stroke-linejoin="round" stroke-miterlimit="10" d="M15.6 22.7c.8-.1 1.7-.4 2.6-.9.9-.4 1.6-1 2.2-1.6"/><path id="XMLID_1636_" fill="none" stroke="#45413c" stroke-linecap="round" stroke-linejoin="round" stroke-miterlimit="10" d="M32.4 22.7c-.8-.1-1.7-.4-2.6-.9-.9-.4-1.6-1-2.2-1.6"/><path id="XMLID_1635_" fill="#fff" d="M27.7 46.9c-1.2.3-2.5-.4-2.9-1.6L22 34.8c.6-.2 1.3-.3 2-.3 1 0 2 .2 2.9.6l2.4 8.8c.4 1.3-.3 2.6-1.6 3z"/><g id="XMLID_1633_"><path id="XMLID_1634_" fill="#e5f8ff" d="M29.4 44l-.2-.7c-.1 1-.8 1.8-1.8 2.1-1 .3-2.1-.1-2.7-.9l.2.7c.3 1.2 1.6 2 2.9 1.6 1.2-.3 1.9-1.6 1.6-2.8z"/></g><path id="XMLID_1632_" fill="none" stroke="#45413c" stroke-linecap="round" stroke-linejoin="round" stroke-miterlimit="10" d="M27.7 46.9c-1.2.3-2.5-.4-2.9-1.6L22 34.8c.6-.2 1.3-.3 2-.3 1 0 2 .2 2.9.6l2.4 8.8c.4 1.3-.3 2.6-1.6 3z"/><path id="XMLID_1631_" fill="none" stroke="#ff6242" stroke-linecap="round" stroke-linejoin="round" stroke-miterlimit="10" d="M27.3 43.8l-2.6-9.2"/><path id="XMLID_1630_" fill="none" stroke="#45413c" stroke-linecap="round" stroke-linejoin="round" stroke-miterlimit="10" d="M23.8 41.5l1.5-.4"/><path id="XMLID_1629_" fill="none" stroke="#45413c" stroke-linecap="round" stroke-linejoin="round" stroke-miterlimit="10" d="M24.5 43.7l1.5-.4"/><path id="XMLID_1628_" fill="none" stroke="#45413c" stroke-linecap="round" stroke-linejoin="round" stroke-miterlimit="10" d="M23.2 39.3l1.5-.4"/><path id="XMLID_1627_" fill="none" stroke="#45413c" stroke-linecap="round" stroke-linejoin="round" stroke-miterlimit="10" d="M22.6 37l1.5-.4"/><path id="XMLID_1626_" fill="none" stroke="#45413c" stroke-linecap="round" stroke-miterlimit="10" d="M20.1 35.7c1.1-.7 2.4-1.2 3.9-1.2 1.4 0 2.8.4 3.9 1.2"/><path id="XMLID_1625_" fill="none" stroke="#45413c" stroke-linecap="round" stroke-linejoin="round" stroke-miterlimit="10" d="M16.5 1.7c-2.4 2.2 2.6 3.2-.4 5.6"/><path id="XMLID_1624_" fill="none" stroke="#45413c" stroke-linecap="round" stroke-linejoin="round" stroke-miterlimit="10" d="M30.8 1.7c-2.4 2.2 2.6 3.2-.4 5.6"/><path id="XMLID_1623_" fill="none" stroke="#45413c" stroke-linecap="round" stroke-linejoin="round" stroke-miterlimit="10" d="M23.7.6c-2.4 2.2 2.6 3.2-.4 5.6"/></g></g></svg>