<svg xmlns="http://www.w3.org/2000/svg" viewBox="0 0 48 48"><symbol id="New_Symbol_14" viewBox="-6.5 -6.5 13 13"><path fill="#ffd4c3" stroke="#504b46" stroke-linecap="round" stroke-linejoin="round" stroke-miterlimit="10" d="M0-6c2.2 0 4.1 1.5 4.7 3.5C6.3-2.5 6.4 0 5 0v1c0 2.8-2.2 5-5 5s-5-2.2-5-5V0c-1.4 0-1.3-2.5.2-2.5C-4.1-4.5-2.2-6 0-6z"/><circle cx="-1.6" cy="-.1" r=".1" fill="#ffc258"/><path fill="#4f4b45" d="M-1.6.5c-.3 0-.6-.3-.6-.6s.2-.7.6-.7c.3 0 .6.3.6.7s-.3.6-.6.6z"/><circle cx="1.6" cy="-.1" r=".1" fill="#ffc258"/><path fill="#4f4b45" d="M1.6.5C1.3.5 1 .2 1-.1s.3-.6.6-.6.6.3.6.6-.2.6-.6.6z"/><circle cx="-3" cy="-1.5" r=".5" fill="#fabfa5"/><circle cx="3" cy="-1.5" r=".5" fill="#fabfa5"/><path fill="none" stroke="#504b46" stroke-linecap="round" stroke-linejoin="round" stroke-miterlimit="10" d="M-1.2-3c.8-.5 1.7-.5 2.5 0"/></symbol><g id="Icons"><g id="XMLID_737_"><ellipse id="XMLID_2425_" cx="24" cy="45.1" fill="#45413c" opacity=".15" rx="16" ry="1.5"/><path id="XMLID_47_" fill="#00b8f0" stroke="#45413c" stroke-linecap="round" stroke-linejoin="round" stroke-miterlimit="10" d="M42.7 9.5c.5-.7.8-1.6.8-2.6 0-2.5-2-4.5-4.5-4.5-1 0-1.9.3-2.6.8-.3-1.1-1.2-1.8-2.4-1.8-1.4 0-2.5 1.1-2.5 2.5s1.1 2.5 2.5 2.5c.2 0 .4 0 .6-.1 0 .2-.1.4-.1.6 0 2.5 2 4.5 4.5 4.5.2 0 .4 0 .6-.1 0 .2-.1.4-.1.6 0 1.4 1.1 2.5 2.5 2.5s2.5-1.1 2.5-2.5c0-1.2-.8-2.1-1.8-2.4z"/><path id="XMLID_46_" fill="#00b8f0" stroke="#45413c" stroke-linecap="round" stroke-linejoin="round" stroke-miterlimit="10" d="M5.3 9.5c-.5-.7-.8-1.6-.8-2.6 0-2.5 2-4.5 4.5-4.5 1 0 1.9.3 2.6.8.3-1.1 1.2-1.8 2.4-1.8 1.4 0 2.5 1.1 2.5 2.5S15.4 6.4 14 6.4c-.2 0-.4 0-.6-.1 0 .2.1.4.1.6 0 2.5-2 4.5-4.5 4.5-.2 0-.4 0-.6-.1 0 .2.1.4.1.6 0 1.4-1.1 2.5-2.5 2.5s-2.5-1.1-2.5-2.5c0-1.2.8-2.1 1.8-2.4z"/><circle id="XMLID_45_" cx="24" cy="22.4" r="20" fill="#fffce5"/><path id="XMLID_1061_" fill="#fffacf" d="M24 2.4c-11 0-20 9-20 20s9 20 20 20 20-9 20-20-9-20-20-20zm0 37c-10.1 0-18.2-8.2-18.2-18.3-.1-10 8.1-18.2 18.2-18.2s18.2 8.2 18.2 18.2c0 10.1-8.1 18.3-18.2 18.3z"/><ellipse id="XMLID_1060_" cx="24" cy="6.4" fill="#fff" rx="6" ry="1.5"/><circle id="XMLID_1059_" cx="24" cy="22.4" r="20" fill="none" stroke="#45413c" stroke-linecap="round" stroke-linejoin="round" stroke-miterlimit="10"/><ellipse id="XMLID_1058_" cx="36.5" cy="27.4" fill="#ff87af" rx="2.5" ry="1.5"/><ellipse id="XMLID_1057_" cx="11.5" cy="27.4" fill="#ff87af" rx="2.5" ry="1.5"/><ellipse id="XMLID_44_" cx="24" cy="25.9" fill="#ff6242" rx="4.5" ry="3.5"/><path id="XMLID_43_" fill="#ff866e" d="M24 24.4c2 0 3.7 1.1 4.3 2.5.1-.3.2-.6.2-1 0-1.9-2-3.5-4.5-3.5s-4.5 1.6-4.5 3.5c0 .4.1.7.2 1 .6-1.5 2.3-2.5 4.3-2.5z"/><ellipse id="XMLID_1010_" cx="24" cy="25.9" fill="none" stroke="#45413c" stroke-linecap="round" stroke-linejoin="round" stroke-miterlimit="10" rx="4.5" ry="3.5"/><path id="XMLID_1009_" fill="#ff6242" d="M24 37.9c-4.8 0-7.9-2.5-9-4-.8-1.1-.6-2.7.6-3.5 1.1-.8 2.7-.6 3.5.5.1.1 1.6 2 5 2s4.9-1.9 5-2c.8-1.1 2.4-1.3 3.5-.5s1.3 2.3.5 3.4c-1.2 1.6-4.3 4.1-9.1 4.1z"/><path id="XMLID_42_" fill="#ff866e" d="M14.6 32.1c1.2-.9 2.9-.6 3.8.6.1.1 1.8 2.2 5.5 2.2 3.8 0 5.5-2.1 5.5-2.2.9-1.2 2.6-1.4 3.9-.5l.1.1c-.1-.7-.4-1.4-1-1.8-1.1-.8-2.6-.6-3.5.5-.1.1-1.6 2-5 2s-4.9-1.9-5-2c-.8-1.1-2.4-1.3-3.5-.5-.6.4-1 1.1-1 1.8l.2-.2z"/><path id="XMLID_1007_" fill="none" stroke="#45413c" stroke-linecap="round" stroke-linejoin="round" stroke-miterlimit="10" d="M24 37.9c-4.8 0-7.9-2.5-9-4-.8-1.1-.6-2.7.6-3.5 1.1-.8 2.7-.6 3.5.5.1.1 1.6 2 5 2s4.9-1.9 5-2c.8-1.1 2.4-1.3 3.5-.5s1.3 2.3.5 3.4c-1.2 1.6-4.3 4.1-9.1 4.1z"/><path id="XMLID_1006_" fill="none" stroke="#45413c" stroke-linecap="round" stroke-linejoin="round" stroke-miterlimit="10" d="M17.5 32.9s1.9 2.5 6.5 2.5 6.5-2.5 6.5-2.5"/><ellipse id="XMLID_1005_" cx="33.5" cy="20.4" fill="#4acfff" stroke="#45413c" stroke-linecap="round" stroke-linejoin="round" stroke-miterlimit="10" rx="3.5" ry="4"/><ellipse id="XMLID_1004_" cx="14.5" cy="20.4" fill="#4acfff" stroke="#45413c" stroke-linecap="round" stroke-linejoin="round" stroke-miterlimit="10" rx="3.5" ry="4"/><circle id="XMLID_41_" cx="14.5" cy="20.4" r="1" fill="#45413c" stroke="#45413c" stroke-linecap="round" stroke-linejoin="round" stroke-miterlimit="10"/><circle id="XMLID_40_" cx="33.5" cy="20.4" r="1" fill="#45413c" stroke="#45413c" stroke-linecap="round" stroke-linejoin="round" stroke-miterlimit="10"/><path id="XMLID_39_" fill="none" stroke="#45413c" stroke-linecap="round" stroke-linejoin="round" stroke-miterlimit="10" d="M30 13.9s.9-2.5 3.5-2.5 3.5 2.5 3.5 2.5"/><path id="XMLID_38_" fill="none" stroke="#45413c" stroke-linecap="round" stroke-linejoin="round" stroke-miterlimit="10" d="M11 13.9s.9-2.5 3.5-2.5 3.5 2.5 3.5 2.5"/></g></g></svg>