<svg xmlns="http://www.w3.org/2000/svg" viewBox="0 0 48 48"><symbol id="New_Symbol_14" viewBox="-6.5 -6.5 13 13"><path fill="#ffd4c3" stroke="#504b46" stroke-linecap="round" stroke-linejoin="round" stroke-miterlimit="10" d="M0-6c2.2 0 4.1 1.5 4.7 3.5C6.3-2.5 6.4 0 5 0v1c0 2.8-2.2 5-5 5s-5-2.2-5-5V0c-1.4 0-1.3-2.5.2-2.5C-4.1-4.5-2.2-6 0-6z"/><circle cx="-1.6" cy="-.1" r=".1" fill="#ffc258"/><path fill="#4f4b45" d="M-1.6.5c-.3 0-.6-.3-.6-.6s.2-.7.6-.7c.3 0 .6.3.6.7s-.3.6-.6.6z"/><circle cx="1.6" cy="-.1" r=".1" fill="#ffc258"/><path fill="#4f4b45" d="M1.6.5C1.3.5 1 .2 1-.1s.3-.6.6-.6.6.3.6.6-.2.6-.6.6z"/><circle cx="-3" cy="-1.5" r=".5" fill="#fabfa5"/><circle cx="3" cy="-1.5" r=".5" fill="#fabfa5"/><path fill="none" stroke="#504b46" stroke-linecap="round" stroke-linejoin="round" stroke-miterlimit="10" d="M-1.2-3c.8-.5 1.7-.5 2.5 0"/></symbol><g id="Icons"><g id="XMLID_722_"><circle id="XMLID_1050_" cx="24" cy="20" r="16.1" fill="#ffe500" transform="rotate(-15.088 24.033 20.044)"/><path id="XMLID_1047_" fill="#ebcb00" d="M19.8 4.5C11.3 6.9 6.2 15.7 8.5 24.2s11.1 13.6 19.7 11.3c8.6-2.3 13.6-11.1 11.3-19.7C37.2 7.3 28.4 2.2 19.8 4.5zm7.8 28.7c-7.8 2.1-15.8-2.5-18-10.3C7.5 15.1 12.1 7 20 4.9c7.8-2.1 15.8 2.5 18 10.3 2 7.9-2.6 15.9-10.4 18z"/><ellipse id="XMLID_1046_" cx="20.7" cy="7.6" fill="#fff48c" rx="4.8" ry="1.2" transform="rotate(-15.088 20.688 7.644)"/><ellipse id="XMLID_1045_" cx="24" cy="42.5" fill="#45413c" opacity=".15" rx="12.8" ry="1.5"/><circle id="XMLID_1044_" cx="24" cy="20" r="16.1" fill="none" stroke="#45413c" stroke-linecap="round" stroke-linejoin="round" stroke-miterlimit="10" transform="rotate(-15.088 24.033 20.044)"/><ellipse id="XMLID_1043_" cx="34.4" cy="21.4" fill="#ffaa54" rx="2" ry="1.2" transform="rotate(-15.088 34.378 21.411)"/><ellipse id="XMLID_1042_" cx="15.8" cy="26.4" fill="#ffaa54" rx="2" ry="1.2" transform="rotate(-15.094 15.77 26.42)"/><g id="XMLID_1039_"><path id="XMLID_1041_" fill="#ffb0ca" stroke="#45413c" stroke-linecap="round" stroke-linejoin="round" stroke-miterlimit="10" d="M21 27.5c-.2.1-.4.2-.5.4-.1.2-.1.4 0 .6 1.1 2.5 3.9 3.9 6.7 3.1 2.7-.7 4.5-3.3 4.2-6 0-.2-.1-.4-.3-.5-.2-.1-.4-.2-.6-.1L21 27.5z"/><path id="XMLID_1040_" fill="#ff87af" stroke="#45413c" stroke-linecap="round" stroke-linejoin="round" stroke-miterlimit="10" d="M30.9 28.4c-1.2-.3-2.9-.3-4.6.1-1.7.5-3.1 1.3-4 2.2 1.3 1 3.1 1.4 4.9.9 1.7-.4 3.1-1.6 3.7-3.2z"/></g><g id="XMLID_1026_"><g id="XMLID_1035_"><path id="XMLID_1038_" fill="#00b8f0" d="M46.9 22c-2.4 4.2-6.7-1.8-10.1-1.6 3.7-4.6 12.6-2.6 10.1 1.6z"/><path id="XMLID_1037_" fill="#4acfff" d="M36.8 20.5h.2c4.1-2.9 10.7-.9 8.7 2.8.4-.2.8-.6 1.1-1.2 2.6-4.3-6.3-6.3-10-1.6z"/><path id="XMLID_1036_" fill="none" stroke="#45413c" stroke-linecap="round" stroke-linejoin="round" stroke-miterlimit="10" d="M46.9 22c-2.4 4.2-6.7-1.8-10.1-1.6 3.7-4.6 12.6-2.6 10.1 1.6z"/></g><g id="XMLID_1031_"><path id="XMLID_1034_" fill="#00b8f0" d="M40.5 11c1.8 2.6-2.9 3.5-3.7 5.6-1.8-3.5 1.9-8.2 3.7-5.6z"/><path id="XMLID_1033_" fill="#4acfff" d="M36.8 16.6c0-.1 0-.1.1-.1-.6-3.2 2.4-6.6 4.1-4.4 0-.3-.2-.6-.4-1-1.9-2.7-5.6 2-3.8 5.5z"/><path id="XMLID_1032_" fill="none" stroke="#45413c" stroke-linecap="round" stroke-linejoin="round" stroke-miterlimit="10" d="M40.5 11c1.8 2.6-2.9 3.5-3.7 5.6-1.8-3.5 1.9-8.2 3.7-5.6z"/></g><g id="XMLID_1027_"><path id="XMLID_1030_" fill="#00b8f0" d="M47.2 13.9c-.3 2.2-3.2.4-4.6 1.1.8-2.6 4.9-3.3 4.6-1.1z"/><path id="XMLID_1029_" fill="#4acfff" d="M42.6 15h.1c1.2-1.9 4.4-2.3 4.2-.3.1-.2.2-.4.3-.7.3-2.3-3.8-1.6-4.6 1z"/><path id="XMLID_1028_" fill="none" stroke="#45413c" stroke-linecap="round" stroke-linejoin="round" stroke-miterlimit="10" d="M47.2 13.9c-.3 2.2-3.2.4-4.6 1.1.8-2.6 4.9-3.3 4.6-1.1z"/></g></g><g id="XMLID_1013_"><g id="XMLID_1022_"><path id="XMLID_1025_" fill="#00b8f0" d="M5.2 33.3c4.2 2.4 4.9-4.9 7.9-6.4-5.5-2.2-12.1 3.9-7.9 6.4z"/><path id="XMLID_1024_" fill="#4acfff" d="M13.2 26.8c-.1 0-.1.1-.2.1-5-.4-9.7 4.6-6.2 6.8-.5 0-1-.1-1.6-.5-4.2-2.4 2.4-8.5 8-6.4z"/><path id="XMLID_1023_" fill="none" stroke="#45413c" stroke-linecap="round" stroke-linejoin="round" stroke-miterlimit="10" d="M5.2 33.3c4.2 2.4 4.9-4.9 7.9-6.4-5.5-2.2-12.1 3.9-7.9 6.4z"/></g><g id="XMLID_1018_"><path id="XMLID_1021_" fill="#00b8f0" d="M5.2 20.5c-.3 3.2 4.3 1.5 6 3-.2-3.9-5.7-6.2-6-3z"/><path id="XMLID_1020_" fill="#4acfff" d="M11.3 23.5l-.1-.1c-1.1-3.1-5.4-4.5-5.7-1.8-.1-.3-.2-.6-.1-1.1.1-3.2 5.6-.9 5.9 3z"/><path id="XMLID_1019_" fill="none" stroke="#45413c" stroke-linecap="round" stroke-linejoin="round" stroke-miterlimit="10" d="M5.2 20.5c-.3 3.2 4.3 1.5 6 3-.2-3.9-5.7-6.2-6-3z"/></g><g id="XMLID_1014_"><path id="XMLID_1017_" fill="#00b8f0" d="M.9 26.4c1.4 1.8 2.9-1.2 4.5-1.4-1.9-1.9-5.9-.4-4.5 1.4z"/><path id="XMLID_1016_" fill="#4acfff" d="M5.5 25h-.1c-2.1-1-5 .3-3.8 1.8-.2-.1-.4-.2-.6-.5-1.5-1.7 2.5-3.2 4.5-1.3z"/><path id="XMLID_1015_" fill="none" stroke="#45413c" stroke-linecap="round" stroke-linejoin="round" stroke-miterlimit="10" d="M.9 26.4c1.4 1.8 2.9-1.2 4.5-1.4-1.9-1.9-5.9-.4-4.5 1.4z"/></g></g><path id="XMLID_1012_" fill="none" stroke="#45413c" stroke-linecap="round" stroke-linejoin="round" stroke-miterlimit="10" d="M32.8 14.8l-2.2 1.9c-.5.4-.3 1.3.4 1.4l2.8.6"/><path id="XMLID_1011_" fill="none" stroke="#45413c" stroke-linecap="round" stroke-linejoin="round" stroke-miterlimit="10" d="M13.8 19.9l2.8.6c.6.1.9.9.4 1.4l-2.2 1.9"/></g></g></svg>