<svg xmlns="http://www.w3.org/2000/svg" viewBox="0 0 48 48"><symbol id="New_Symbol_14" viewBox="-6.5 -6.5 13 13"><path fill="#ffd4c3" stroke="#504b46" stroke-linecap="round" stroke-linejoin="round" stroke-miterlimit="10" d="M0-6c2.2 0 4.1 1.5 4.7 3.5C6.3-2.5 6.4 0 5 0v1c0 2.8-2.2 5-5 5s-5-2.2-5-5V0c-1.4 0-1.3-2.5.2-2.5C-4.1-4.5-2.2-6 0-6z"/><circle cx="-1.6" cy="-.1" r=".1" fill="#ffc258"/><path fill="#4f4b45" d="M-1.6.5c-.3 0-.6-.3-.6-.6s.2-.7.6-.7c.3 0 .6.3.6.7s-.3.6-.6.6z"/><circle cx="1.6" cy="-.1" r=".1" fill="#ffc258"/><path fill="#4f4b45" d="M1.6.5C1.3.5 1 .2 1-.1s.3-.6.6-.6.6.3.6.6-.2.6-.6.6z"/><circle cx="-3" cy="-1.5" r=".5" fill="#fabfa5"/><circle cx="3" cy="-1.5" r=".5" fill="#fabfa5"/><path fill="none" stroke="#504b46" stroke-linecap="round" stroke-linejoin="round" stroke-miterlimit="10" d="M-1.2-3c.8-.5 1.7-.5 2.5 0"/></symbol><g id="Icons"><g id="XMLID_646_"><circle id="XMLID_7255_" cx="21.5" cy="21.3" r="20" fill="#ffe500"/><path id="XMLID_7252_" fill="#ebcb00" d="M21.5 1.3c-11 0-20 9-20 20s9 20 20 20 20-9 20-20-9-20-20-20zm0 37c-10.1 0-18.2-8.2-18.2-18.2C3.3 10 11.4 1.8 21.5 1.8S39.8 10 39.8 20.1c0 10-8.2 18.2-18.3 18.2z"/><ellipse id="XMLID_7251_" cx="21.5" cy="5.3" fill="#fff48c" rx="6" ry="1.5"/><path id="XMLID_7250_" fill="#ebcb00" d="M39.4 30.2l-.4-1.3c-.8-2.4-3-3.7-5.4-3.2-1.7.4-3.1 1.6-3.9 3.3-.9 1.9-.9 4.1-.2 5.9l1.7 3.9c3.5-2 6.4-5 8.2-8.6z"/><ellipse id="XMLID_7249_" cx="21.5" cy="45.2" fill="#45413c" opacity=".15" rx="16" ry="1.5"/><circle id="XMLID_7248_" cx="21.5" cy="21.3" r="20" fill="none" stroke="#45413c" stroke-linecap="round" stroke-linejoin="round" stroke-miterlimit="10"/><g id="XMLID_7245_"><path id="XMLID_7247_" fill="none" stroke="#45413c" stroke-linecap="round" stroke-miterlimit="10" d="M21.5 27.6c.3-.2.6-.3 1-.3 1.1 0 2 .9 2 2s-.9 2-2 2"/><path id="XMLID_7246_" fill="none" stroke="#45413c" stroke-linecap="round" stroke-miterlimit="10" d="M22.5 31.3c1.1 0 2 .9 2 2s-.9 2-2 2c-.4 0-.7-.1-1-.3"/></g><g id="XMLID_7241_"><path id="XMLID_7244_" fill="#ff6242" d="M34.4 39.8l-3.4-8c-.6-1.4-.6-3.2.1-4.7.6-1.4 1.8-2.4 3.1-2.7 1.9-.4 3.7.6 4.3 2.6l.6 2.1 2-.9c1.9-.9 3.9-.2 4.9 1.5.7 1.2.7 2.8.1 4.1-.7 1.5-2 2.7-3.4 3.2l-8.3 2.8z"/><path id="XMLID_7243_" fill="#ff866e" d="M32.5 28.2c1.9-.4 3.7.6 4.3 2.6l.6 2.1 2-.9c1.8-.8 3.8-.2 4.8 1.5.4.6.5 1.4.5 2.2.5-.5 1-1.1 1.3-1.8.6-1.4.6-2.9-.1-4.1-1-1.7-3-2.4-4.8-1.5l-2 .9-.5-2.2c-.6-1.9-2.4-3-4.3-2.6-1.4.3-2.5 1.3-3.1 2.7-.3.7-.5 1.4-.5 2.2.4-.5 1.1-.9 1.8-1.1z"/><path id="XMLID_7242_" fill="none" stroke="#45413c" stroke-linecap="round" stroke-linejoin="round" stroke-miterlimit="10" d="M34.4 39.8l-3.4-8c-.6-1.4-.6-3.2.1-4.7.6-1.4 1.8-2.4 3.1-2.7 1.9-.4 3.7.6 4.3 2.6l.6 2.1 2-.9c1.9-.9 3.9-.2 4.9 1.5.7 1.2.7 2.8.1 4.1-.7 1.5-2 2.7-3.4 3.2l-8.3 2.8z"/></g><ellipse id="XMLID_7240_" cx="9.5" cy="26.3" fill="#ffaa54" rx="2.5" ry="1.5"/><path id="XMLID_7239_" fill="none" stroke="#45413c" stroke-linecap="round" stroke-linejoin="round" stroke-miterlimit="10" d="M35.5 20.3c0 1-.8 1.8-1.8 1.8s-1.7-.8-1.7-1.8"/><path id="XMLID_7238_" fill="none" stroke="#45413c" stroke-linecap="round" stroke-linejoin="round" stroke-miterlimit="10" d="M11 20.3c0 1-.8 1.8-1.8 1.8s-1.8-.8-1.8-1.8"/></g></g></svg>