<svg xmlns="http://www.w3.org/2000/svg" viewBox="0 0 48 48"><symbol id="New_Symbol_14" viewBox="-6.5 -6.5 13 13"><path fill="#ffd4c3" stroke="#504b46" stroke-linecap="round" stroke-linejoin="round" stroke-miterlimit="10" d="M0-6c2.2 0 4.1 1.5 4.7 3.5C6.3-2.5 6.4 0 5 0v1c0 2.8-2.2 5-5 5s-5-2.2-5-5V0c-1.4 0-1.3-2.5.2-2.5C-4.1-4.5-2.2-6 0-6z"/><circle cx="-1.6" cy="-.1" r=".1" fill="#ffc258"/><path fill="#4f4b45" d="M-1.6.5c-.3 0-.6-.3-.6-.6s.2-.7.6-.7c.3 0 .6.3.6.7s-.3.6-.6.6z"/><circle cx="1.6" cy="-.1" r=".1" fill="#ffc258"/><path fill="#4f4b45" d="M1.6.5C1.3.5 1 .2 1-.1s.3-.6.6-.6.6.3.6.6-.2.6-.6.6z"/><circle cx="-3" cy="-1.5" r=".5" fill="#fabfa5"/><circle cx="3" cy="-1.5" r=".5" fill="#fabfa5"/><path fill="none" stroke="#504b46" stroke-linecap="round" stroke-linejoin="round" stroke-miterlimit="10" d="M-1.2-3c.8-.5 1.7-.5 2.5 0"/></symbol><g id="Icons"><g id="XMLID_430_"><circle id="XMLID_6991_" cx="24" cy="21" r="20" fill="#ffe500"/><path id="XMLID_6988_" fill="#ebcb00" d="M24 1C13 1 4 10 4 21s9 20 20 20 20-9 20-20S35 1 24 1zm0 37C13.9 38 5.8 29.9 5.8 19.8S13.9 1.5 24 1.5s18.2 8.2 18.2 18.2C42.2 29.9 34.1 38 24 38z"/><ellipse id="XMLID_6987_" cx="24" cy="5" fill="#fff48c" rx="6" ry="1.5"/><circle id="XMLID_6986_" cx="24" cy="21" r="20" fill="none" stroke="#45413c" stroke-linecap="round" stroke-linejoin="round" stroke-miterlimit="10"/><ellipse id="XMLID_6985_" cx="13.1" cy="22.8" fill="#ffaa54" rx="2.5" ry="1.5"/><ellipse id="XMLID_6984_" cx="34.9" cy="22.8" fill="#ffaa54" rx="2.5" ry="1.5"/><path id="XMLID_6983_" fill="#ffb0ca" stroke="#45413c" stroke-linecap="round" stroke-linejoin="round" stroke-miterlimit="10" d="M15.7 27.5c-.3 0-.6.1-.7.3-.2.2-.3.5-.2.8.6 4.6 4.5 8.2 9.3 8.2 4.8 0 8.7-3.6 9.3-8.2 0-.3-.1-.6-.2-.8-.2-.2-.5-.3-.7-.3H15.7z"/><path id="XMLID_6982_" fill="#ff87af" stroke="#45413c" stroke-linecap="round" stroke-linejoin="round" stroke-miterlimit="10" d="M31.4 33.3c-1.8-1.1-4.4-1.7-7.4-1.7s-5.5.7-7.4 1.7c1.7 2.2 4.4 3.6 7.4 3.6s5.6-1.4 7.4-3.6z"/><path id="XMLID_6981_" fill="#4aeff7" stroke="#45413c" stroke-linecap="round" stroke-linejoin="round" stroke-miterlimit="10" d="M31.5 31.8c.2-.4.8-.3.8.2v9.2c0 .9-.7 1.6-1.6 1.6-.9 0-1.6-.7-1.6-1.6v-4.9c0-.9.4-1.9 1-2.5.5-.6 1-1.2 1.4-2z"/><ellipse id="XMLID_6979_" cx="24" cy="45.5" fill="#45413c" opacity=".15" rx="16" ry="1.5"/><g id="XMLID_6975_"><path id="XMLID_6978_" fill="#ff6242" d="M29.1 19.7l-2.5-5.8c-.4-1.1-.4-2.3.1-3.4.4-1 1.3-1.7 2.3-2 1.4-.3 2.7.5 3.2 1.9l.5 1.5 1.4-.7c1.3-.6 2.8-.1 3.5 1.1.5.9.5 2 .1 3-.5 1.1-1.4 2-2.5 2.4l-6.1 2z"/><path id="XMLID_6977_" fill="#ff866e" d="M27.8 11.3c1.4-.3 2.7.5 3.2 1.9l.5 1.5 1.4-.7c1.3-.6 2.8-.1 3.5 1.1.3.5.4 1 .4 1.6.4-.4.7-.8.9-1.3.4-1 .4-2.1-.1-3-.7-1.3-2.2-1.7-3.5-1.1l-1.4.7-.5-1.5c-.4-1.5-1.8-2.3-3.2-2-1 .2-1.8 1-2.3 2-.2.5-.4 1.1-.4 1.6.5-.4 1-.7 1.5-.8z"/><path id="XMLID_6976_" fill="none" stroke="#45413c" stroke-linecap="round" stroke-linejoin="round" stroke-miterlimit="10" d="M29.1 19.7l-2.5-5.8c-.4-1.1-.4-2.3.1-3.4.4-1 1.3-1.7 2.3-2 1.4-.3 2.7.5 3.2 1.9l.5 1.5 1.4-.7c1.3-.6 2.8-.1 3.5 1.1.5.9.5 2 .1 3-.5 1.1-1.4 2-2.5 2.4l-6.1 2z"/></g><g id="XMLID_6971_"><path id="XMLID_6974_" fill="#ff6242" d="M18.3 19.9l-8.9-3.8c-1.6-.7-2.9-2.1-3.6-3.9-.6-1.6-.4-3.3.5-4.6 1.2-1.8 3.5-2.4 5.5-1.3l2.1 1.2.9-2.2c.9-2.1 3-3.1 5.1-2.5 1.5.5 2.7 1.7 3.3 3.3.6 1.8.5 3.7-.3 5.3l-4.6 8.5z"/><path id="XMLID_6973_" fill="#ff866e" d="M7.9 12c1.2-1.8 3.5-2.4 5.5-1.3l2.1 1.2.9-2.2c.9-2.1 3-3.1 5.1-2.5.8.2 1.5.7 2.1 1.3 0-.8-.1-1.7-.4-2.5-.6-1.6-1.8-2.8-3.3-3.3-2.1-.7-4.2.4-5.1 2.5l-.9 2.2-2.1-1.2c-2-1.1-4.3-.5-5.5 1.3-.9 1.3-1 3-.5 4.6.3.8.7 1.5 1.3 2.2.1-.8.3-1.6.8-2.3z"/><path id="XMLID_6972_" fill="none" stroke="#45413c" stroke-linecap="round" stroke-linejoin="round" stroke-miterlimit="10" d="M18.3 19.9l-8.9-3.8c-1.6-.7-2.9-2.1-3.6-3.9-.6-1.6-.4-3.3.5-4.6 1.2-1.8 3.5-2.4 5.5-1.3l2.1 1.2.9-2.2c.9-2.1 3-3.1 5.1-2.5 1.5.5 2.7 1.7 3.3 3.3.6 1.8.5 3.7-.3 5.3l-4.6 8.5z"/></g></g></g></svg>