<svg xmlns="http://www.w3.org/2000/svg" viewBox="0 0 48 48"><symbol id="New_Symbol_14" viewBox="-6.5 -6.5 13 13"><path fill="#ffd4c3" stroke="#504b46" stroke-linecap="round" stroke-linejoin="round" stroke-miterlimit="10" d="M0-6c2.2 0 4.1 1.5 4.7 3.5C6.3-2.5 6.4 0 5 0v1c0 2.8-2.2 5-5 5s-5-2.2-5-5V0c-1.4 0-1.3-2.5.2-2.5C-4.1-4.5-2.2-6 0-6z"/><circle cx="-1.6" cy="-.1" r=".1" fill="#ffc258"/><path fill="#4f4b45" d="M-1.6.5c-.3 0-.6-.3-.6-.6s.2-.7.6-.7c.3 0 .6.3.6.7s-.3.6-.6.6z"/><circle cx="1.6" cy="-.1" r=".1" fill="#ffc258"/><path fill="#4f4b45" d="M1.6.5C1.3.5 1 .2 1-.1s.3-.6.6-.6.6.3.6.6-.2.6-.6.6z"/><circle cx="-3" cy="-1.5" r=".5" fill="#fabfa5"/><circle cx="3" cy="-1.5" r=".5" fill="#fabfa5"/><path fill="none" stroke="#504b46" stroke-linecap="round" stroke-linejoin="round" stroke-miterlimit="10" d="M-1.2-3c.8-.5 1.7-.5 2.5 0"/></symbol><g id="Icons"><g id="XMLID_727_"><path id="XMLID_1310_" fill="#adc4d9" d="M38.6 21.7c0-2.7-2.2-4.9-4.9-4.9H14.3c-2.7 0-4.9 2.2-4.9 4.9v17.9c0 2.7 2.2 4.9 4.9 4.9h19.5c2.7 0 4.9-2.2 4.9-4.9V21.7z"/><path id="XMLID_1309_" fill="#c0dceb" d="M33.7 16.9H14.3c-2.7 0-4.9 2.2-4.9 4.9v2.4c0-2.7 2.2-4.9 4.9-4.9h19.5c2.7 0 4.9 2.2 4.9 4.9v-2.4c-.1-2.8-2.3-4.9-5-4.9z"/><path id="XMLID_1308_" fill="#8ca4b8" d="M38.6 32.7H27.2c-1.8 0-3.2-1.5-3.2-3.2V16.9h9.7c2.7 0 4.9 2.2 4.9 4.9v10.9z"/><path id="XMLID_1307_" fill="#adc4d9" d="M38.4 20.3c-.6-2-2.5-3.4-4.7-3.4H24v2.4h9.7c2.7 0 4.9 2.2 4.9 4.9v-2.4c0-.6-.1-1.1-.2-1.5z"/><path id="XMLID_1306_" fill="none" stroke="#45413c" stroke-linecap="round" stroke-linejoin="round" stroke-miterlimit="10" d="M38.6 21.7c0-2.7-2.2-4.9-4.9-4.9H14.3c-2.7 0-4.9 2.2-4.9 4.9v17.9c0 2.7 2.2 4.9 4.9 4.9h19.5c2.7 0 4.9-2.2 4.9-4.9V21.7z"/><ellipse id="XMLID_1305_" cx="24" cy="45.5" fill="#45413c" opacity=".15" rx="15.5" ry="1.5"/><path id="XMLID_1304_" fill="#c0dceb" d="M33.7 44.1c0 .9-.7 1.6-1.6 1.6H15.9c-.9 0-1.6-.7-1.6-1.6v-5.7c0-.9.7-1.6 1.6-1.6h16.2c.9 0 1.6.7 1.6 1.6v5.7z"/><path id="XMLID_1303_" fill="#daedf7" d="M33.7 38.4c0-.9-.7-1.6-1.6-1.6H15.9c-.9 0-1.6.7-1.6 1.6v2c0-.9.7-1.6 1.6-1.6h16.2c.9 0 1.6.7 1.6 1.6v-2z"/><path id="XMLID_1302_" fill="none" stroke="#45413c" stroke-linecap="round" stroke-linejoin="round" stroke-miterlimit="10" d="M33.7 44.1c0 .9-.7 1.6-1.6 1.6H15.9c-.9 0-1.6-.7-1.6-1.6v-5.7c0-.9.7-1.6 1.6-1.6h16.2c.9 0 1.6.7 1.6 1.6v5.7z"/><circle id="XMLID_1301_" cx="16.3" cy="25" r="4.1" fill="#fff" stroke="#45413c" stroke-linecap="round" stroke-linejoin="round" stroke-miterlimit="10"/><circle id="XMLID_1300_" cx="16.3" cy="25" r="2" fill="#00dba8" stroke="#45413c" stroke-linecap="round" stroke-linejoin="round" stroke-miterlimit="10"/><circle id="XMLID_1299_" cx="31.7" cy="25" r="4.1" fill="#fff" stroke="#45413c" stroke-linecap="round" stroke-linejoin="round" stroke-miterlimit="10"/><circle id="XMLID_1298_" cx="31.7" cy="25" r="1.6" fill="#00b8f0" stroke="#45413c" stroke-linecap="round" stroke-linejoin="round" stroke-miterlimit="10"/><g id="XMLID_1297_"><circle id="XMLID_781_" cx="16.3" cy="38.4" r=".4" fill="#c0dceb"/><path id="XMLID_780_" fill="#45413c" d="M16.3 38c-.2 0-.4.2-.4.4s.2.4.4.4.4-.2.4-.4-.2-.4-.4-.4z"/></g><g id="XMLID_1296_"><circle id="XMLID_778_" cx="31.7" cy="38.4" r=".4" fill="#c0dceb"/><path id="XMLID_777_" fill="#45413c" d="M31.7 38c-.2 0-.4.2-.4.4s.2.4.4.4.4-.2.4-.4-.2-.4-.4-.4z"/></g><g id="XMLID_1295_"><circle id="XMLID_775_" cx="37" cy="30.3" r=".4" fill="#c0dceb"/><path id="XMLID_774_" fill="#45413c" d="M37 29.9c-.2 0-.4.2-.4.4s.2.4.4.4.4-.2.4-.4c0-.3-.2-.4-.4-.4z"/></g><g id="XMLID_1294_"><circle id="XMLID_754_" cx="26" cy="30.3" r=".4" fill="#c0dceb"/><path id="XMLID_753_" fill="#45413c" d="M26 29.9c-.2 0-.4.2-.4.4s.2.4.4.4.4-.2.4-.4c0-.3-.1-.4-.4-.4z"/></g><g id="XMLID_1293_"><circle id="XMLID_751_" cx="26" cy="18.5" r=".4" fill="#c0dceb"/><path id="XMLID_750_" fill="#45413c" d="M26 18.1c-.2 0-.4.2-.4.4s.2.4.4.4.4-.2.4-.4-.1-.4-.4-.4z"/></g><path id="XMLID_1292_" fill="none" stroke="#45413c" stroke-linecap="round" stroke-linejoin="round" stroke-miterlimit="10" d="M23.6 14v-2.4l4.5-1.2-5.3-4.9 7.7 2 1.3-2.6"/><circle id="XMLID_1291_" cx="32.5" cy="3" r="2" fill="#ff6242" stroke="#45413c" stroke-linecap="round" stroke-linejoin="round" stroke-miterlimit="10"/><path id="XMLID_1290_" fill="none" stroke="#45413c" stroke-linecap="round" stroke-linejoin="round" stroke-miterlimit="10" d="M38.6 32.7H27.2c-1.8 0-3.2-1.5-3.2-3.2V16.9h9.7c2.7 0 4.9 2.2 4.9 4.9v10.9z"/><path id="XMLID_1287_" fill="none" stroke="#45413c" stroke-linecap="round" stroke-linejoin="round" stroke-miterlimit="10" d="M31.7 22.1v1.3"/><path id="XMLID_1273_" fill="none" stroke="#45413c" stroke-linecap="round" stroke-linejoin="round" stroke-miterlimit="10" d="M34.6 25h-1.3"/><path id="XMLID_1272_" fill="none" stroke="#45413c" stroke-linecap="round" stroke-linejoin="round" stroke-miterlimit="10" d="M31.7 27.8v-1.2"/><path id="XMLID_1271_" fill="none" stroke="#45413c" stroke-linecap="round" stroke-linejoin="round" stroke-miterlimit="10" d="M28.9 25h1.2"/><path id="XMLID_1270_" fill="#adc4d9" stroke="#45413c" stroke-linecap="round" stroke-linejoin="round" stroke-miterlimit="10" d="M29.7 16.9H18.3c0-1.6 1.3-2.8 2.8-2.8h5.7c1.6-.1 2.9 1.2 2.9 2.8z"/><path id="XMLID_1269_" fill="#ffe500" stroke="#45413c" stroke-linecap="round" stroke-linejoin="round" stroke-miterlimit="10" d="M39.4 37.2h-.8v-13h.8c1.3 0 2.4 1.1 2.4 2.4v8.1c.1 1.4-1 2.5-2.4 2.5z"/><path id="XMLID_1268_" fill="#ffe500" stroke="#45413c" stroke-linecap="round" stroke-linejoin="round" stroke-miterlimit="10" d="M8.6 37.2h.8v-13h-.8c-1.3 0-2.4 1.1-2.4 2.4v8.1c-.1 1.4 1 2.5 2.4 2.5z"/></g></g></svg>