<svg xmlns="http://www.w3.org/2000/svg" viewBox="0 0 48 48"><symbol id="New_Symbol_14" viewBox="-6.5 -6.5 13 13"><path fill="#ffd4c3" stroke="#504b46" stroke-linecap="round" stroke-linejoin="round" stroke-miterlimit="10" d="M0-6c2.2 0 4.1 1.5 4.7 3.5C6.3-2.5 6.4 0 5 0v1c0 2.8-2.2 5-5 5s-5-2.2-5-5V0c-1.4 0-1.3-2.5.2-2.5C-4.1-4.5-2.2-6 0-6z"/><circle cx="-1.6" cy="-.1" r=".1" fill="#ffc258"/><path fill="#4f4b45" d="M-1.6.5c-.3 0-.6-.3-.6-.6s.2-.7.6-.7c.3 0 .6.3.6.7s-.3.6-.6.6z"/><circle cx="1.6" cy="-.1" r=".1" fill="#ffc258"/><path fill="#4f4b45" d="M1.6.5C1.3.5 1 .2 1-.1s.3-.6.6-.6.6.3.6.6-.2.6-.6.6z"/><circle cx="-3" cy="-1.5" r=".5" fill="#fabfa5"/><circle cx="3" cy="-1.5" r=".5" fill="#fabfa5"/><path fill="none" stroke="#504b46" stroke-linecap="round" stroke-linejoin="round" stroke-miterlimit="10" d="M-1.2-3c.8-.5 1.7-.5 2.5 0"/></symbol><g id="Icons"><g id="XMLID_410_"><ellipse id="XMLID_419_" cx="24" cy="45.4" fill="#45413c" opacity=".15" rx="12.4" ry="1.7"/><circle id="XMLID_406_" cx="24" cy="17.7" r="16.4" fill="#ffe500"/><path id="XMLID_403_" fill="#ebcb00" d="M24 1.3c-9 0-16.4 7.3-16.4 16.4S15 34.1 24 34.1s16.4-7.3 16.4-16.4S33 1.3 24 1.3zm0 30.3c-8.2 0-14.9-6.7-14.9-14.9 0-8.3 6.7-15 14.9-15s14.9 6.7 14.9 14.9c0 8.3-6.7 15-14.9 15z"/><ellipse id="XMLID_402_" cx="24" cy="4.6" fill="#fff48c" rx="4.9" ry="1.2"/><circle id="XMLID_401_" cx="24" cy="17.7" r="16.4" fill="none" stroke="#45413c" stroke-linecap="round" stroke-linejoin="round" stroke-miterlimit="10"/><ellipse id="XMLID_399_" cx="35" cy="21.8" fill="#ffaa54" rx="2" ry="1.2"/><ellipse id="XMLID_398_" cx="13" cy="21.8" fill="#ffaa54" rx="2" ry="1.2"/><g id="XMLID_396_"><path id="XMLID_397_" fill="#ffb0ca" stroke="#45413c" stroke-linecap="round" stroke-linejoin="round" stroke-miterlimit="10" d="M17.8 22.6c.4 6.6 4.2 9.3 5.6 10.1.3.2.8.2 1.1 0 1.4-.8 5.2-3.5 5.6-10.1 0-.6-.5-1.2-1.1-1.2H18.9c-.6 0-1.1.6-1.1 1.2z"/></g><g id="XMLID_392_"><path id="XMLID_395_" fill="#ff6242" d="M24 27.1c0-1.2 3.7-.9 3.7.4v5.3c0 2-1.6 3.7-3.7 3.7s-3.7-1.6-3.7-3.7v-5.3c0-1.3 3.7-1.6 3.7-.4z"/><path id="XMLID_394_" fill="#ff866e" d="M24 27.1c0-1.2-3.7-.9-3.7.4v1.6c0-1.3 7.4-1.3 7.4 0v-1.6c0-1.3-3.7-1.6-3.7-.4z"/><path id="XMLID_393_" fill="none" stroke="#45413c" stroke-linecap="round" stroke-linejoin="round" stroke-miterlimit="10" d="M24 27.1c0-1.2 3.7-.9 3.7.4v5.3c0 2-1.6 3.7-3.7 3.7s-3.7-1.6-3.7-3.7v-5.3c0-1.3 3.7-1.6 3.7-.4z"/></g><path id="XMLID_391_" fill="#4aeff7" stroke="#45413c" stroke-linecap="round" stroke-linejoin="round" stroke-miterlimit="10" d="M28.1 41.2c0 2.5-3.3 2.5-3.3 0 0-1.4 1.6-3.4 1.6-3.4s1.7 1.9 1.7 3.4z"/><g id="XMLID_380_"><g id="XMLID_384_"><path id="XMLID_390_" fill="#45413c" d="M30.2 2.6a9.04 9.04 0 0 0-5.4 8.3c0 5.1 4.1 9.2 9.2 9.2 2.5 0 4.7-1 6.3-2.5 0-6.8-4.1-12.6-10.1-15z" opacity=".15"/><g id="XMLID_385_"><circle id="XMLID_389_" cx="33.5" cy="9.4" r="8.5" fill="#fffacf"/><path id="XMLID_388_" fill="#ffe500" d="M33.5 16.3c-4.4 0-8-3.4-8.4-7.7v.8c0 4.7 3.8 8.5 8.5 8.5s8.5-3.8 8.5-8.5v-.8c-.5 4.3-4.2 7.7-8.6 7.7z"/><path id="XMLID_387_" fill="#fff" d="M33.5 3.6c4.2 0 7.7 3.1 8.4 7.2.1-.5.1-.9.1-1.4C42 4.7 38.2.9 33.5.9S25 4.7 25 9.4c0 .5 0 .9.1 1.3.7-4 4.2-7.1 8.4-7.1z"/><circle id="XMLID_386_" cx="33.5" cy="9.4" r="8.5" fill="none" stroke="#45413c" stroke-linejoin="round" stroke-miterlimit="10"/></g></g><g id="XMLID_381_"><path id="XMLID_383_" fill="none" stroke="#45413c" stroke-linecap="round" stroke-linejoin="round" stroke-miterlimit="10" d="M33.5 4.3v10.2"/><path id="XMLID_382_" fill="none" stroke="#45413c" stroke-linecap="round" stroke-linejoin="round" stroke-miterlimit="10" d="M31.5 11.4c0 1.1.9 2 2 2s2-.9 2-2-.9-2-2-2-2-.9-2-2 .9-2 2-2 2 .9 2 2"/></g></g><g id="XMLID_373_"><path id="XMLID_379_" fill="#45413c" d="M17.8 2.6C21 4 23.2 7.3 23.2 11c0 5.1-4.1 9.2-9.2 9.2-2.5 0-4.7-1-6.3-2.5 0-6.9 4.1-12.7 10.1-15.1z" opacity=".15"/><g id="XMLID_374_"><circle id="XMLID_378_" cx="14.5" cy="9.4" r="8.5" fill="#fffacf"/><path id="XMLID_377_" fill="#ffe500" d="M14.5 16.3c4.4 0 8-3.4 8.4-7.7v.8c0 4.7-3.8 8.5-8.5 8.5-4.6 0-8.4-3.8-8.4-8.5v-.8c.4 4.3 4.1 7.7 8.5 7.7z"/><path id="XMLID_376_" fill="#fff" d="M14.5 3.6c-4.2 0-7.7 3.1-8.4 7.2-.1-.5-.1-.9-.1-1.4C6 4.7 9.8.9 14.5.9S23 4.7 23 9.4c0 .5 0 .9-.1 1.3-.7-4-4.2-7.1-8.4-7.1z"/><circle id="XMLID_375_" cx="14.5" cy="9.4" r="8.5" fill="none" stroke="#45413c" stroke-linejoin="round" stroke-miterlimit="10"/></g></g><g id="XMLID_370_"><path id="XMLID_372_" fill="none" stroke="#45413c" stroke-linecap="round" stroke-linejoin="round" stroke-miterlimit="10" d="M14.6 4.3v10.2"/><path id="XMLID_371_" fill="none" stroke="#45413c" stroke-linecap="round" stroke-linejoin="round" stroke-miterlimit="10" d="M12.5 11.4c0 1.1.9 2 2 2s2-.9 2-2-.9-2-2-2-2-.9-2-2 .9-2 2-2 2 .9 2 2"/></g></g></g></svg>