<svg xmlns="http://www.w3.org/2000/svg" viewBox="0 0 48 48"><symbol id="New_Symbol_14" viewBox="-6.5 -6.5 13 13"><path fill="#ffd4c3" stroke="#504b46" stroke-linecap="round" stroke-linejoin="round" stroke-miterlimit="10" d="M0-6c2.2 0 4.1 1.5 4.7 3.5C6.3-2.5 6.4 0 5 0v1c0 2.8-2.2 5-5 5s-5-2.2-5-5V0c-1.4 0-1.3-2.5.2-2.5C-4.1-4.5-2.2-6 0-6z"/><circle cx="-1.6" cy="-.1" r=".1" fill="#ffc258"/><path fill="#4f4b45" d="M-1.6.5c-.3 0-.6-.3-.6-.6s.2-.7.6-.7c.3 0 .6.3.6.7s-.3.6-.6.6z"/><circle cx="1.6" cy="-.1" r=".1" fill="#ffc258"/><path fill="#4f4b45" d="M1.6.5C1.3.5 1 .2 1-.1s.3-.6.6-.6.6.3.6.6-.2.6-.6.6z"/><circle cx="-3" cy="-1.5" r=".5" fill="#fabfa5"/><circle cx="3" cy="-1.5" r=".5" fill="#fabfa5"/><path fill="none" stroke="#504b46" stroke-linecap="round" stroke-linejoin="round" stroke-miterlimit="10" d="M-1.2-3c.8-.5 1.7-.5 2.5 0"/></symbol><g id="Icons"><g id="XMLID_676_"><circle id="XMLID_876_" cx="20.4" cy="24.5" r="17.8" fill="#6dd627"/><path id="XMLID_873_" fill="#46b000" d="M20.4 6.7c-9.9 0-17.8 8-17.8 17.8s8 17.8 17.8 17.8 17.8-8 17.8-17.8S30.3 6.7 20.4 6.7zm0 33c-9 0-16.3-7.3-16.3-16.3S11.4 7.1 20.4 7.1s16.3 7.3 16.3 16.3-7.3 16.3-16.3 16.3z"/><ellipse id="XMLID_872_" cx="20" cy="9.8" fill="#9ceb60" rx="5.4" ry="1.3"/><circle id="XMLID_871_" cx="20.4" cy="24.5" r="17.8" fill="none" stroke="#45413c" stroke-linecap="round" stroke-linejoin="round" stroke-miterlimit="10"/><ellipse id="XMLID_870_" cx="20.4" cy="45.6" fill="#45413c" opacity=".15" rx="14.3" ry="1.5"/><path id="XMLID_869_" fill="none" stroke="#45413c" stroke-linecap="round" stroke-linejoin="round" stroke-miterlimit="10" d="M10.6 19.8c1-.1 2-.5 3-1s1.9-1.1 2.6-1.8"/><path id="XMLID_868_" fill="none" stroke="#45413c" stroke-linecap="round" stroke-linejoin="round" stroke-miterlimit="10" d="M30 19.8c-1-.1-2-.5-3-1s-1.9-1.1-2.6-1.8"/><ellipse id="XMLID_867_" cx="31.1" cy="29" fill="#fff48c" rx="2.2" ry="1.3"/><ellipse id="XMLID_866_" cx="9.7" cy="29" fill="#fff48c" rx="2.2" ry="1.3"/><g id="XMLID_863_"><path id="XMLID_865_" fill="none" stroke="#45413c" stroke-linecap="round" stroke-linejoin="round" stroke-miterlimit="10" d="M9.3 23.6h3.5"/><path id="XMLID_864_" fill="none" stroke="#45413c" stroke-linecap="round" stroke-linejoin="round" stroke-miterlimit="10" d="M11.1 21.8v3.6"/></g><g id="XMLID_860_"><path id="XMLID_862_" fill="none" stroke="#45413c" stroke-linecap="round" stroke-linejoin="round" stroke-miterlimit="10" d="M31.6 23.6H28"/><path id="XMLID_861_" fill="none" stroke="#45413c" stroke-linecap="round" stroke-linejoin="round" stroke-miterlimit="10" d="M29.8 21.8v3.6"/></g><path id="XMLID_859_" fill="none" stroke="#45413c" stroke-linecap="round" stroke-miterlimit="10" d="M16 32.6c1.3-.9 2.8-1.4 4.5-1.4 1.6 0 3.2.5 4.5 1.4"/><path id="XMLID_858_" fill="none" stroke="#45413c" stroke-linecap="round" stroke-miterlimit="10" d="M24.1 34.4c0-1.5 1.2-2.7 2.7-2.7"/><path id="XMLID_857_" fill="none" stroke="#45413c" stroke-linecap="round" stroke-miterlimit="10" d="M16.7 34.4c0-1.5-1.2-2.7-2.7-2.7"/><g id="XMLID_848_"><path id="XMLID_856_" fill="none" stroke="#00aed9" stroke-linecap="round" stroke-linejoin="round" stroke-miterlimit="10" d="M34.7 3.3v-.6"/><path id="XMLID_855_" fill="none" stroke="#00aed9" stroke-linecap="round" stroke-linejoin="round" stroke-miterlimit="10" d="M36.1 3.9l.5-.4"/><path id="XMLID_854_" fill="none" stroke="#00aed9" stroke-linecap="round" stroke-linejoin="round" stroke-miterlimit="10" d="M36.7 5.3h.7"/><path id="XMLID_853_" fill="none" stroke="#00aed9" stroke-linecap="round" stroke-linejoin="round" stroke-miterlimit="10" d="M36.1 6.8l.5.4"/><path id="XMLID_852_" fill="none" stroke="#00aed9" stroke-linecap="round" stroke-linejoin="round" stroke-miterlimit="10" d="M34.7 7.4V8"/><path id="XMLID_851_" fill="none" stroke="#00aed9" stroke-linecap="round" stroke-linejoin="round" stroke-miterlimit="10" d="M33.3 6.8l-.5.4"/><path id="XMLID_850_" fill="none" stroke="#00aed9" stroke-linecap="round" stroke-linejoin="round" stroke-miterlimit="10" d="M32.7 5.3H32"/><path id="XMLID_849_" fill="none" stroke="#00aed9" stroke-linecap="round" stroke-linejoin="round" stroke-miterlimit="10" d="M33.3 3.9l-.5-.4"/></g><g id="XMLID_845_"><path id="XMLID_847_" fill="none" stroke="#00aed9" stroke-linecap="round" stroke-linejoin="round" stroke-miterlimit="10" d="M43.6 25.4v-3.6"/><path id="XMLID_846_" fill="none" stroke="#00aed9" stroke-linecap="round" stroke-linejoin="round" stroke-miterlimit="10" d="M41.8 23.6h3.6"/></g><g id="XMLID_842_"><path id="XMLID_844_" fill="none" stroke="#00aed9" stroke-linecap="round" stroke-linejoin="round" stroke-miterlimit="10" d="M43.1 14.7v-1.8"/><path id="XMLID_843_" fill="none" stroke="#00aed9" stroke-linecap="round" stroke-linejoin="round" stroke-miterlimit="10" d="M42.2 13.8H44"/></g><g id="XMLID_839_"><path id="XMLID_841_" fill="none" stroke="#00aed9" stroke-linecap="round" stroke-linejoin="round" stroke-miterlimit="10" d="M25.8 2.7V.9"/><path id="XMLID_840_" fill="none" stroke="#00aed9" stroke-linecap="round" stroke-linejoin="round" stroke-miterlimit="10" d="M24.9 1.8h1.8"/></g></g></g></svg>