<svg xmlns="http://www.w3.org/2000/svg" viewBox="0 0 48 48"><symbol id="New_Symbol_14" viewBox="-6.5 -6.5 13 13"><path fill="#ffd4c3" stroke="#504b46" stroke-linecap="round" stroke-linejoin="round" stroke-miterlimit="10" d="M0-6c2.2 0 4.1 1.5 4.7 3.5C6.3-2.5 6.4 0 5 0v1c0 2.8-2.2 5-5 5s-5-2.2-5-5V0c-1.4 0-1.3-2.5.2-2.5C-4.1-4.5-2.2-6 0-6z"/><circle cx="-1.6" cy="-.1" r=".1" fill="#ffc258"/><path fill="#4f4b45" d="M-1.6.5c-.3 0-.6-.3-.6-.6s.2-.7.6-.7c.3 0 .6.3.6.7s-.3.6-.6.6z"/><circle cx="1.6" cy="-.1" r=".1" fill="#ffc258"/><path fill="#4f4b45" d="M1.6.5C1.3.5 1 .2 1-.1s.3-.6.6-.6.6.3.6.6-.2.6-.6.6z"/><circle cx="-3" cy="-1.5" r=".5" fill="#fabfa5"/><circle cx="3" cy="-1.5" r=".5" fill="#fabfa5"/><path fill="none" stroke="#504b46" stroke-linecap="round" stroke-linejoin="round" stroke-miterlimit="10" d="M-1.2-3c.8-.5 1.7-.5 2.5 0"/></symbol><g id="Icons"><g id="XMLID_720_"><circle id="XMLID_1108_" cx="22.5" cy="21.1" r="20" fill="#ffe500"/><path id="XMLID_1105_" fill="#ebcb00" d="M22.5 1.1c-11 0-20 9-20 20s9 20 20 20 20-9 20-20-9-20-20-20zm0 37C12.4 38.1 4.2 30 4.2 19.9S12.4 1.7 22.4 1.7s18.2 8.2 18.2 18.2c.2 10.1-8 18.2-18.1 18.2z"/><ellipse id="XMLID_1104_" cx="22.5" cy="5.1" fill="#fff48c" rx="6" ry="1.5"/><ellipse id="XMLID_1103_" cx="22.5" cy="45.4" fill="#45413c" opacity=".15" rx="16" ry="1.5"/><circle id="XMLID_1102_" cx="22.5" cy="21.1" r="20" fill="none" stroke="#45413c" stroke-linecap="round" stroke-linejoin="round" stroke-miterlimit="10"/><ellipse id="XMLID_1101_" cx="34.5" cy="26.1" fill="#ffaa54" rx="2.5" ry="1.5"/><ellipse id="XMLID_1100_" cx="10.5" cy="26.1" fill="#ffaa54" rx="2.5" ry="1.5"/><g id="XMLID_1096_"><path id="XMLID_1099_" fill="#00b8f0" d="M45.5 33.1c0 2.8-2.2 5-5 5s-5-2.2-5-5 5-11 5-11 5 8.3 5 11z"/><path id="XMLID_1098_" fill="#009fd9" d="M40.5 35.6c-2.3 0-4.2-1.6-4.8-3.7-.1.5-.2.9-.2 1.2 0 2.8 2.2 5 5 5s5-2.2 5-5c0-.3-.1-.7-.2-1.2-.6 2.2-2.5 3.7-4.8 3.7z"/><path id="XMLID_1097_" fill="none" stroke="#45413c" stroke-linecap="round" stroke-linejoin="round" stroke-miterlimit="10" d="M45.5 33.1c0 2.8-2.2 5-5 5s-5-2.2-5-5 5-11 5-11 5 8.3 5 11z"/></g><path id="XMLID_1095_" fill="none" stroke="#45413c" stroke-linecap="round" stroke-miterlimit="10" d="M17.5 31.1c1.4-1 3.1-1.5 5-1.5 1.8 0 3.6.6 5 1.5"/><path id="XMLID_1094_" fill="none" stroke="#45413c" stroke-linecap="round" stroke-linejoin="round" stroke-miterlimit="10" d="M8.5 21.9c0-1 .8-1.8 1.8-1.8s1.8.8 1.8 1.8"/><path id="XMLID_1093_" fill="none" stroke="#45413c" stroke-linecap="round" stroke-linejoin="round" stroke-miterlimit="10" d="M33 21.9c0-1 .8-1.8 1.8-1.8s1.8.8 1.8 1.8"/></g></g></svg>