<svg xmlns="http://www.w3.org/2000/svg" viewBox="0 0 48 48"><symbol id="New_Symbol_14" viewBox="-6.5 -6.5 13 13"><path fill="#ffd4c3" stroke="#504b46" stroke-linecap="round" stroke-linejoin="round" stroke-miterlimit="10" d="M0-6c2.2 0 4.1 1.5 4.7 3.5C6.3-2.5 6.4 0 5 0v1c0 2.8-2.2 5-5 5s-5-2.2-5-5V0c-1.4 0-1.3-2.5.2-2.5C-4.1-4.5-2.2-6 0-6z"/><circle cx="-1.6" cy="-.1" r=".1" fill="#ffc258"/><path fill="#4f4b45" d="M-1.6.5c-.3 0-.6-.3-.6-.6s.2-.7.6-.7c.3 0 .6.3.6.7s-.3.6-.6.6z"/><circle cx="1.6" cy="-.1" r=".1" fill="#ffc258"/><path fill="#4f4b45" d="M1.6.5C1.3.5 1 .2 1-.1s.3-.6.6-.6.6.3.6.6-.2.6-.6.6z"/><circle cx="-3" cy="-1.5" r=".5" fill="#fabfa5"/><circle cx="3" cy="-1.5" r=".5" fill="#fabfa5"/><path fill="none" stroke="#504b46" stroke-linecap="round" stroke-linejoin="round" stroke-miterlimit="10" d="M-1.2-3c.8-.5 1.7-.5 2.5 0"/></symbol><g id="Icons"><g id="XMLID_714_"><circle id="XMLID_479_" cx="22.5" cy="21.2" r="20" fill="#ffe500"/><path id="XMLID_475_" fill="#ebcb00" d="M22.5 1.2c-11 0-20 9-20 20s9 20 20 20 20-9 20-20-9-20-20-20zm0 37C12.4 38.2 4.3 30 4.3 20c0-10.1 8.2-18.2 18.2-18.2S40.8 9.9 40.8 20c0 10-8.2 18.2-18.3 18.2z"/><ellipse id="XMLID_473_" cx="22.5" cy="5.2" fill="#fff48c" rx="6" ry="1.5"/><ellipse id="XMLID_471_" cx="22.5" cy="45.3" fill="#45413c" opacity=".15" rx="16" ry="1.5"/><circle id="XMLID_469_" cx="22.5" cy="21.2" r="20" fill="none" stroke="#45413c" stroke-linecap="round" stroke-linejoin="round" stroke-miterlimit="10"/><ellipse id="XMLID_467_" cx="10.5" cy="26.2" fill="#ffaa54" rx="2.5" ry="1.5"/><circle id="XMLID_466_" cx="13" cy="19.2" r="1" fill="#45413c" stroke="#45413c" stroke-linecap="round" stroke-linejoin="round" stroke-miterlimit="10"/><circle id="XMLID_465_" cx="32.5" cy="19.2" r="1" fill="#45413c" stroke="#45413c" stroke-linecap="round" stroke-linejoin="round" stroke-miterlimit="10"/><path id="XMLID_462_" fill="#ffe500" stroke="#45413c" stroke-linecap="round" stroke-linejoin="round" stroke-miterlimit="10" d="M18 34.2s2.4-1 4.5-1 4.5 1 4.5 1"/><path id="XMLID_457_" fill="#ffe500" stroke="#45413c" stroke-linecap="round" stroke-linejoin="round" stroke-miterlimit="10" d="M24 24.7h19.5c1.1 0 2 .9 2 2s-.9 2-2 2H24"/></g></g></svg>