<svg xmlns="http://www.w3.org/2000/svg" viewBox="0 0 48 48"><symbol id="New_Symbol_14" viewBox="-6.5 -6.5 13 13"><path fill="#ffd4c3" stroke="#504b46" stroke-linecap="round" stroke-linejoin="round" stroke-miterlimit="10" d="M0-6c2.2 0 4.1 1.5 4.7 3.5C6.3-2.5 6.4 0 5 0v1c0 2.8-2.2 5-5 5s-5-2.2-5-5V0c-1.4 0-1.3-2.5.2-2.5C-4.1-4.5-2.2-6 0-6z"/><circle cx="-1.6" cy="-.1" r=".1" fill="#ffc258"/><path fill="#4f4b45" d="M-1.6.5c-.3 0-.6-.3-.6-.6s.2-.7.6-.7c.3 0 .6.3.6.7s-.3.6-.6.6z"/><circle cx="1.6" cy="-.1" r=".1" fill="#ffc258"/><path fill="#4f4b45" d="M1.6.5C1.3.5 1 .2 1-.1s.3-.6.6-.6.6.3.6.6-.2.6-.6.6z"/><circle cx="-3" cy="-1.5" r=".5" fill="#fabfa5"/><circle cx="3" cy="-1.5" r=".5" fill="#fabfa5"/><path fill="none" stroke="#504b46" stroke-linecap="round" stroke-linejoin="round" stroke-miterlimit="10" d="M-1.2-3c.8-.5 1.7-.5 2.5 0"/></symbol><g id="Icons"><g id="XMLID_538_"><ellipse id="XMLID_533_" cx="24" cy="44.2" fill="#45413c" opacity=".15" rx="11" ry="1.5"/><path id="XMLID_506_" fill="#bf8256" stroke="#45413c" stroke-miterlimit="10" d="M38 23.6c.6-.8.9-1.8.9-2.9 0-2.9-1.9-5-6.4-5 .9-.8 1.4-1.9 1.4-3.2 0-2.4-1.9-4.3-4.3-4.3h-5.2c-1-.3-2.2-2.6-1.6-5.1 0-.2 0-.5-.2-.6-.2-.2-.4-.2-.6-.2-7.9 1.2-9.4 11-7.1 13.4-6.2 0-7 5.1-5.1 7.9-9.2 3-7 16.6 2.6 16.6h22.7c9.9 0 12.1-13.6 2.9-16.6z"/><g id="XMLID_504_"><path id="XMLID_505_" fill="#dea47a" d="M14.1 25.9c-2-2.7-1.1-7.9 5.1-7.9-1.9-2-1.2-9.2 3.7-12.2-.2-.8-.2-1.7 0-2.6 0-.2 0-.5-.2-.6-.2-.2-.4-.2-.6-.2-7.9 1.2-9.4 11-7.1 13.4-6.2 0-7 5.1-5.1 7.9-8.4 2.7-7.2 14.6.7 16.3-3.9-4.1-3.2-11.9 3.5-14.1z"/></g><circle id="XMLID_503_" cx="14.1" cy="26.9" r=".9" fill="#45413c" stroke="#45413c" stroke-linecap="round" stroke-linejoin="round" stroke-miterlimit="10"/><circle id="XMLID_502_" cx="14.1" cy="26.9" r=".9" fill="#45413c" stroke="#45413c" stroke-linecap="round" stroke-linejoin="round" stroke-miterlimit="10"/><circle id="XMLID_501_" cx="34.6" cy="26.9" r=".9" fill="#45413c" stroke="#45413c" stroke-linecap="round" stroke-linejoin="round" stroke-miterlimit="10"/><g id="XMLID_498_"><path id="XMLID_500_" fill="#ffb0ca" stroke="#45413c" stroke-linecap="round" stroke-linejoin="round" stroke-miterlimit="10" d="M18.2 30.1c-.3 0-.5.1-.7.3s-.3.5-.2.7c.5 3.3 3.3 5.8 6.7 5.8 3.4 0 6.2-2.5 6.7-5.8 0-.3 0-.5-.2-.7-.2-.2-.4-.3-.7-.3H18.2z"/><path id="XMLID_499_" fill="#ff87af" stroke="#45413c" stroke-linecap="round" stroke-linejoin="round" stroke-miterlimit="10" d="M29.4 34.3C28 33.5 26.1 33 24 33s-4 .5-5.4 1.3c1.2 1.6 3.2 2.6 5.4 2.6s4.1-1 5.4-2.6z"/></g><path id="XMLID_497_" fill="none" stroke="#45413c" stroke-miterlimit="10" d="M38 23.6c.6-.8.9-1.8.9-2.9 0-2.9-1.9-5-6.4-5 .9-.8 1.4-1.9 1.4-3.2 0-2.4-1.9-4.3-4.3-4.3h-5.2c-1-.3-2.2-2.6-1.6-5.1 0-.2 0-.5-.2-.6-.2-.2-.4-.2-.6-.2-7.9 1.2-9.4 11-7.1 13.4-6.2 0-7 5.1-5.1 7.9-9.2 3-7 16.6 2.6 16.6h22.7c9.9 0 12.1-13.6 2.9-16.6z"/><ellipse id="XMLID_496_" cx="11.4" cy="31.4" fill="#915e3a" rx="2.3" ry="1.4"/><ellipse id="XMLID_495_" cx="37.3" cy="31.4" fill="#915e3a" rx="2.3" ry="1.4"/></g></g></svg>