<svg xmlns="http://www.w3.org/2000/svg" viewBox="0 0 48 48"><symbol id="New_Symbol_14" viewBox="-6.5 -6.5 13 13"><path fill="#ffd4c3" stroke="#504b46" stroke-linecap="round" stroke-linejoin="round" stroke-miterlimit="10" d="M0-6c2.2 0 4.1 1.5 4.7 3.5C6.3-2.5 6.4 0 5 0v1c0 2.8-2.2 5-5 5s-5-2.2-5-5V0c-1.4 0-1.3-2.5.2-2.5C-4.1-4.5-2.2-6 0-6z"/><circle cx="-1.6" cy="-.1" r=".1" fill="#ffc258"/><path fill="#4f4b45" d="M-1.6.5c-.3 0-.6-.3-.6-.6s.2-.7.6-.7c.3 0 .6.3.6.7s-.3.6-.6.6z"/><circle cx="1.6" cy="-.1" r=".1" fill="#ffc258"/><path fill="#4f4b45" d="M1.6.5C1.3.5 1 .2 1-.1s.3-.6.6-.6.6.3.6.6-.2.6-.6.6z"/><circle cx="-3" cy="-1.5" r=".5" fill="#fabfa5"/><circle cx="3" cy="-1.5" r=".5" fill="#fabfa5"/><path fill="none" stroke="#504b46" stroke-linecap="round" stroke-linejoin="round" stroke-miterlimit="10" d="M-1.2-3c.8-.5 1.7-.5 2.5 0"/></symbol><g id="Icons"><g id="XMLID_783_"><ellipse id="XMLID_1783_" cx="24" cy="41.6" fill="#45413c" opacity=".15" rx="13.5" ry="1.5"/><g id="XMLID_1718_"><g id="XMLID_1775_"><path id="XMLID_1782_" fill="#ff6196" d="M17.9 21.5s-7.9.6-11.3 11c-.4 1.2.8 2.2 1.7 1.5 1.3-1 2.6-1.5 3.9-1.5.3 2.6 1.1 5 2.2 7.2.5 1 1.8.8 2.1-.3C18 31.7 24 25.3 24 25.3l-6.1-3.8z"/><path id="XMLID_1781_" fill="#e0366f" d="M17.9 21.5s-1.6.1-3.7 1.2c1.4 2.7 4.2 4.7 7.6 5.3 1.3-1.7 2.2-2.8 2.2-2.8l-6.1-3.7z"/><path id="XMLID_1780_" fill="none" stroke="#45413c" stroke-linecap="round" stroke-linejoin="round" stroke-miterlimit="10" d="M17.9 21.5s-7.9.6-11.3 11c-.4 1.2.8 2.2 1.7 1.5 1.3-1 2.6-1.5 3.9-1.5.3 2.6 1.1 5 2.2 7.2.5 1 1.8.8 2.1-.3C18 31.7 24 25.3 24 25.3l-6.1-3.8z"/></g><g id="XMLID_1751_"><path id="XMLID_1774_" fill="#ff6196" d="M30.2 21.5s7.9.6 11.3 11c.4 1.2-.8 2.2-1.7 1.5-1.3-1-2.6-1.5-3.9-1.5-.3 2.6-1.1 5-2.2 7.2-.5 1-1.8.8-2.1-.3-1.5-7.7-7.6-14.1-7.6-14.1l6.2-3.8z"/><path id="XMLID_1773_" fill="#e0366f" d="M30.2 21.5s1.6.1 3.7 1.2c-1.4 2.7-4.2 4.7-7.6 5.3-1.3-1.6-2.3-2.7-2.3-2.7l6.2-3.8z"/><path id="XMLID_1752_" fill="none" stroke="#45413c" stroke-linecap="round" stroke-linejoin="round" stroke-miterlimit="10" d="M30.2 21.5s7.9.6 11.3 11c.4 1.2-.8 2.2-1.7 1.5-1.3-1-2.6-1.5-3.9-1.5-.3 2.6-1.1 5-2.2 7.2-.5 1-1.8.8-2.1-.3-1.5-7.7-7.6-14.1-7.6-14.1l6.2-3.8z"/></g><path id="XMLID_1750_" fill="#e0366f" stroke="#45413c" stroke-linecap="round" stroke-linejoin="round" stroke-miterlimit="10" d="M46.7 16.8c-3.3 6.6-19.4 4.7-19.4 4.7l-1.9-4.3 19.4-9.9 1.9 9.5z"/><g id="XMLID_1728_"><path id="XMLID_1749_" fill="#ff6196" d="M25.5 17.3s8.8-14.7 17.4-12c1 .3 1.8 1.1 2 2.1l1.9 9.5c-7.1-5.2-19.4 4.7-19.4 4.7l-1.9-4.3z"/><path id="XMLID_1748_" fill="#ff87af" d="M43.8 9.5C36.5 7.2 29 17.5 27 20.7l-1.5-3.4s8.8-14.7 17.4-12c1 .3 1.8 1.1 2 2.1l.7 3.7c-.4-.8-1.1-1.4-1.8-1.6z"/><path id="XMLID_1729_" fill="none" stroke="#45413c" stroke-linecap="round" stroke-linejoin="round" stroke-miterlimit="10" d="M25.5 17.3s8.8-14.7 17.4-12c1 .3 1.8 1.1 2 2.1l1.9 9.5c-7.1-5.2-19.4 4.7-19.4 4.7l-1.9-4.3z"/></g><path id="XMLID_1727_" fill="#e0366f" stroke="#45413c" stroke-linecap="round" stroke-linejoin="round" stroke-miterlimit="10" d="M1.3 16.8c3.3 6.6 19.4 4.7 19.4 4.7l1.9-4.3L3.2 7.4l-1.9 9.4z"/><g id="XMLID_1723_"><path id="XMLID_1726_" fill="#ff6196" d="M22.6 17.3S13.8 2.6 5.2 5.3c-1 .3-1.8 1.1-2 2.1l-1.9 9.5c7.1-5.2 19.4 4.7 19.4 4.7l1.9-4.3z"/><path id="XMLID_1725_" fill="#ff87af" d="M4.3 9.5c7.3-2.3 14.7 8.1 16.8 11.2l1.5-3.4S13.8 2.6 5.2 5.3c-1 .3-1.8 1.1-2 2.1L2.5 11c.4-.7 1.1-1.3 1.8-1.5z"/><path id="XMLID_1724_" fill="none" stroke="#45413c" stroke-linecap="round" stroke-linejoin="round" stroke-miterlimit="10" d="M22.6 17.3S13.8 2.6 5.2 5.3c-1 .3-1.8 1.1-2 2.1l-1.9 9.5c7.1-5.2 19.4 4.7 19.4 4.7l1.9-4.3z"/></g><g id="XMLID_1719_"><ellipse id="XMLID_1722_" cx="24" cy="18.7" fill="#ff6196" rx="8" ry="7.1"/><path id="XMLID_1721_" fill="#ff87af" d="M24 14.9c3.1 0 5.8.8 7.8 2.2-.8-3.1-4-5.5-7.8-5.5s-7 2.3-7.8 5.5c2-1.3 4.8-2.2 7.8-2.2z"/><ellipse id="XMLID_1720_" cx="24" cy="18.7" fill="none" stroke="#45413c" stroke-linecap="round" stroke-linejoin="round" stroke-miterlimit="10" rx="8" ry="7.1"/></g></g></g></g></svg>