<svg xmlns="http://www.w3.org/2000/svg" viewBox="0 0 48 48"><symbol id="New_Symbol_14" viewBox="-6.5 -6.5 13 13"><path fill="#ffd4c3" stroke="#504b46" stroke-linecap="round" stroke-linejoin="round" stroke-miterlimit="10" d="M0-6c2.2 0 4.1 1.5 4.7 3.5C6.3-2.5 6.4 0 5 0v1c0 2.8-2.2 5-5 5s-5-2.2-5-5V0c-1.4 0-1.3-2.5.2-2.5C-4.1-4.5-2.2-6 0-6z"/><circle cx="-1.6" cy="-.1" r=".1" fill="#ffc258"/><path fill="#4f4b45" d="M-1.6.5c-.3 0-.6-.3-.6-.6s.2-.7.6-.7c.3 0 .6.3.6.7s-.3.6-.6.6z"/><circle cx="1.6" cy="-.1" r=".1" fill="#ffc258"/><path fill="#4f4b45" d="M1.6.5C1.3.5 1 .2 1-.1s.3-.6.6-.6.6.3.6.6-.2.6-.6.6z"/><circle cx="-3" cy="-1.5" r=".5" fill="#fabfa5"/><circle cx="3" cy="-1.5" r=".5" fill="#fabfa5"/><path fill="none" stroke="#504b46" stroke-linecap="round" stroke-linejoin="round" stroke-miterlimit="10" d="M-1.2-3c.8-.5 1.7-.5 2.5 0"/></symbol><g id="Icons"><g id="XMLID_726_"><path id="XMLID_1241_" fill="#ff8a14" d="M2.7 38.9C.8 37.7.3 35.2 1.5 33.3L9 38.2c-1.2 1.9-3.7 2.4-5.6 1.2l-.7-.5z"/><path id="XMLID_1240_" fill="#ff8a14" stroke="#45413c" stroke-linecap="round" stroke-linejoin="round" stroke-miterlimit="10" d="M47.2 35.5c0 2.2-1.8 4.1-4.1 4.1v-8.9c2.2 0 4.1 1.8 4.1 4.1v.7z"/><path id="XMLID_1239_" fill="#adc4d9" stroke="#45413c" stroke-linecap="round" stroke-linejoin="round" stroke-miterlimit="10" d="M33 16.8h-8.9l.5-2c.2-.7.8-1.2 1.6-1.2H31c.7 0 1.4.5 1.6 1.2l.4 2z"/><path id="XMLID_1238_" fill="#ffe500" d="M43.1 41.5c0 1.8-1.5 3.2-3.2 3.2H17.2c-1.8 0-3.2-1.5-3.2-3.2V30.6C14 22.5 20.5 16 28.5 16s14.6 6.5 14.6 14.6v10.9z"/><path id="XMLID_1237_" fill="#fff48c" d="M28.5 16c-8 0-14.5 6.5-14.5 14.6v4.1c0-8.1 6.5-14.6 14.6-14.6s14.6 6.5 14.6 14.6v-4.1C43.1 22.5 36.6 16 28.5 16z"/><path id="XMLID_1236_" fill="none" stroke="#45413c" stroke-linecap="round" stroke-linejoin="round" stroke-miterlimit="10" d="M43.1 41.5c0 1.8-1.5 3.2-3.2 3.2H17.2c-1.8 0-3.2-1.5-3.2-3.2V30.6C14 22.5 20.5 16 28.5 16s14.6 6.5 14.6 14.6v10.9z"/><ellipse id="XMLID_1235_" cx="28.5" cy="45.9" fill="#45413c" opacity=".15" rx="16.5" ry="1.5"/><path id="XMLID_1234_" fill="#c0dceb" d="M39.1 44.4c0 .9-.7 1.6-1.6 1.6H19.6c-.9 0-1.6-.7-1.6-1.6v-4.9c0-.9.7-1.6 1.6-1.6h17.8c.9 0 1.6.7 1.6 1.6v4.9z"/><path id="XMLID_1233_" fill="#daedf7" d="M39.1 39.5c0-.9-.7-1.6-1.6-1.6H19.6c-.9 0-1.6.7-1.6 1.6v2c0-.9.7-1.6 1.6-1.6h17.8c.9 0 1.6.7 1.6 1.6v-2z"/><path id="XMLID_1232_" fill="none" stroke="#45413c" stroke-linecap="round" stroke-linejoin="round" stroke-miterlimit="10" d="M39.1 44.4c0 .9-.7 1.6-1.6 1.6H19.6c-.9 0-1.6-.7-1.6-1.6v-4.9c0-.9.7-1.6 1.6-1.6h17.8c.9 0 1.6.7 1.6 1.6v4.9z"/><circle id="XMLID_1231_" cx="35.4" cy="29" r="4.5" fill="#fff" stroke="#45413c" stroke-linecap="round" stroke-linejoin="round" stroke-miterlimit="10"/><circle id="XMLID_1230_" cx="35.4" cy="29" r="1.6" fill="#ff6242" stroke="#45413c" stroke-linecap="round" stroke-linejoin="round" stroke-miterlimit="10"/><circle id="XMLID_1229_" cx="21.7" cy="29" r="4.1" fill="#fff" stroke="#45413c" stroke-linecap="round" stroke-linejoin="round" stroke-miterlimit="10"/><circle id="XMLID_1228_" cx="21.7" cy="29" r="1.6" fill="#6dd627" stroke="#45413c" stroke-linecap="round" stroke-linejoin="round" stroke-miterlimit="10"/><path id="XMLID_1227_" fill="none" stroke="#45413c" stroke-linecap="round" stroke-linejoin="round" stroke-miterlimit="10" d="M28.5 16v21.9"/><path id="XMLID_1226_" fill="none" stroke="#45413c" stroke-linecap="round" stroke-linejoin="round" stroke-miterlimit="10" d="M35.4 26.1v-1.6"/><path id="XMLID_1225_" fill="none" stroke="#45413c" stroke-linecap="round" stroke-linejoin="round" stroke-miterlimit="10" d="M37.4 27l1.2-1.2"/><path id="XMLID_1224_" fill="none" stroke="#45413c" stroke-linecap="round" stroke-linejoin="round" stroke-miterlimit="10" d="M38.3 29h1.6"/><path id="XMLID_1223_" fill="none" stroke="#45413c" stroke-linecap="round" stroke-linejoin="round" stroke-miterlimit="10" d="M37.4 31l1.2 1.1"/><path id="XMLID_1222_" fill="none" stroke="#45413c" stroke-linecap="round" stroke-linejoin="round" stroke-miterlimit="10" d="M35.4 31.8v1.6"/><path id="XMLID_1221_" fill="none" stroke="#45413c" stroke-linecap="round" stroke-linejoin="round" stroke-miterlimit="10" d="M33.4 31l-1.1 1.1"/><path id="XMLID_1220_" fill="none" stroke="#45413c" stroke-linecap="round" stroke-linejoin="round" stroke-miterlimit="10" d="M32.6 29H31"/><path id="XMLID_1219_" fill="none" stroke="#45413c" stroke-linecap="round" stroke-linejoin="round" stroke-miterlimit="10" d="M33.4 27l-1.1-1.2"/><g id="XMLID_1218_"><circle id="XMLID_748_" cx="20" cy="39.5" r=".4" fill="#c0dceb"/><path id="XMLID_747_" fill="#45413c" d="M20 39.1c-.2 0-.4.2-.4.4s.2.4.4.4.4-.2.4-.4-.1-.4-.4-.4z"/></g><g id="XMLID_1217_"><circle id="XMLID_745_" cx="37.1" cy="39.5" r=".4" fill="#c0dceb"/><path id="XMLID_744_" fill="#45413c" d="M37.1 39.1c-.2 0-.4.2-.4.4s.2.4.4.4.4-.2.4-.4-.2-.4-.4-.4z"/></g><path id="XMLID_1214_" fill="none" stroke="#45413c" stroke-linecap="round" stroke-linejoin="round" stroke-miterlimit="10" d="M28.5 13.6v-2.4L33 9.9l-5.3-4.8 7.7 2 1.7-3.2"/><circle id="XMLID_1209_" cx="37.5" cy="2.6" r="2" fill="#ff6242" stroke="#45413c" stroke-linecap="round" stroke-linejoin="round" stroke-miterlimit="10"/><path id="XMLID_1208_" fill="none" stroke="#45413c" stroke-linecap="round" stroke-linejoin="round" stroke-miterlimit="10" d="M14 36.3s-.4-5.3-2.8-4.9c-2.9.5-2 7.7.4 7.3 2-.3-1.6-6.9-4.5-6.1-1.6.5-1.9 2.3-2 3"/><path id="XMLID_1207_" fill="#ffaa54" d="M43.1 30.6v2c2 0 3.7 1.5 4 3.4 0-.2.1-.4.1-.6v-.8c0-2.2-1.8-4-4.1-4z"/><path id="XMLID_1206_" fill="none" stroke="#45413c" stroke-linecap="round" stroke-linejoin="round" stroke-miterlimit="10" d="M47.2 35.5c0 2.2-1.8 4.1-4.1 4.1v-8.9c2.2 0 4.1 1.8 4.1 4.1v.7z"/><path id="XMLID_1205_" fill="#ffaa54" d="M1.4 33.5c0 1.5.8 3 2.3 4l.8.5c1.4.9 3 1 4.3.6l.3-.3-7.5-4.9c-.2 0-.2 0-.2.1z"/><path id="XMLID_1204_" fill="none" stroke="#45413c" stroke-linecap="round" stroke-linejoin="round" stroke-miterlimit="10" d="M2.7 38.9C.8 37.7.3 35.2 1.5 33.3L9 38.2c-1.2 1.9-3.7 2.4-5.6 1.2l-.7-.5z"/></g></g></svg>