<svg xmlns="http://www.w3.org/2000/svg" viewBox="0 0 48 48"><symbol id="New_Symbol_14" viewBox="-6.5 -6.5 13 13"><path fill="#ffd4c3" stroke="#504b46" stroke-linecap="round" stroke-linejoin="round" stroke-miterlimit="10" d="M0-6c2.2 0 4.1 1.5 4.7 3.5C6.3-2.5 6.4 0 5 0v1c0 2.8-2.2 5-5 5s-5-2.2-5-5V0c-1.4 0-1.3-2.5.2-2.5C-4.1-4.5-2.2-6 0-6z"/><circle cx="-1.6" cy="-.1" r=".1" fill="#ffc258"/><path fill="#4f4b45" d="M-1.6.5c-.3 0-.6-.3-.6-.6s.2-.7.6-.7c.3 0 .6.3.6.7s-.3.6-.6.6z"/><circle cx="1.6" cy="-.1" r=".1" fill="#ffc258"/><path fill="#4f4b45" d="M1.6.5C1.3.5 1 .2 1-.1s.3-.6.6-.6.6.3.6.6-.2.6-.6.6z"/><circle cx="-3" cy="-1.5" r=".5" fill="#fabfa5"/><circle cx="3" cy="-1.5" r=".5" fill="#fabfa5"/><path fill="none" stroke="#504b46" stroke-linecap="round" stroke-linejoin="round" stroke-miterlimit="10" d="M-1.2-3c.8-.5 1.7-.5 2.5 0"/></symbol><g id="Icons"><g id="XMLID_734_"><ellipse id="XMLID_2280_" cx="25" cy="44.9" fill="#45413c" opacity=".15" rx="16" ry="1.5"/><circle id="XMLID_2266_" cx="24" cy="21.6" r="20" fill="#ffe500"/><path id="XMLID_2263_" fill="#ebcb00" d="M24 1.6c-11 0-20 9-20 20s9 20 20 20 20-9 20-20-9-20-20-20zm0 37c-10.1 0-18.2-8.2-18.2-18.3 0-10 8.1-18.2 18.2-18.2s18.2 8.2 18.2 18.2c0 10.1-8.1 18.3-18.2 18.3z"/><ellipse id="XMLID_2262_" cx="24" cy="5.6" fill="#fff48c" rx="6" ry="1.5"/><circle id="XMLID_2261_" cx="24" cy="21.6" r="20" fill="none" stroke="#45413c" stroke-linecap="round" stroke-linejoin="round" stroke-miterlimit="10"/><ellipse id="XMLID_2260_" cx="33.2" cy="11.7" fill="#ffaa54" rx="2.5" ry="1.5" transform="rotate(-45.001 33.192 11.717)"/><ellipse id="XMLID_2259_" cx="14.1" cy="30.8" fill="#ffaa54" rx="2.5" ry="1.5" transform="rotate(-45.001 14.1 30.808)"/><path id="XMLID_2258_" fill="#ffb0ca" stroke="#45413c" stroke-linecap="round" stroke-linejoin="round" stroke-miterlimit="10" d="M35.6 33.3c5.5-5.5 6.3-13.8 2-19.4-.3-.3-.7-.5-1.1-.5-.4 0-.9.3-1.1.6-5.4 7.3-11.7 13.7-19 19-.4.3-.6.7-.6 1.1 0 .4.2.9.5 1.1 5.5 4.3 13.8 3.6 19.3-1.9z"/><path id="XMLID_2257_" fill="#ff87af" stroke="#45413c" stroke-linecap="round" stroke-linejoin="round" stroke-miterlimit="10" d="M30.9 28.5c-3.2 3.2-5.4 6.6-6.3 9.5 3.9 0 7.9-1.6 11-4.7 3.1-3.1 4.7-7.1 4.7-11-2.8.9-6.2 3.1-9.4 6.2z"/><path id="XMLID_2256_" fill="none" stroke="#45413c" stroke-linecap="round" stroke-linejoin="round" stroke-miterlimit="10" d="M26.2 7.1L25 10.5c-.3.8.5 1.5 1.3 1.3l3.4-1.1"/><path id="XMLID_2255_" fill="none" stroke="#45413c" stroke-linecap="round" stroke-linejoin="round" stroke-miterlimit="10" d="M9.5 23.7l3.4-1.1c.8-.3 1.5.5 1.3 1.3l-1.1 3.4"/><path id="XMLID_2254_" fill="#fff" stroke="#45413c" stroke-linecap="round" stroke-linejoin="round" stroke-miterlimit="10" d="M35.4 14c-5.4 7.3-11.7 13.7-19 19-.4.3-.6.7-.6 1.1 0 .4.2.9.5 1.1.3.2.6.4.8.6 2.2-1.5 6.7-4.8 11.1-9.2 4.5-4.5 8.3-9.6 10-12-.2-.3-.4-.6-.6-.8-.3-.3-.7-.5-1.1-.5-.4.1-.8.3-1.1.7z"/></g></g></svg>