<svg xmlns="http://www.w3.org/2000/svg" viewBox="0 0 48 48"><symbol id="New_Symbol_14" viewBox="-6.5 -6.5 13 13"><path fill="#ffd4c3" stroke="#504b46" stroke-linecap="round" stroke-linejoin="round" stroke-miterlimit="10" d="M0-6c2.2 0 4.1 1.5 4.7 3.5C6.3-2.5 6.4 0 5 0v1c0 2.8-2.2 5-5 5s-5-2.2-5-5V0c-1.4 0-1.3-2.5.2-2.5C-4.1-4.5-2.2-6 0-6z"/><circle cx="-1.6" cy="-.1" r=".1" fill="#ffc258"/><path fill="#4f4b45" d="M-1.6.5c-.3 0-.6-.3-.6-.6s.2-.7.6-.7c.3 0 .6.3.6.7s-.3.6-.6.6z"/><circle cx="1.6" cy="-.1" r=".1" fill="#ffc258"/><path fill="#4f4b45" d="M1.6.5C1.3.5 1 .2 1-.1s.3-.6.6-.6.6.3.6.6-.2.6-.6.6z"/><circle cx="-3" cy="-1.5" r=".5" fill="#fabfa5"/><circle cx="3" cy="-1.5" r=".5" fill="#fabfa5"/><path fill="none" stroke="#504b46" stroke-linecap="round" stroke-linejoin="round" stroke-miterlimit="10" d="M-1.2-3c.8-.5 1.7-.5 2.5 0"/></symbol><g id="Icons"><g id="XMLID_709_"><circle id="XMLID_167_" cx="24" cy="24.9" r="19" fill="#ffe500"/><path id="XMLID_148_" fill="#ebcb00" d="M24 5.9c-10.5 0-19 8.5-19 19s8.5 19 19 19 19-8.5 19-19-8.5-19-19-19zM24 41c-9.6 0-17.3-7.7-17.3-17.3 0-9.6 7.7-17.3 17.3-17.3s17.3 7.7 17.3 17.3C41.3 33.2 33.6 41 24 41z"/><ellipse id="XMLID_147_" cx="24" cy="9.7" fill="#fff48c" rx="5.7" ry="1.4"/><ellipse id="XMLID_146_" cx="24" cy="45.9" fill="#45413c" opacity=".15" rx="15.2" ry="1.5"/><circle id="XMLID_145_" cx="24" cy="24.9" r="19" fill="none" stroke="#45413c" stroke-linecap="round" stroke-linejoin="round" stroke-miterlimit="10"/><circle id="XMLID_144_" cx="15.5" cy="23.4" r="3.3" fill="#fff" stroke="#45413c" stroke-linecap="round" stroke-linejoin="round" stroke-miterlimit="10"/><ellipse id="XMLID_143_" cx="35.4" cy="29.6" fill="#ffaa54" rx="2.4" ry="1.4"/><ellipse id="XMLID_142_" cx="12.7" cy="29.6" fill="#ffaa54" rx="2.4" ry="1.4"/><path id="XMLID_141_" fill="none" stroke="#45413c" stroke-linecap="round" stroke-linejoin="round" stroke-miterlimit="10" d="M28.3.7v17"/><path id="XMLID_140_" fill="none" stroke="#45413c" stroke-linecap="round" stroke-linejoin="round" stroke-miterlimit="10" d="M32.6 2.6v15.6"/><path id="XMLID_139_" fill="none" stroke="#45413c" stroke-linecap="round" stroke-linejoin="round" stroke-miterlimit="10" d="M36.8 5.4v14.7"/><circle id="XMLID_138_" cx="32.6" cy="23.4" r="3.3" fill="#fff" stroke="#45413c" stroke-linecap="round" stroke-linejoin="round" stroke-miterlimit="10"/><path id="XMLID_137_" fill="#ffb0ca" stroke="#45413c" stroke-linecap="round" stroke-linejoin="round" stroke-miterlimit="10" d="M24 27.2c-6.2 0-11.1 5.1-10.4 8.7.5 2.6 2.7 3.1 4.7 2.3 1.8-.8 3.8-1.2 5.8-1.2s3.9.4 5.8 1.2c1.9.9 4.2.3 4.7-2.3.5-3.6-4.4-8.7-10.6-8.7z"/><path id="XMLID_136_" fill="#ff87af" stroke="#45413c" stroke-linecap="round" stroke-linejoin="round" stroke-miterlimit="10" d="M24 33.4c-3.8 0-7.2 1.8-9.3 4.6.9.8 2.3.8 3.6.3 1.8-.8 3.8-1.2 5.8-1.2s3.9.4 5.8 1.2c1.2.6 2.6.5 3.6-.3-2.3-2.8-5.7-4.6-9.5-4.6z"/></g></g></svg>