<svg xmlns="http://www.w3.org/2000/svg" viewBox="0 0 48 48"><symbol id="New_Symbol_14" viewBox="-6.5 -6.5 13 13"><path fill="#ffd4c3" stroke="#504b46" stroke-linecap="round" stroke-linejoin="round" stroke-miterlimit="10" d="M0-6c2.2 0 4.1 1.5 4.7 3.5C6.3-2.5 6.4 0 5 0v1c0 2.8-2.2 5-5 5s-5-2.2-5-5V0c-1.4 0-1.3-2.5.2-2.5C-4.1-4.5-2.2-6 0-6z"/><circle cx="-1.6" cy="-.1" r=".1" fill="#ffc258"/><path fill="#4f4b45" d="M-1.6.5c-.3 0-.6-.3-.6-.6s.2-.7.6-.7c.3 0 .6.3.6.7s-.3.6-.6.6z"/><circle cx="1.6" cy="-.1" r=".1" fill="#ffc258"/><path fill="#4f4b45" d="M1.6.5C1.3.5 1 .2 1-.1s.3-.6.6-.6.6.3.6.6-.2.6-.6.6z"/><circle cx="-3" cy="-1.5" r=".5" fill="#fabfa5"/><circle cx="3" cy="-1.5" r=".5" fill="#fabfa5"/><path fill="none" stroke="#504b46" stroke-linecap="round" stroke-linejoin="round" stroke-miterlimit="10" d="M-1.2-3c.8-.5 1.7-.5 2.5 0"/></symbol><g id="Icons"><g id="XMLID_677_"><circle id="XMLID_905_" cx="24" cy="20.9" r="20" fill="#ffe500"/><path id="XMLID_902_" fill="#ebcb00" d="M24 .9c-11 0-20 9-20 20s9 20 20 20 20-9 20-20-9-20-20-20zm0 37c-10.1 0-18.2-8.2-18.2-18.2C5.8 9.6 13.9 1.4 24 1.4s18.2 8.2 18.2 18.2c0 10.2-8.1 18.3-18.2 18.3z"/><ellipse id="XMLID_901_" cx="24" cy="4.9" fill="#fff48c" rx="6" ry="1.5"/><ellipse id="XMLID_900_" cx="24" cy="45.6" fill="#45413c" opacity=".15" rx="16" ry="1.5"/><circle id="XMLID_899_" cx="24" cy="20.9" r="20" fill="none" stroke="#45413c" stroke-linecap="round" stroke-linejoin="round" stroke-miterlimit="10"/><circle id="XMLID_898_" cx="15" cy="19.4" r="3.5" fill="#fff" stroke="#45413c" stroke-linecap="round" stroke-linejoin="round" stroke-miterlimit="10"/><circle id="XMLID_897_" cx="33" cy="19.4" r="3.5" fill="#fff" stroke="#45413c" stroke-linecap="round" stroke-linejoin="round" stroke-miterlimit="10"/><ellipse id="XMLID_896_" cx="36.5" cy="25.9" fill="#ffaa54" rx="2.5" ry="1.5"/><ellipse id="XMLID_895_" cx="12.5" cy="25.9" fill="#ffaa54" rx="2.5" ry="1.5"/><path id="XMLID_894_" fill="none" stroke="#45413c" stroke-linecap="round" stroke-linejoin="round" stroke-miterlimit="10" d="M19.5 30.4h10"/><path id="XMLID_893_" fill="none" stroke="#45413c" stroke-linecap="round" stroke-linejoin="round" stroke-miterlimit="10" d="M11.2 11.9c.8-.6 1.8-1 2.8-1 1.1 0 2.1.4 2.8 1"/><path id="XMLID_892_" fill="none" stroke="#45413c" stroke-linecap="round" stroke-linejoin="round" stroke-miterlimit="10" d="M37.8 11.9c-.8-.6-1.8-1-2.8-1-1.1 0-2.1.4-2.8 1"/><circle id="XMLID_891_" cx="15" cy="19.4" r="1" fill="#45413c" stroke="#45413c" stroke-linecap="round" stroke-linejoin="round" stroke-miterlimit="10"/><circle id="XMLID_890_" cx="33" cy="19.4" r="1" fill="#45413c" stroke="#45413c" stroke-linecap="round" stroke-linejoin="round" stroke-miterlimit="10"/></g></g></svg>