<svg xmlns="http://www.w3.org/2000/svg" viewBox="0 0 48 48"><symbol id="New_Symbol_14" viewBox="-6.5 -6.5 13 13"><path fill="#ffd4c3" stroke="#504b46" stroke-linecap="round" stroke-linejoin="round" stroke-miterlimit="10" d="M0-6c2.2 0 4.1 1.5 4.7 3.5C6.3-2.5 6.4 0 5 0v1c0 2.8-2.2 5-5 5s-5-2.2-5-5V0c-1.4 0-1.3-2.5.2-2.5C-4.1-4.5-2.2-6 0-6z"/><circle cx="-1.6" cy="-.1" r=".1" fill="#ffc258"/><path fill="#4f4b45" d="M-1.6.5c-.3 0-.6-.3-.6-.6s.2-.7.6-.7c.3 0 .6.3.6.7s-.3.6-.6.6z"/><circle cx="1.6" cy="-.1" r=".1" fill="#ffc258"/><path fill="#4f4b45" d="M1.6.5C1.3.5 1 .2 1-.1s.3-.6.6-.6.6.3.6.6-.2.6-.6.6z"/><circle cx="-3" cy="-1.5" r=".5" fill="#fabfa5"/><circle cx="3" cy="-1.5" r=".5" fill="#fabfa5"/><path fill="none" stroke="#504b46" stroke-linecap="round" stroke-linejoin="round" stroke-miterlimit="10" d="M-1.2-3c.8-.5 1.7-.5 2.5 0"/></symbol><g id="Icons"><g id="XMLID_716_"><linearGradient id="XMLID_10_" x1="24" x2="24" y1="41.032" y2="1.032" gradientUnits="userSpaceOnUse"><stop offset="0" stop-color="#FFE500"/><stop offset=".285" stop-color="#FDE502"/><stop offset=".387" stop-color="#F6E408"/><stop offset=".461" stop-color="#EBE213"/><stop offset=".52" stop-color="#DADF23"/><stop offset=".57" stop-color="#C4DB38"/><stop offset=".615" stop-color="#A8D651"/><stop offset=".656" stop-color="#88D070"/><stop offset=".693" stop-color="#62C993"/><stop offset=".728" stop-color="#37C2BC"/><stop offset=".759" stop-color="#09B9E7"/><stop offset=".764" stop-color="#00B8F0"/></linearGradient><circle id="XMLID_272_" cx="24" cy="21" r="20" fill="url(#XMLID_10_)"/><linearGradient id="XMLID_11_" x1="24" x2="24" y1="41.032" y2="1.032" gradientUnits="userSpaceOnUse"><stop offset="0" stop-color="#EBCB00"/><stop offset=".288" stop-color="#E9CB02"/><stop offset=".392" stop-color="#E2CB09"/><stop offset=".467" stop-color="#D7CA14"/><stop offset=".526" stop-color="#C6C825"/><stop offset=".578" stop-color="#B0C63B"/><stop offset=".623" stop-color="#96C457"/><stop offset=".664" stop-color="#76C277"/><stop offset=".702" stop-color="#51BF9D"/><stop offset=".736" stop-color="#29BBC6"/><stop offset=".765" stop-color="#00B8F0"/></linearGradient><path id="XMLID_269_" fill="url(#XMLID_11_)" d="M24 1C13 1 4 10 4 21s9 20 20 20 20-9 20-20S35 1 24 1zm0 37C13.9 38 5.8 29.9 5.8 19.8S13.9 1.5 24 1.5s18.2 8.2 18.2 18.2C42.3 29.9 34.1 38 24 38z"/><ellipse id="XMLID_268_" cx="24" cy="5" fill="#4acfff" rx="6" ry="1.5"/><ellipse id="XMLID_267_" cx="24" cy="45.5" fill="#45413c" opacity=".15" rx="16" ry="1.5"/><circle id="XMLID_266_" cx="24" cy="21" r="20" fill="none" stroke="#45413c" stroke-linecap="round" stroke-linejoin="round" stroke-miterlimit="10"/><ellipse id="XMLID_265_" cx="36" cy="26" fill="#ffaa54" rx="2.5" ry="1.5"/><ellipse id="XMLID_264_" cx="12" cy="26" fill="#ffaa54" rx="2.5" ry="1.5"/><g id="XMLID_261_"><ellipse id="XMLID_263_" cx="24" cy="31" fill="#ffb0ca" stroke="#45413c" stroke-linecap="round" stroke-linejoin="round" stroke-miterlimit="10" rx="5" ry="8"/><path id="XMLID_262_" fill="#ff866e" stroke="#45413c" stroke-linecap="round" stroke-linejoin="round" stroke-miterlimit="10" d="M24 31.5c-1.8 0-3.3 1.5-4.2 3.8.9 2.3 2.4 3.8 4.2 3.8 1.8 0 3.3-1.5 4.2-3.8-.9-2.3-2.4-3.8-4.2-3.8z"/></g><ellipse id="XMLID_260_" cx="34.2" cy="18.1" fill="#fff" stroke="#45413c" stroke-linecap="round" stroke-linejoin="round" stroke-miterlimit="10" rx="3.8" ry="5.3" transform="rotate(-31.81 34.152 18.095)"/><ellipse id="XMLID_259_" cx="13.8" cy="18.1" fill="#fff" stroke="#45413c" stroke-linecap="round" stroke-linejoin="round" stroke-miterlimit="10" rx="5.3" ry="3.8" transform="rotate(-58.19 13.849 18.094)"/><path id="XMLID_258_" fill="#ffe500" stroke="#45413c" stroke-linecap="round" stroke-linejoin="round" stroke-miterlimit="10" d="M15.2 45.2c-.1.5-.5.8-1 .8H8.4c-.3 0-.6-.1-.8-.4-.2-.3-.2-.6-.2-.9 1.3-4.6-.3-12-3-16.6-1.5-2.6 1.7-2.6 3-1.8 9 6.1 8.2 16 7.8 18.9z"/><path id="XMLID_257_" fill="#ffe500" stroke="#45413c" stroke-linecap="round" stroke-linejoin="round" stroke-miterlimit="10" d="M32.8 45.2c.1.5.5.8 1 .8h5.7c.3 0 .6-.1.8-.4.2-.3.2-.6.2-.9-1.3-4.6.3-12 3-16.6 1.5-2.6-1.7-2.6-3-1.8-8.9 6.1-8.1 16-7.7 18.9z"/></g></g></svg>