<svg xmlns="http://www.w3.org/2000/svg" viewBox="0 0 48 48"><symbol id="New_Symbol_14" viewBox="-6.5 -6.5 13 13"><path fill="#ffd4c3" stroke="#504b46" stroke-linecap="round" stroke-linejoin="round" stroke-miterlimit="10" d="M0-6c2.2 0 4.1 1.5 4.7 3.5C6.3-2.5 6.4 0 5 0v1c0 2.8-2.2 5-5 5s-5-2.2-5-5V0c-1.4 0-1.3-2.5.2-2.5C-4.1-4.5-2.2-6 0-6z"/><circle cx="-1.6" cy="-.1" r=".1" fill="#ffc258"/><path fill="#4f4b45" d="M-1.6.5c-.3 0-.6-.3-.6-.6s.2-.7.6-.7c.3 0 .6.3.6.7s-.3.6-.6.6z"/><circle cx="1.6" cy="-.1" r=".1" fill="#ffc258"/><path fill="#4f4b45" d="M1.6.5C1.3.5 1 .2 1-.1s.3-.6.6-.6.6.3.6.6-.2.6-.6.6z"/><circle cx="-3" cy="-1.5" r=".5" fill="#fabfa5"/><circle cx="3" cy="-1.5" r=".5" fill="#fabfa5"/><path fill="none" stroke="#504b46" stroke-linecap="round" stroke-linejoin="round" stroke-miterlimit="10" d="M-1.2-3c.8-.5 1.7-.5 2.5 0"/></symbol><g id="Icons"><g id="XMLID_588_"><circle id="XMLID_1610_" cx="24" cy="21.4" r="20" fill="#ffe500"/><path id="XMLID_1607_" fill="#ebcb00" d="M24 1.4c-11 0-20 9-20 20s9 20 20 20 20-9 20-20-9-20-20-20zm0 37c-10.1 0-18.2-8.2-18.2-18.2C5.8 10.1 13.9 1.9 24 1.9s18.2 8.2 18.2 18.2c.1 10.2-8.1 18.3-18.2 18.3z"/><circle id="XMLID_1606_" cx="24" cy="21.4" r="20" fill="none" stroke="#45413c" stroke-linecap="round" stroke-linejoin="round" stroke-miterlimit="10"/><ellipse id="XMLID_1605_" cx="24" cy="5.4" fill="#fff48c" rx="6" ry="1.5"/><ellipse id="XMLID_1604_" cx="24" cy="45.1" fill="#45413c" opacity=".15" rx="16" ry="1.5"/><circle id="XMLID_1603_" cx="14" cy="21.4" r="1" fill="#45413c" stroke="#45413c" stroke-linecap="round" stroke-linejoin="round" stroke-miterlimit="10"/><circle id="XMLID_1602_" cx="33.5" cy="21.4" r="1" fill="#45413c" stroke="#45413c" stroke-linecap="round" stroke-linejoin="round" stroke-miterlimit="10"/><ellipse id="XMLID_1601_" cx="36" cy="26.4" fill="#ffaa54" rx="2.5" ry="1.5"/><ellipse id="XMLID_1600_" cx="12" cy="26.4" fill="#ffaa54" rx="2.5" ry="1.5"/><path id="XMLID_1599_" fill="none" stroke="#45413c" stroke-linecap="round" stroke-linejoin="round" stroke-miterlimit="10" d="M35 31.9H13"/><path id="XMLID_1598_" fill="#fff" stroke="#45413c" stroke-linecap="round" stroke-linejoin="round" stroke-miterlimit="10" d="M16.5 33.4c0 .6-.4 1-1 1s-1-.4-1-1v-3c0-.6.4-1 1-1s1 .4 1 1v3z"/><path id="XMLID_1597_" fill="#fff" stroke="#45413c" stroke-linecap="round" stroke-linejoin="round" stroke-miterlimit="10" d="M21 33.4c0 .6-.4 1-1 1s-1-.4-1-1v-3c0-.6.4-1 1-1s1 .4 1 1v3z"/><path id="XMLID_1596_" fill="#fff" stroke="#45413c" stroke-linecap="round" stroke-linejoin="round" stroke-miterlimit="10" d="M25.5 33.4c0 .6-.4 1-1 1s-1-.4-1-1v-3c0-.6.4-1 1-1s1 .4 1 1v3z"/><path id="XMLID_1595_" fill="#fff" stroke="#45413c" stroke-linecap="round" stroke-linejoin="round" stroke-miterlimit="10" d="M30 33.4c0 .6-.4 1-1 1s-1-.4-1-1v-3c0-.6.4-1 1-1s1 .4 1 1v3z"/><path id="XMLID_1592_" fill="#fff" stroke="#45413c" stroke-linecap="round" stroke-linejoin="round" stroke-miterlimit="10" d="M32.8 32.2c-.9.8-1.1 2.2-.3 3.2l2.4 3.3.4.6c.5.6 1.2 1 1.9 1.1.8.1 1.5-.2 2.1-.7.6-.5.9-1.3.9-2 0-.8-.3-1.5-.9-2.1L36 32.3c-.9-.8-2.3-.9-3.2-.1zm5 5.6c-.3.2-.7.2-.9-.1-.2-.3-.2-.7.1-.9.3-.2.7-.2.9.1.2.3.2.7-.1.9z"/></g></g></svg>