<svg xmlns="http://www.w3.org/2000/svg" viewBox="0 0 48 48"><symbol id="New_Symbol_14" viewBox="-6.5 -6.5 13 13"><path fill="#ffd4c3" stroke="#504b46" stroke-linecap="round" stroke-linejoin="round" stroke-miterlimit="10" d="M0-6c2.2 0 4.1 1.5 4.7 3.5C6.3-2.5 6.4 0 5 0v1c0 2.8-2.2 5-5 5s-5-2.2-5-5V0c-1.4 0-1.3-2.5.2-2.5C-4.1-4.5-2.2-6 0-6z"/><circle cx="-1.6" cy="-.1" r=".1" fill="#ffc258"/><path fill="#4f4b45" d="M-1.6.5c-.3 0-.6-.3-.6-.6s.2-.7.6-.7c.3 0 .6.3.6.7s-.3.6-.6.6z"/><circle cx="1.6" cy="-.1" r=".1" fill="#ffc258"/><path fill="#4f4b45" d="M1.6.5C1.3.5 1 .2 1-.1s.3-.6.6-.6.6.3.6.6-.2.6-.6.6z"/><circle cx="-3" cy="-1.5" r=".5" fill="#fabfa5"/><circle cx="3" cy="-1.5" r=".5" fill="#fabfa5"/><path fill="none" stroke="#504b46" stroke-linecap="round" stroke-linejoin="round" stroke-miterlimit="10" d="M-1.2-3c.8-.5 1.7-.5 2.5 0"/></symbol><g id="Icons"><g id="XMLID_708_"><circle id="XMLID_2588_" cx="24" cy="21.2" r="20" fill="#ffe500"/><path id="XMLID_2585_" fill="#ebcb00" d="M24 1.2c-11 0-20 9-20 20s9 20 20 20 20-9 20-20-9-20-20-20zm0 37C13.9 38.2 5.8 30.1 5.8 20S13.9 1.8 24 1.8 42.3 9.9 42.3 20 34.1 38.2 24 38.2z"/><ellipse id="XMLID_2584_" cx="24" cy="5.2" fill="#fff48c" rx="6" ry="1.5"/><ellipse id="XMLID_2583_" cx="24" cy="45.2" fill="#45413c" opacity=".15" rx="16" ry="1.5"/><circle id="XMLID_2582_" cx="24" cy="21.2" r="20" fill="none" stroke="#45413c" stroke-linecap="round" stroke-linejoin="round" stroke-miterlimit="10"/><ellipse id="XMLID_2581_" cx="36" cy="24.2" fill="#ffaa54" rx="2.5" ry="1.5"/><ellipse id="XMLID_2580_" cx="12" cy="24.2" fill="#ffaa54" rx="2.5" ry="1.5"/><circle id="XMLID_2579_" cx="13.5" cy="18.2" r="1" fill="#45413c" stroke="#45413c" stroke-linecap="round" stroke-linejoin="round" stroke-miterlimit="10"/><circle id="XMLID_2578_" cx="34.5" cy="18.2" r="1" fill="#45413c" stroke="#45413c" stroke-linecap="round" stroke-linejoin="round" stroke-miterlimit="10"/><path id="XMLID_2577_" fill="none" stroke="#45413c" stroke-linecap="round" stroke-linejoin="round" stroke-miterlimit="10" d="M18.5 26.8s2.8 1 5.5 1 5.5-1 5.5-1"/><path id="XMLID_2576_" fill="#ffe500" stroke="#45413c" stroke-linecap="round" stroke-linejoin="round" stroke-miterlimit="10" d="M24 22.2c-1.1 0-2 .9-2 2v11.5h4V24.2c0-1.1-.9-2-2-2z"/><path id="XMLID_2575_" fill="#ebcb00" d="M27.4 36.3l-1.4.4v-3c0-2.1-1.7-3.9-3.9-3.9H20c-1.4 0-2.5 1.1-2.5 2.5-1.7 0-3 1.3-3 3v4.1c0 3.3 2.6 5.9 5.9 5.9 1.4 0 2.7-.5 3.7-1.3l5.1-4.1c.7-.6 1-1.6.5-2.5-.4-1-1.4-1.4-2.3-1.1z"/><path id="XMLID_2574_" fill="#ffe500" d="M20.4 43.2c1.4 0 2.7-.5 3.7-1.3l5.1-4.1c.2-.2.4-.4.5-.6-.5-.8-1.4-1.2-2.4-.9l-1.3.4v-3c0-2.1-1.7-3.9-3.9-3.9H20c-1.4 0-2.5 1.1-2.5 2.5-1.7 0-3 1.3-3 3v2.1c0 3.2 2.6 5.8 5.9 5.8z"/><path id="XMLID_2573_" fill="none" stroke="#45413c" stroke-linecap="round" stroke-linejoin="round" stroke-miterlimit="10" d="M27.4 36.3l-1.4.4v-3c0-2.1-1.7-3.9-3.9-3.9H20c-1.4 0-2.5 1.1-2.5 2.5-1.7 0-3 1.3-3 3v4.1c0 3.3 2.6 5.9 5.9 5.9 1.4 0 2.7-.5 3.7-1.3l5.1-4.1c.7-.6 1-1.6.5-2.5-.4-1-1.4-1.4-2.3-1.1z"/><path id="XMLID_2572_" fill="none" stroke="#45413c" stroke-linecap="round" stroke-linejoin="round" stroke-miterlimit="10" d="M18.5 35.8v3.5c0 1.1.9 2 2 2s2-.9 2-2v-3"/><path id="XMLID_2571_" fill="none" stroke="#45413c" stroke-linecap="round" stroke-linejoin="round" stroke-miterlimit="10" d="M26 32.2v5.2c0 1-.8 1.8-1.8 1.8s-1.8-.8-1.8-1.8v-2.2c0-1.7-1.4-3-3-3h-2"/></g></g></svg>