<svg xmlns="http://www.w3.org/2000/svg" viewBox="0 0 48 48"><symbol id="New_Symbol_14" viewBox="-6.5 -6.5 13 13"><path fill="#ffd4c3" stroke="#504b46" stroke-linecap="round" stroke-linejoin="round" stroke-miterlimit="10" d="M0-6c2.2 0 4.1 1.5 4.7 3.5C6.3-2.5 6.4 0 5 0v1c0 2.8-2.2 5-5 5s-5-2.2-5-5V0c-1.4 0-1.3-2.5.2-2.5C-4.1-4.5-2.2-6 0-6z"/><circle cx="-1.6" cy="-.1" r=".1" fill="#ffc258"/><path fill="#4f4b45" d="M-1.6.5c-.3 0-.6-.3-.6-.6s.2-.7.6-.7c.3 0 .6.3.6.7s-.3.6-.6.6z"/><circle cx="1.6" cy="-.1" r=".1" fill="#ffc258"/><path fill="#4f4b45" d="M1.6.5C1.3.5 1 .2 1-.1s.3-.6.6-.6.6.3.6.6-.2.6-.6.6z"/><circle cx="-3" cy="-1.5" r=".5" fill="#fabfa5"/><circle cx="3" cy="-1.5" r=".5" fill="#fabfa5"/><path fill="none" stroke="#504b46" stroke-linecap="round" stroke-linejoin="round" stroke-miterlimit="10" d="M-1.2-3c.8-.5 1.7-.5 2.5 0"/></symbol><g id="Icons"><g id="XMLID_429_"><ellipse id="XMLID_464_" cx="28" cy="45.8" fill="#45413c" opacity=".15" rx="11.7" ry="1.6"/><circle id="XMLID_461_" cx="28" cy="27.5" r="13.5" fill="#ffe500"/><path id="XMLID_482_" fill="#ebcb00" d="M28 14c-7.4 0-13.5 6-13.5 13.5S20.5 41 28 41c7.4 0 13.5-6 13.5-13.5S35.5 14 28 14zm0 24.9c-6.8 0-12.3-5.5-12.3-12.3 0-6.8 5.5-12.3 12.3-12.3 6.8 0 12.3 5.5 12.3 12.3 0 6.8-5.5 12.3-12.3 12.3z"/><circle id="XMLID_458_" cx="28" cy="27.5" r="13.5" fill="none" stroke="#45413c" stroke-linecap="round" stroke-linejoin="round" stroke-miterlimit="10"/><circle id="XMLID_456_" cx="28" cy="34" r="5.4" fill="#ffb0ca" stroke="#45413c" stroke-linecap="round" stroke-linejoin="round" stroke-miterlimit="10"/><path id="XMLID_455_" fill="#ff866e" stroke="#45413c" stroke-linecap="round" stroke-linejoin="round" stroke-miterlimit="10" d="M28 34.4c-1.9 0-3.6 1-4.6 2.5 1 1.5 2.6 2.5 4.6 2.5s3.6-1 4.6-2.5c-1-1.5-2.6-2.5-4.6-2.5z"/><g id="XMLID_476_"><path id="XMLID_454_" fill="#dabff5" stroke="#45413c" stroke-linejoin="round" stroke-miterlimit="10" d="M29.6 17.8l-5.9-1.1c-.4-.1-.7-.3-.7-.7-.1-.4.1-.7.4-1l5.4-4-3.8-.7c-.5-.1-.8-.6-.7-1.1.1-.5.6-.8 1.1-.7l5.9 1.1c.4.1.7.3.7.7.1.4-.1.7-.4 1l-5.4 4 3.8.7c.5.1.8.6.7 1.1-.1.5-.6.8-1.1.7z"/></g><g id="XMLID_474_"><path id="XMLID_453_" fill="#dabff5" stroke="#45413c" stroke-linejoin="round" stroke-miterlimit="10" d="M18.8 23.8L14 25.7c-.3.1-.6.1-.9-.2-.2-.2-.3-.6-.2-.9l2.1-5.4-3.1 1.3c-.4.2-.9 0-1-.4-.2-.4 0-.9.4-1l4.8-1.9c.3-.1.6-.1.9.2.2.2.3.6.2.9l-2.1 5.4 3.1-1.3c.4-.2.9 0 1 .4.2.4 0 .8-.4 1z"/></g><g id="XMLID_472_"><path id="XMLID_452_" fill="#dabff5" stroke="#45413c" stroke-linejoin="round" stroke-miterlimit="10" d="M21.6 14.3l-11.3 2.2c-.6.1-1.2-.1-1.5-.6-.3-.5-.3-1.1 0-1.6L16 4.2 8.2 5.7c-.8.2-1.5-.4-1.7-1.1-.1-.8.4-1.6 1.2-1.7L19 .7c.6-.1 1.2.1 1.5.6.3.5.3 1.1 0 1.6L13.3 13l7.8-1.5c.8-.2 1.5.4 1.7 1.1.1.8-.4 1.6-1.2 1.7z"/></g><g id="XMLID_470_"><path id="XMLID_451_" fill="#eddbff" d="M8.2 4.4l11.3-2.2c.4-.1.8 0 1.1.2.1-.4.1-.8-.2-1.2-.3-.5-.9-.7-1.5-.6L7.7 2.9c-.8.1-1.3.9-1.2 1.7.1.4.3.7.6.9.2-.5.6-1 1.1-1.1z"/></g><ellipse id="XMLID_450_" cx="37.1" cy="31.5" fill="#ffaa54" rx="1.7" ry="1"/><ellipse id="XMLID_449_" cx="19" cy="31.5" fill="#ffaa54" rx="1.7" ry="1"/><path id="XMLID_448_" fill="#4aeff7" stroke="#45413c" stroke-linecap="round" stroke-linejoin="round" stroke-miterlimit="10" d="M29.7 39.5c0-.7.4-1.3 1-1.6.2-.1.5-.3.6-.5l.6-.7c.1-.2.3-.3.5-.3.4 0 .7.3.7.7V39c0 .7-.5 1.2-1.2 1.2h-.5v5.4c0 .5-.4.8-.8.8s-.8-.4-.8-.8v-6.1z"/><path id="XMLID_447_" fill="none" stroke="#45413c" stroke-linecap="round" stroke-linejoin="round" stroke-miterlimit="10" d="M37.5 27.5c0 .7-.5 1.2-1.2 1.2s-1.2-.5-1.2-1.2"/><path id="XMLID_446_" fill="none" stroke="#45413c" stroke-linecap="round" stroke-linejoin="round" stroke-miterlimit="10" d="M21 27.5c0 .7-.5 1.2-1.2 1.2s-1.2-.5-1.2-1.2"/><g id="XMLID_463_"><path id="XMLID_445_" fill="none" stroke="#45413c" stroke-linejoin="round" stroke-miterlimit="10" d="M21.6 14.3l-11.3 2.2c-.6.1-1.2-.1-1.5-.6-.3-.5-.3-1.1 0-1.6L16 4.2 8.2 5.7c-.8.2-1.5-.4-1.7-1.1-.1-.8.4-1.6 1.2-1.7L19 .7c.6-.1 1.2.1 1.5.6.3.5.3 1.1 0 1.6L13.3 13l7.8-1.5c.8-.2 1.5.4 1.7 1.1.1.8-.4 1.6-1.2 1.7z"/></g></g></g></svg>