<svg xmlns="http://www.w3.org/2000/svg" viewBox="0 0 48 48"><symbol id="New_Symbol_14" viewBox="-6.5 -6.5 13 13"><path fill="#ffd4c3" stroke="#504b46" stroke-linecap="round" stroke-linejoin="round" stroke-miterlimit="10" d="M0-6c2.2 0 4.1 1.5 4.7 3.5C6.3-2.5 6.4 0 5 0v1c0 2.8-2.2 5-5 5s-5-2.2-5-5V0c-1.4 0-1.3-2.5.2-2.5C-4.1-4.5-2.2-6 0-6z"/><circle cx="-1.6" cy="-.1" r=".1" fill="#ffc258"/><path fill="#4f4b45" d="M-1.6.5c-.3 0-.6-.3-.6-.6s.2-.7.6-.7c.3 0 .6.3.6.7s-.3.6-.6.6z"/><circle cx="1.6" cy="-.1" r=".1" fill="#ffc258"/><path fill="#4f4b45" d="M1.6.5C1.3.5 1 .2 1-.1s.3-.6.6-.6.6.3.6.6-.2.6-.6.6z"/><circle cx="-3" cy="-1.5" r=".5" fill="#fabfa5"/><circle cx="3" cy="-1.5" r=".5" fill="#fabfa5"/><path fill="none" stroke="#504b46" stroke-linecap="round" stroke-linejoin="round" stroke-miterlimit="10" d="M-1.2-3c.8-.5 1.7-.5 2.5 0"/></symbol><g id="Icons"><g id="XMLID_730_"><ellipse id="XMLID_1823_" cx="23.8" cy="44.9" fill="#45413c" opacity=".15" rx="16" ry="1.5"/><circle id="XMLID_1821_" cx="24" cy="21.6" r="20" fill="#ffe500"/><path id="XMLID_1818_" fill="#ebcb00" d="M24 1.6c-11 0-20 9-20 20s9 20 20 20 20-9 20-20-9-20-20-20zm0 37c-10.1 0-18.2-8.2-18.2-18.3-.1-10 8.1-18.2 18.2-18.2s18.2 8.2 18.2 18.2c0 10.1-8.1 18.3-18.2 18.3z"/><ellipse id="XMLID_1779_" cx="24" cy="5.6" fill="#fff48c" rx="6" ry="1.5"/><circle id="XMLID_1778_" cx="24" cy="21.6" r="20" fill="none" stroke="#45413c" stroke-linecap="round" stroke-linejoin="round" stroke-miterlimit="10"/><ellipse id="XMLID_1777_" cx="36" cy="26.6" fill="#ffaa54" rx="2.5" ry="1.5"/><ellipse id="XMLID_1776_" cx="12" cy="26.6" fill="#ffaa54" rx="2.5" ry="1.5"/><path id="XMLID_1772_" fill="#fff" stroke="#45413c" stroke-linecap="round" stroke-linejoin="round" stroke-miterlimit="10" d="M24 38.6c5.6 0 10.3-4 11-9.2 0-.3-.1-.6-.3-.8-.2-.2-.6-.3-.9-.3-6.5 1-13 1-19.5 0-.3-.1-.7 0-.9.3-.2.2-.4.5-.3.8.6 5.2 5.3 9.2 10.9 9.2z"/><path id="XMLID_1771_" fill="#fff" stroke="#45413c" stroke-linecap="round" stroke-linejoin="round" stroke-miterlimit="10" d="M14 32.6s3.9 1.5 10 1.5 9.5-1 9.5-1"/><path id="XMLID_1770_" fill="none" stroke="#45413c" stroke-linecap="round" stroke-linejoin="round" stroke-miterlimit="10" d="M24 29.1v9.5"/><path id="XMLID_1769_" fill="none" stroke="#45413c" stroke-linecap="round" stroke-linejoin="round" stroke-miterlimit="10" d="M17.5 28.8s-.1 5.5 1 8.5"/><path id="XMLID_1768_" fill="none" stroke="#45413c" stroke-linecap="round" stroke-linejoin="round" stroke-miterlimit="10" d="M30.5 28.8s.1 5.5-1 8.5"/><path id="XMLID_1767_" fill="#ebcb00" d="M32.1 21.9l-3 1.6c-.7.4-1.6-.2-1.5-1.1l.6-3.4c.1-.3-.1-.7-.3-.9l-2.4-2.4c-.6-.6-.3-1.6.6-1.7l3.4-.5c.3 0 .6-.3.8-.5l1.5-3.1c.4-.7 1.4-.7 1.8 0L35 13c.1.3.4.5.8.5l3.4.5c.8.1 1.1 1.1.6 1.7l-2.4 2.4c-.2.2-.3.6-.3.9l.6 3.4c.1.8-.7 1.4-1.5 1.1l-3-1.6c-.4-.2-.8-.2-1.1 0z"/><path id="XMLID_1766_" fill="#ebcb00" d="M14.9 22.1l-3 1.6c-.7.4-1.6-.2-1.5-1.1l.6-3.4c.1-.3-.1-.7-.3-.9L8.3 16c-.6-.6-.3-1.6.6-1.7l3.4-.5c.3 0 .6-.3.8-.5l1.5-3.1c.4-.7 1.4-.7 1.8 0l1.5 3.1c.1.3.4.5.8.5l3.4.5c.8.1 1.1 1.1.6 1.7l-2.4 2.4c-.2.2-.3.6-.3.9l.6 3.4c.1.8-.7 1.4-1.5 1.1l-3-1.6c-.5-.3-.9-.3-1.2-.1z"/><path id="XMLID_1765_" fill="#fffacf" d="M33.7 19.5l-3 1.6c-.7.4-1.6-.2-1.5-1.1l.6-3.4c.1-.3-.1-.7-.3-.9l-2.4-2.4c-.6-.6-.3-1.6.6-1.7l3.4-.5c.3 0 .6-.3.8-.5l1.5-3.1c.4-.7 1.4-.7 1.8 0l1.5 3.1c.1.3.4.5.8.5l3.4.5c.8.1 1.1 1.1.6 1.7l-2.4 2.4c-.2.2-.3.6-.3.9l.6 3.4c.1.8-.7 1.4-1.5 1.1l-3-1.6c-.6-.2-.9-.2-1.2 0z"/><g id="XMLID_1763_"><path id="XMLID_1764_" fill="#fff48c" d="M38.8 18.3l-3.1-1.6c-.4-.2-.9-.2-1.3 0l-4.3 2.2c-.3.1-.6.2-.8.2l-.1.9c-.1.8.7 1.4 1.5 1.1l3-1.6c.3-.2.6-.2.9 0l3 1.6c.7.4 1.6-.2 1.5-1.1l-.3-1.7z"/></g><path id="XMLID_1762_" fill="none" stroke="#45413c" stroke-linecap="round" stroke-linejoin="round" stroke-miterlimit="10" d="M33.7 19.5l-3 1.6c-.7.4-1.6-.2-1.5-1.1l.6-3.4c.1-.3-.1-.7-.3-.9l-2.4-2.4c-.6-.6-.3-1.6.6-1.7l3.4-.5c.3 0 .6-.3.8-.5l1.5-3.1c.4-.7 1.4-.7 1.8 0l1.5 3.1c.1.3.4.5.8.5l3.4.5c.8.1 1.1 1.1.6 1.7l-2.4 2.4c-.2.2-.3.6-.3.9l.6 3.4c.1.8-.7 1.4-1.5 1.1l-3-1.6c-.6-.2-.9-.2-1.2 0z"/><path id="XMLID_1761_" fill="#fffacf" d="M14.6 19.5l3 1.6c.7.4 1.6-.2 1.5-1.1l-.6-3.4c-.1-.3.1-.7.3-.9l2.4-2.4c.6-.6.3-1.6-.6-1.7l-3.4-.5c-.3 0-.6-.3-.8-.5L15 7.5c-.4-.7-1.4-.7-1.8 0l-1.5 3.1c-.1.3-.4.5-.8.5l-3.4.5c-.8.1-1.1 1.1-.6 1.7l2.4 2.4c.2.2.3.6.3.9L9.2 20c-.1.8.7 1.4 1.5 1.1l3-1.6c.2-.2.6-.2.9 0z"/><g id="XMLID_1759_"><path id="XMLID_1760_" fill="#fff48c" d="M9.4 18.3l3.1-1.6c.4-.2.9-.2 1.3 0l4.3 2.2c.3.1.6.2.8.2l.1.9c.1.8-.7 1.4-1.5 1.1l-3-1.6c-.3-.2-.6-.2-.9 0l-3 1.6c-.7.3-1.6-.3-1.4-1.1l.2-1.7z"/></g><path id="XMLID_1758_" fill="none" stroke="#45413c" stroke-linecap="round" stroke-linejoin="round" stroke-miterlimit="10" d="M14.6 19.5l3 1.6c.7.4 1.6-.2 1.5-1.1l-.6-3.4c-.1-.3.1-.7.3-.9l2.4-2.4c.6-.6.3-1.6-.6-1.7l-3.4-.5c-.3 0-.6-.3-.8-.5L15 7.5c-.4-.7-1.4-.7-1.8 0l-1.5 3.1c-.1.3-.4.5-.8.5l-3.4.5c-.8.1-1.1 1.1-.6 1.7l2.4 2.4c.2.2.3.6.3.9L9.2 20c-.1.8.7 1.4 1.5 1.1l3-1.6c.2-.2.6-.2.9 0z"/></g></g></svg>