<svg xmlns="http://www.w3.org/2000/svg" viewBox="0 0 48 48"><symbol id="New_Symbol_14" viewBox="-6.5 -6.5 13 13"><path fill="#ffd4c3" stroke="#504b46" stroke-linecap="round" stroke-linejoin="round" stroke-miterlimit="10" d="M0-6c2.2 0 4.1 1.5 4.7 3.5C6.3-2.5 6.4 0 5 0v1c0 2.8-2.2 5-5 5s-5-2.2-5-5V0c-1.4 0-1.3-2.5.2-2.5C-4.1-4.5-2.2-6 0-6z"/><circle cx="-1.6" cy="-.1" r=".1" fill="#ffc258"/><path fill="#4f4b45" d="M-1.6.5c-.3 0-.6-.3-.6-.6s.2-.7.6-.7c.3 0 .6.3.6.7s-.3.6-.6.6z"/><circle cx="1.6" cy="-.1" r=".1" fill="#ffc258"/><path fill="#4f4b45" d="M1.6.5C1.3.5 1 .2 1-.1s.3-.6.6-.6.6.3.6.6-.2.6-.6.6z"/><circle cx="-3" cy="-1.5" r=".5" fill="#fabfa5"/><circle cx="3" cy="-1.5" r=".5" fill="#fabfa5"/><path fill="none" stroke="#504b46" stroke-linecap="round" stroke-linejoin="round" stroke-miterlimit="10" d="M-1.2-3c.8-.5 1.7-.5 2.5 0"/></symbol><g id="Icons"><g id="XMLID_670_"><circle id="XMLID_643_" cx="24" cy="21.7" r="20" fill="#ffe500"/><path id="XMLID_635_" fill="#ebcb00" d="M24 1.7c-11 0-20 9-20 20s9 20 20 20 20-9 20-20-9-20-20-20zm0 37c-10.1 0-18.2-8.2-18.2-18.2C5.8 10.3 13.9 2.2 24 2.2s18.2 8.2 18.2 18.2c0 10.1-8.1 18.3-18.2 18.3z"/><ellipse id="XMLID_634_" cx="24" cy="5.7" fill="#fff48c" rx="6" ry="1.5"/><ellipse id="XMLID_633_" cx="24" cy="44.8" fill="#45413c" opacity=".15" rx="16" ry="1.5"/><ellipse id="XMLID_632_" cx="36" cy="26.7" fill="#ffaa54" rx="2.5" ry="1.5"/><ellipse id="XMLID_631_" cx="12" cy="26.7" fill="#ffaa54" rx="2.5" ry="1.5"/><path id="XMLID_630_" fill="#8cffe4" stroke="#45413c" stroke-linecap="round" stroke-linejoin="round" stroke-miterlimit="10" d="M13 38.4c3.2 2.1 6.9 3.3 11 3.3s7.8-1.2 11-3.3v-8.7s-6-2.5-11-2.5-11 2.5-11 2.5v8.7z"/><path id="XMLID_629_" fill="#e5fff9" d="M24 27.2c-5 0-11 2.5-11 2.5v2.5s6-2.5 11-2.5 11 2.5 11 2.5v-2.5s-6-2.5-11-2.5z"/><path id="XMLID_628_" fill="none" stroke="#45413c" stroke-linecap="round" stroke-linejoin="round" stroke-miterlimit="10" d="M13 38.4c3.2 2.1 6.9 3.3 11 3.3s7.8-1.2 11-3.3v-8.7s-6-2.5-11-2.5-11 2.5-11 2.5v8.7z"/><circle id="XMLID_627_" cx="24" cy="21.7" r="20" fill="none" stroke="#45413c" stroke-linecap="round" stroke-linejoin="round" stroke-miterlimit="10"/><path id="XMLID_626_" fill="none" stroke="#45413c" stroke-linecap="round" stroke-linejoin="round" stroke-miterlimit="10" d="M13 29.7l-9-7"/><path id="XMLID_625_" fill="none" stroke="#45413c" stroke-linecap="round" stroke-linejoin="round" stroke-miterlimit="10" d="M35 29.7l9-7"/><path id="XMLID_624_" fill="none" stroke="#45413c" stroke-linecap="round" stroke-linejoin="round" stroke-miterlimit="10" d="M35 33.7s1.5 1 4 1"/><path id="XMLID_622_" fill="none" stroke="#45413c" stroke-linecap="round" stroke-linejoin="round" stroke-miterlimit="10" d="M13 33.7s-1.5 1-4 1"/><path id="XMLID_621_" fill="none" stroke="#45413c" stroke-linecap="round" stroke-linejoin="round" stroke-miterlimit="10" d="M16.5 21.2H11"/><path id="XMLID_620_" fill="none" stroke="#45413c" stroke-linecap="round" stroke-linejoin="round" stroke-miterlimit="10" d="M37 21.2h-5.5"/><g id="XMLID_613_"><path id="XMLID_617_" fill="none" stroke="#45413c" stroke-linecap="round" stroke-linejoin="round" stroke-miterlimit="10" d="M13 16.3c1.1-.2 2.2-.5 3.4-1.1 1.1-.6 2.1-1.3 2.9-2.1"/><path id="XMLID_616_" fill="none" stroke="#45413c" stroke-linecap="round" stroke-linejoin="round" stroke-miterlimit="10" d="M34.5 16.3c-1.1-.2-2.2-.5-3.4-1.1-1.1-.6-2.1-1.3-2.9-2.1"/></g></g></g></svg>