<svg xmlns="http://www.w3.org/2000/svg" viewBox="0 0 48 48"><symbol id="New_Symbol_14" viewBox="-6.5 -6.5 13 13"><path fill="#ffd4c3" stroke="#504b46" stroke-linecap="round" stroke-linejoin="round" stroke-miterlimit="10" d="M0-6c2.2 0 4.1 1.5 4.7 3.5C6.3-2.5 6.4 0 5 0v1c0 2.8-2.2 5-5 5s-5-2.2-5-5V0c-1.4 0-1.3-2.5.2-2.5C-4.1-4.5-2.2-6 0-6z"/><circle cx="-1.6" cy="-.1" r=".1" fill="#ffc258"/><path fill="#4f4b45" d="M-1.6.5c-.3 0-.6-.3-.6-.6s.2-.7.6-.7c.3 0 .6.3.6.7s-.3.6-.6.6z"/><circle cx="1.6" cy="-.1" r=".1" fill="#ffc258"/><path fill="#4f4b45" d="M1.6.5C1.3.5 1 .2 1-.1s.3-.6.6-.6.6.3.6.6-.2.6-.6.6z"/><circle cx="-3" cy="-1.5" r=".5" fill="#fabfa5"/><circle cx="3" cy="-1.5" r=".5" fill="#fabfa5"/><path fill="none" stroke="#504b46" stroke-linecap="round" stroke-linejoin="round" stroke-miterlimit="10" d="M-1.2-3c.8-.5 1.7-.5 2.5 0"/></symbol><g id="Icons"><g id="XMLID_647_"><circle id="XMLID_7848_" cx="24" cy="21.2" r="20" fill="#ffe500"/><path id="XMLID_7845_" fill="#ebcb00" d="M24 1.2c-11 0-20 9-20 20s9 20 20 20 20-9 20-20-9-20-20-20zm0 37C13.9 38.2 5.8 30 5.8 19.9c0-10 8.1-18.2 18.2-18.2s18.2 8.2 18.2 18.2C42.3 30 34.1 38.2 24 38.2z"/><ellipse id="XMLID_7844_" cx="24" cy="5.2" fill="#fff48c" rx="6" ry="1.5"/><ellipse id="XMLID_7843_" cx="24" cy="45.2" fill="#45413c" opacity=".15" rx="16" ry="1.5"/><circle id="XMLID_7842_" cx="24" cy="21.2" r="20" fill="none" stroke="#45413c" stroke-linecap="round" stroke-linejoin="round" stroke-miterlimit="10"/><path id="XMLID_7841_" fill="none" stroke="#45413c" stroke-linecap="round" stroke-linejoin="round" stroke-miterlimit="10" d="M16.5 28.7s2.3 2 7.5 2 7.5-2 7.5-2"/><g id="XMLID_7839_"><path id="XMLID_7840_" fill="#fff" stroke="#45413c" stroke-linecap="round" stroke-linejoin="round" stroke-miterlimit="10" d="M20.2 32c.2.7.8 1.2 1.5 1.3l1.5.2c.4.1.8-.3.8-.7v-2.2c-1.7 0-3.1-.2-4.3-.5l.5 1.9z"/></g><g id="XMLID_7837_"><path id="XMLID_7838_" fill="#fff" stroke="#45413c" stroke-linecap="round" stroke-linejoin="round" stroke-miterlimit="10" d="M24 30.7v2.2c0 .4.4.7.8.7l1.5-.2c.7-.1 1.3-.6 1.5-1.3l.5-1.9c-1.2.3-2.6.5-4.3.5z"/></g><circle id="XMLID_7836_" cx="15" cy="19.7" r="7.5" fill="#b89558" stroke="#45413c" stroke-linecap="round" stroke-linejoin="round" stroke-miterlimit="10"/><circle id="XMLID_7835_" cx="15" cy="19.7" r="5.5" fill="#00b8f0"/><path id="XMLID_7834_" fill="#4acfff" d="M15 14.2c-3 0-5.5 2.5-5.5 5.5 0 1.6.7 3 1.7 4l7.8-7.8c-1-1.1-2.4-1.7-4-1.7z"/><circle id="XMLID_7833_" cx="15" cy="19.7" r="5.5" fill="none" stroke="#45413c" stroke-linecap="round" stroke-linejoin="round" stroke-miterlimit="10"/><circle id="XMLID_7832_" cx="33" cy="19.7" r="7.5" fill="#b89558" stroke="#45413c" stroke-linecap="round" stroke-linejoin="round" stroke-miterlimit="10"/><circle id="XMLID_7831_" cx="33" cy="19.7" r="5.5" fill="#00b8f0"/><path id="XMLID_7830_" fill="#4acfff" d="M33 14.2c-3 0-5.5 2.5-5.5 5.5 0 1.6.7 3 1.7 4l7.8-7.8c-1-1.1-2.4-1.7-4-1.7z"/><circle id="XMLID_7829_" cx="33" cy="19.7" r="5.5" fill="none" stroke="#45413c" stroke-linecap="round" stroke-linejoin="round" stroke-miterlimit="10"/><path id="XMLID_7828_" fill="none" stroke="#45413c" stroke-linecap="round" stroke-linejoin="round" stroke-miterlimit="10" d="M40.5 19.7H45"/><path id="XMLID_7827_" fill="none" stroke="#45413c" stroke-linecap="round" stroke-linejoin="round" stroke-miterlimit="10" d="M7.5 19.7H3"/><path id="XMLID_7826_" fill="none" stroke="#45413c" stroke-linecap="round" stroke-linejoin="round" stroke-miterlimit="10" d="M25.5 19.7h-3"/><g id="XMLID_7821_"><path id="XMLID_7825_" fill="#ff6242" stroke="#45413c" stroke-linecap="round" stroke-linejoin="round" stroke-miterlimit="10" d="M24 40.3c.9-.5 3.8-1.8 5.5-2.1.5-.1 1.1.2 1.2.7.3 1.3.3 3.2 0 5.3-.1.7-.9 1.1-1.5.8-1.7-.8-4.3-2-5.2-2.7v-2z"/><path id="XMLID_7824_" fill="#ff6242" stroke="#45413c" stroke-linecap="round" stroke-linejoin="round" stroke-miterlimit="10" d="M24 40.3c-.9-.5-3.8-1.8-5.5-2.1-.5-.1-1.1.2-1.2.7-.3 1.3-.3 3.2 0 5.3.1.7.9 1.1 1.5.8 1.7-.8 4.3-2 5.2-2.7v-2z"/><path id="XMLID_7823_" fill="none" stroke="#45413c" stroke-linecap="round" stroke-linejoin="round" stroke-miterlimit="10" d="M20.2 41.7h7.6"/><path id="XMLID_7822_" fill="#ff6242" stroke="#45413c" stroke-linecap="round" stroke-linejoin="round" stroke-miterlimit="10" d="M23 39.7h2v4h-2z"/></g></g></g></svg>