<svg xmlns="http://www.w3.org/2000/svg" viewBox="0 0 48 48"><symbol id="New_Symbol_14" viewBox="-6.5 -6.5 13 13"><path fill="#ffd4c3" stroke="#504b46" stroke-linecap="round" stroke-linejoin="round" stroke-miterlimit="10" d="M0-6c2.2 0 4.1 1.5 4.7 3.5C6.3-2.5 6.4 0 5 0v1c0 2.8-2.2 5-5 5s-5-2.2-5-5V0c-1.4 0-1.3-2.5.2-2.5C-4.1-4.5-2.2-6 0-6z"/><circle cx="-1.6" cy="-.1" r=".1" fill="#ffc258"/><path fill="#4f4b45" d="M-1.6.5c-.3 0-.6-.3-.6-.6s.2-.7.6-.7c.3 0 .6.3.6.7s-.3.6-.6.6z"/><circle cx="1.6" cy="-.1" r=".1" fill="#ffc258"/><path fill="#4f4b45" d="M1.6.5C1.3.5 1 .2 1-.1s.3-.6.6-.6.6.3.6.6-.2.6-.6.6z"/><circle cx="-3" cy="-1.5" r=".5" fill="#fabfa5"/><circle cx="3" cy="-1.5" r=".5" fill="#fabfa5"/><path fill="none" stroke="#504b46" stroke-linecap="round" stroke-linejoin="round" stroke-miterlimit="10" d="M-1.2-3c.8-.5 1.7-.5 2.5 0"/></symbol><g id="Icons"><g id="XMLID_623_"><circle id="XMLID_7479_" cx="24" cy="21.6" r="20" fill="#ffe500"/><path id="XMLID_7476_" fill="#ebcb00" d="M24 1.6c-11 0-20 9-20 20s9 20 20 20 20-9 20-20-9-20-20-20zm0 37c-10.1 0-18.2-8.2-18.2-18.2C5.8 10.2 13.9 2.1 24 2.1s18.2 8.2 18.2 18.2c.1 10.1-8.1 18.3-18.2 18.3z"/><ellipse id="XMLID_7475_" cx="23.8" cy="8.4" fill="#fff48c" rx="6" ry="1.5"/><circle id="XMLID_7474_" cx="24" cy="21.6" r="20" fill="none" stroke="#45413c" stroke-linecap="round" stroke-linejoin="round" stroke-miterlimit="10"/><ellipse id="XMLID_7473_" cx="24" cy="44.9" fill="#45413c" opacity=".15" rx="16" ry="1.5"/><ellipse id="XMLID_7472_" cx="37.5" cy="26.6" fill="#ffaa54" rx="2.5" ry="1.5"/><ellipse id="XMLID_7471_" cx="10.5" cy="26.6" fill="#ffaa54" rx="2.5" ry="1.5"/><g id="XMLID_7469_"><path id="XMLID_7470_" fill="#ffb0ca" stroke="#45413c" stroke-linecap="round" stroke-linejoin="round" stroke-miterlimit="10" d="M16.4 28c.5 8 5.1 11 6.8 12 .4.2.9.2 1.4 0 1.8-1 6.3-3.9 6.8-12 0-.8-.6-1.5-1.4-1.5H17.8c-.8.1-1.4.7-1.4 1.5z"/></g><g id="XMLID_7465_"><path id="XMLID_7468_" fill="#ff6242" d="M24 33.1c0-1.5 4.5-1.1 4.5.5v6.5c0 2.5-2 4.5-4.5 4.5s-4.5-2-4.5-4.5v-6.5c0-1.6 4.5-2 4.5-.5z"/><path id="XMLID_7467_" fill="#ff866e" d="M24 33.1c0-1.5-4.5-1.1-4.5.5v2c0-1.6 9-1.6 9 0v-2c0-1.6-4.5-2-4.5-.5z"/><path id="XMLID_7466_" fill="none" stroke="#45413c" stroke-linecap="round" stroke-linejoin="round" stroke-miterlimit="10" d="M24 33.1c0-1.5 4.5-1.1 4.5.5v6.5c0 2.5-2 4.5-4.5 4.5s-4.5-2-4.5-4.5v-6.5c0-1.6 4.5-2 4.5-.5z"/></g><circle id="XMLID_7464_" cx="14" cy="20.6" r="1" fill="#45413c" stroke="#45413c" stroke-linecap="round" stroke-linejoin="round" stroke-miterlimit="10"/><circle id="XMLID_7463_" cx="35" cy="20.6" r="1" fill="#45413c" stroke="#45413c" stroke-linecap="round" stroke-linejoin="round" stroke-miterlimit="10"/></g></g></svg>